<svg width="43" height="41" viewBox="0 0 43 41" fill="none" xmlns="http://www.w3.org/2000/svg">
<path d="M32.9789 40.3729C32.6392 40.3743 32.304 40.2942 32.0017 40.1393L21.1671 34.467L10.3325 40.1393C9.98063 40.3243 9.58397 40.4068 9.18755 40.3776C8.79113 40.3484 8.41086 40.2085 8.08996 39.974C7.76907 39.7394 7.52043 39.4195 7.3723 39.0506C7.22417 38.6817 7.1825 38.2787 7.25203 37.8874L9.37646 25.9268L0.623797 17.4291C0.350717 17.1566 0.156998 16.8148 0.0634303 16.4406C-0.0301378 16.0663 -0.0200233 15.6736 0.0926885 15.3046C0.21582 14.9271 0.44232 14.5916 0.746483 14.3362C1.05065 14.0809 1.42029 13.9159 1.81348 13.86L13.9227 12.0968L19.2551 1.19841C19.429 0.839234 19.7006 0.536318 20.0388 0.324366C20.3769 0.112415 20.768 0 21.1671 0C21.5661 0 21.9572 0.112415 22.2953 0.324366C22.6335 0.536318 22.9051 0.839234 23.079 1.19841L28.4751 12.0755L40.5844 13.8388C40.9776 13.8947 41.3472 14.0596 41.6514 14.315C41.9555 14.5703 42.182 14.9058 42.3052 15.2834C42.4179 15.6524 42.428 16.045 42.3344 16.4193C42.2408 16.7936 42.0471 17.1353 41.7741 17.4078L33.0214 25.9056L35.1458 37.8661C35.2217 38.2644 35.182 38.6761 35.0314 39.0525C34.8808 39.4289 34.6256 39.7544 34.2961 39.9905C33.9114 40.2601 33.4482 40.3946 32.9789 40.3729ZM21.1671 29.9632C21.5076 29.9546 21.8445 30.0352 22.1443 30.1969L30.1534 34.4458L28.6238 25.5019C28.5645 25.1604 28.5896 24.8096 28.697 24.48C28.8044 24.1504 28.9908 23.8522 29.2399 23.6112L35.6132 17.3866L26.6906 16.0694C26.3634 16.0036 26.0563 15.8615 25.7943 15.6548C25.5322 15.4481 25.3225 15.1826 25.1822 14.8798L21.1671 6.91314L17.1519 14.8798C16.9982 15.185 16.7731 15.4487 16.4957 15.6485C16.2183 15.8482 15.8968 15.978 15.5586 16.027L6.63594 17.3441L13.0092 23.5687C13.2584 23.8097 13.4448 24.108 13.5522 24.4375C13.6596 24.7671 13.6847 25.1179 13.6253 25.4594L12.0957 34.2971L20.1048 30.0482C20.4442 29.922 20.8119 29.8926 21.1671 29.9632Z" fill="#00A9CB"/>
</svg>
