<svg width="256" height="73" viewBox="0 0 256 73" fill="none" xmlns="http://www.w3.org/2000/svg">
<path d="M89.4104 54.8078C88.9499 54.3924 88.3454 54.1593 87.7161 54.1544C86.2468 54.1544 85.3921 55.2253 85.4034 56.5067C85.4034 57.6176 86.0856 58.6848 87.7161 58.6848C88.2785 58.6977 88.8256 58.506 89.2492 58.1476V56.9133H87.4987V56.0457H90.1788V58.536C89.8746 58.8778 89.496 59.1501 89.0702 59.3333C88.6444 59.5166 88.182 59.6063 87.7161 59.596C85.4109 59.596 84.4175 58.1113 84.4175 56.4958C84.4175 54.7425 85.572 53.2505 87.7161 53.2505C88.5848 53.2496 89.4187 53.581 90.0364 54.1725L89.4104 54.8078Z" fill="#00A9CB"/>
<path d="M96.0937 59.4873H91.4457V53.4104H96.0525V54.3542H92.4503V55.9951H95.9438V56.899H92.484V58.5325H96.1125L96.0937 59.4873Z" fill="#00A9CB"/>
<path d="M101.131 54.7535C100.944 54.5326 100.707 54.3566 100.437 54.2395C100.168 54.1223 99.8746 54.0672 99.5796 54.0783C98.74 54.0783 98.129 54.4159 98.129 54.9967C98.129 55.5775 98.83 55.7518 99.6508 55.8643C100.944 56.0386 102.17 56.387 102.17 57.7483C102.17 59.1097 100.88 59.6251 99.5721 59.6251C98.3726 59.6251 97.4468 59.2621 96.8733 58.2457L97.623 57.7592C97.827 58.0791 98.1157 58.3404 98.4591 58.5159C98.8024 58.6914 99.188 58.7748 99.5759 58.7575C100.326 58.7575 101.165 58.5143 101.165 57.7483C101.165 57.0913 100.438 56.8626 99.5609 56.7501C98.3127 56.5867 97.1319 56.2818 97.1319 54.9822C97.1319 53.6826 98.4214 53.2361 99.5496 53.2361C100.457 53.2361 101.36 53.443 101.889 54.2598L101.131 54.7535Z" fill="#00A9CB"/>
<path d="M104.726 54.2853H102.665V53.4104H107.789V54.2853H105.738V59.4873H104.726V54.2853Z" fill="#00A9CB"/>
<path d="M112.515 58.2092H109.116L108.527 59.487H107.459L110.274 53.4102H111.368L114.18 59.487H113.115L112.515 58.2092ZM109.412 52.5244C109.584 52.038 109.94 51.7076 110.469 51.8202C110.686 51.8746 110.874 52.0017 111.08 52.0743C111.286 52.1469 111.537 52.1505 111.635 51.8456L112.227 52.0634C112.219 52.1845 112.183 52.3024 112.122 52.4082C112.06 52.5141 111.975 52.6052 111.873 52.6749C111.77 52.7446 111.653 52.7911 111.529 52.8109C111.406 52.8308 111.279 52.8234 111.159 52.7894C110.952 52.7163 110.749 52.6327 110.551 52.5389C110.495 52.5159 110.434 52.5045 110.373 52.5053C110.312 52.5061 110.252 52.5193 110.196 52.5438C110.14 52.5684 110.091 52.6039 110.05 52.648C110.009 52.6922 109.978 52.744 109.959 52.8003L109.412 52.5244ZM110.821 54.4339L109.494 57.338H112.148L110.821 54.4339Z" fill="#00A9CB"/>
<path d="M120.841 56.4741C120.841 58.1149 119.81 59.6142 117.632 59.6142C115.454 59.6142 114.423 58.0786 114.423 56.4814C114.402 56.0629 114.471 55.6447 114.625 55.2532C114.779 54.8616 115.015 54.5052 115.318 54.2062C115.621 53.9072 115.985 53.6722 116.386 53.5158C116.788 53.3595 117.218 53.2852 117.651 53.2977C119.791 53.305 120.841 54.8333 120.841 56.4741ZM117.632 58.7212C119.191 58.7212 119.843 57.6539 119.843 56.4923C119.843 55.3306 119.184 54.2089 117.651 54.1835C116.196 54.1835 115.402 55.1636 115.402 56.4923C115.435 57.5668 116.08 58.7212 117.632 58.7212Z" fill="#00A9CB"/>
<path d="M124.263 59.4873V53.4104H128.701V54.3579H125.267V56.2056H128.528V57.1095H125.267V59.48L124.263 59.4873Z" fill="#00A9CB"/>
<path d="M129.874 59.4873V53.4104H130.867V59.4873H129.874Z" fill="#00A9CB"/>
<path d="M136.775 57.7339V53.4104H137.779V59.4873H137.03L133.469 55.1964V59.4873H132.457V53.4104H133.229L136.775 57.7339Z" fill="#00A9CB"/>
<path d="M143.702 58.2094H140.306L139.714 59.4873H138.649L141.46 53.4104H142.555L145.37 59.4873H144.298L143.702 58.2094ZM142.008 54.4341L140.681 57.3382H143.335L142.008 54.4341Z" fill="#00A9CB"/>
<path d="M150.569 57.7339V53.4104H151.574V59.4873H150.824L147.267 55.1964V59.4873H146.255V53.4104H147.023L150.569 57.7339Z" fill="#00A9CB"/>
<path d="M158.429 58.703C158.118 58.997 157.749 59.2283 157.344 59.3834C156.939 59.5385 156.507 59.6145 156.072 59.6069C153.793 59.6069 152.773 58.0895 152.762 56.4922C152.751 54.895 153.83 53.305 156.072 53.305C156.498 53.3031 156.921 53.3837 157.315 53.542C157.709 53.7004 158.066 53.9332 158.366 54.227L157.695 54.8623C157.259 54.4567 156.676 54.2326 156.072 54.2379C155.762 54.2215 155.453 54.2686 155.163 54.3763C154.874 54.484 154.612 54.6497 154.393 54.8626C154.175 55.0756 154.005 55.3308 153.896 55.6117C153.787 55.8926 153.74 56.1926 153.759 56.4922C153.759 57.6031 154.449 58.7066 156.072 58.7066C156.694 58.6998 157.291 58.4636 157.74 58.0459L158.429 58.703Z" fill="#00A9CB"/>
<path d="M164.082 59.4873H159.449V53.4104H164.056V54.3542H160.454V55.9951H163.913V56.899H160.454V58.5325H164.082V59.4873Z" fill="#00A9CB"/>
<path d="M165.375 59.4873V53.4104H166.369V59.4873H165.375Z" fill="#00A9CB"/>
<path d="M173.359 59.4873H172.186L170.274 57.4036H168.951V59.5054H167.947V53.4104C168.921 53.4104 169.892 53.4104 170.867 53.4104C172.321 53.4104 173.082 54.3724 173.082 55.3961C173.105 55.8635 172.941 56.3215 172.624 56.6746C172.307 57.0277 171.861 57.2485 171.38 57.291L173.254 59.313L173.359 59.4873ZM168.951 54.2962V56.4996H170.859C171.014 56.5166 171.172 56.5008 171.32 56.4531C171.469 56.4054 171.604 56.3271 171.719 56.2235C171.833 56.1199 171.922 55.9936 171.981 55.8532C172.04 55.7129 172.066 55.5619 172.059 55.4106C172.063 55.2595 172.035 55.1092 171.976 54.9691C171.917 54.8291 171.829 54.7025 171.717 54.5973C171.605 54.4921 171.471 54.4107 171.325 54.3583C171.178 54.3058 171.022 54.2834 170.867 54.2925L168.951 54.2962Z" fill="#00A9CB"/>
<path d="M178.753 58.2094H175.357L174.765 59.4873H173.7L176.512 53.4104H177.606L180.421 59.4873H179.353L178.753 58.2094ZM177.059 54.4341L175.732 57.3382H178.386L177.059 54.4341Z" fill="#00A9CB"/>
<path d="M187.315 58.2094H183.919L183.326 59.4873H182.258L185.073 53.4104H186.168L188.983 59.4873H187.914L187.315 58.2094ZM185.62 54.4341L184.293 57.3382H186.947L185.62 54.4341Z" fill="#00A9CB"/>
<path d="M194.841 53.4104V56.9607C194.841 58.7503 193.623 59.6434 192.109 59.5925C190.71 59.5562 189.518 58.6886 189.518 56.9607V53.4104H190.512V56.9607C190.512 58.0497 191.175 58.6632 192.109 58.6959C193.113 58.7503 193.848 58.1151 193.848 56.9607V53.4104H194.841Z" fill="#00A9CB"/>
<path d="M197.765 54.2853H195.703V53.4104H200.827V54.2853H198.777V59.4873H197.765V54.2853Z" fill="#00A9CB"/>
<path d="M207.623 56.4741C207.623 58.1149 206.593 59.6142 204.415 59.6142C202.237 59.6142 201.206 58.0786 201.206 56.4814C201.185 56.0631 201.253 55.645 201.407 55.2534C201.56 54.8619 201.796 54.5054 202.099 54.2064C202.401 53.9073 202.765 53.6722 203.166 53.5158C203.567 53.3595 203.997 53.2852 204.43 53.2977C206.574 53.305 207.623 54.8333 207.623 56.4741ZM204.415 58.7212C205.974 58.7212 206.626 57.6539 206.626 56.4923C206.626 55.3306 205.963 54.2089 204.43 54.1835C202.979 54.1835 202.199 55.1636 202.199 56.4923C202.218 57.5668 202.863 58.7212 204.415 58.7212Z" fill="#00A9CB"/>
<path d="M214.273 54.8334L212.144 57.7049H211.926L209.82 54.8334V59.4945H208.819V53.4104H209.985L212.054 56.2564L214.116 53.4104H215.281V59.4873H214.277L214.273 54.8334Z" fill="#00A9CB"/>
<path d="M221.2 58.2094H217.804L217.212 59.4873H216.143L218.958 53.4104H220.053L222.868 59.4873H221.8L221.2 58.2094ZM219.506 54.4341L218.179 57.3382H220.833L219.506 54.4341Z" fill="#00A9CB"/>
<path d="M224.596 54.2853H222.534V53.4104H227.662V54.2853H225.608V59.4873H224.596V54.2853Z" fill="#00A9CB"/>
<path d="M228.603 59.4873V53.4104H229.596V59.4873H228.603Z" fill="#00A9CB"/>
<path d="M230.905 53.4104H235.485V53.8533L232.037 58.5725H235.485V59.5018H230.612V58.9536L233.986 54.3179H230.882L230.905 53.4104Z" fill="#00A9CB"/>
<path d="M240.98 58.2094H237.584L236.992 59.4873H235.924L238.757 53.4104H239.852L242.667 59.4873H241.599L240.98 58.2094ZM239.286 54.4341L237.959 57.3382H240.632L239.286 54.4341Z" fill="#00A9CB"/>
<path d="M245.879 53.4104C248.024 53.4104 248.998 54.8951 249.024 56.3944C249.051 57.8936 248.076 59.4873 245.879 59.4873H243.518V53.4104H245.879ZM244.5 58.5471H245.879C247.413 58.5471 248.057 57.458 248.031 56.369C248.042 56.094 247.994 55.8198 247.89 55.5639C247.785 55.3081 247.626 55.0763 247.424 54.8834C247.221 54.6905 246.979 54.5409 246.713 54.4442C246.447 54.3474 246.163 54.3056 245.879 54.3216H244.5V58.5471Z" fill="#00A9CB"/>
<path d="M254.336 58.2094H250.936L250.347 59.4873H249.279L252.094 53.4104H253.189L256 59.4873H254.935L254.336 58.2094ZM252.626 54.4341L251.3 57.3382H253.953L252.626 54.4341Z" fill="#00A9CB"/>
<path d="M108.872 40.9154C105.648 44.001 101.728 45.228 97.3981 45.228C86.1529 45.228 81.7936 38.3852 81.7523 30.8708C81.7111 23.7484 86.6552 16.1941 97.3981 16.1941C99.4552 16.1742 101.495 16.5561 103.396 17.3171C105.298 18.078 107.021 19.2024 108.463 20.6229L103.482 25.3711C102.687 24.5937 101.739 23.9794 100.694 23.5646C99.6483 23.1498 98.5276 22.9432 97.3981 22.9571C91.8842 22.9571 89.7177 27.3132 89.7589 30.9071C89.8001 34.5009 91.7605 38.5812 97.3981 38.5812C99.9358 38.5196 102.352 37.5148 104.145 35.7751L108.872 40.9154Z" fill="#143C68"/>
<path d="M125.661 45.1881C116.29 45.1881 109.772 39.928 109.772 30.6675C109.772 21.5704 116.305 16.147 125.661 16.147C135.017 16.147 141.547 21.447 141.547 30.6675C141.547 39.8881 135.054 45.1881 125.661 45.1881ZM125.661 22.841C121.043 22.841 117.857 26.0827 117.857 30.6712C117.857 35.2597 121.084 38.505 125.661 38.505C130.399 38.505 133.461 35.2597 133.461 30.6712C133.461 25.9266 130.399 22.841 125.661 22.841Z" fill="#143C68"/>
<path d="M163.359 24.4998C161.398 23.0767 159.149 22.6012 156.66 22.6012C154.7 22.6012 152.777 23.1965 152.777 24.6595C152.777 26.5581 154.7 26.8376 157.515 27.1098C163.194 27.7052 169.116 29.9196 169.116 36.2868C169.116 42.5779 162.991 45.2678 156.578 45.3077C151.431 45.3477 147.754 44.4764 143.792 40.4397L148.245 35.4955C151.064 38.1491 154.209 38.621 156.619 38.621C159.273 38.621 161.117 37.7135 161.117 36.1707C161.117 34.784 159.483 33.9164 156.338 33.6296C150.089 33.0778 144.699 31.535 144.699 24.6522C144.699 18.7968 150.622 16.2666 156.668 16.2666C160.956 16.2666 164.303 17.2141 167.366 19.5337L163.359 24.4998Z" fill="#143C68"/>
<path d="M172.954 44.5164V16.8257H180.998V44.5164H172.954Z" fill="#143C68"/>
<path d="M210.693 28.021L203.38 36.4067H201.952L194.804 28.0573V44.5164H186.797V16.8257H195.254L202.75 26.2023L210.247 16.8257H218.662V44.5164H210.693V28.021Z" fill="#143C68"/>
<path d="M238.791 45.1881C229.42 45.1881 222.905 39.928 222.905 30.6675C222.905 21.5704 229.439 16.147 238.791 16.147C248.143 16.147 254.68 21.447 254.68 30.6675C254.68 39.8881 248.185 45.1881 238.791 45.1881ZM238.791 22.841C234.177 22.841 230.991 26.0827 230.991 30.6712C230.991 35.2597 234.218 38.505 238.791 38.505C243.529 38.505 246.591 35.2597 246.591 30.6712C246.591 25.9266 243.529 22.841 238.791 22.841Z" fill="#143C68"/>
<path d="M50.7383 68.7151C54.6282 68.7151 57.7815 65.6612 57.7815 61.894C57.7815 58.1269 54.6282 55.073 50.7383 55.073C46.8484 55.073 43.6951 58.1269 43.6951 61.894C43.6951 65.6612 46.8484 68.7151 50.7383 68.7151Z" fill="url(#paint0_linear_25_1042)"/>
<path d="M30.0134 4.94426C31.2411 4.94426 32.2362 3.98048 32.2362 2.79159C32.2362 1.6027 31.2411 0.638916 30.0134 0.638916C28.7858 0.638916 27.7906 1.6027 27.7906 2.79159C27.7906 3.98048 28.7858 4.94426 30.0134 4.94426Z" fill="url(#paint1_linear_25_1042)"/>
<path d="M29.1848 19.9041C30.3607 19.9041 31.3139 18.981 31.3139 17.8422C31.3139 16.7034 30.3607 15.7803 29.1848 15.7803C28.0089 15.7803 27.0557 16.7034 27.0557 17.8422C27.0557 18.981 28.0089 19.9041 29.1848 19.9041Z" fill="url(#paint2_linear_25_1042)"/>
<path d="M24.6606 28.5982C26.7308 28.5982 28.409 26.9729 28.409 24.968C28.409 22.9632 26.7308 21.3379 24.6606 21.3379C22.5904 21.3379 20.9122 22.9632 20.9122 24.968C20.9122 26.9729 22.5904 28.5982 24.6606 28.5982Z" fill="url(#paint3_linear_25_1042)"/>
<path d="M17.9324 65.5603C22.2405 65.5603 25.7328 62.1781 25.7328 58.006C25.7328 53.8338 22.2405 50.4517 17.9324 50.4517C13.6244 50.4517 10.132 53.8338 10.132 58.006C10.132 62.1781 13.6244 65.5603 17.9324 65.5603Z" fill="url(#paint4_linear_25_1042)"/>
<path d="M42.1618 55.0221C44.3645 55.0221 46.1501 53.2928 46.1501 51.1596C46.1501 49.0264 44.3645 47.2971 42.1618 47.2971C39.9591 47.2971 38.1735 49.0264 38.1735 51.1596C38.1735 53.2928 39.9591 55.0221 42.1618 55.0221Z" fill="url(#paint5_linear_25_1042)"/>
<path d="M62.0922 61.088C63.7731 61.088 65.1358 59.7683 65.1358 58.1403C65.1358 56.5124 63.7731 55.1926 62.0922 55.1926C60.4112 55.1926 59.0485 56.5124 59.0485 58.1403C59.0485 59.7683 60.4112 61.088 62.0922 61.088Z" fill="#00A9CB"/>
<path d="M34.0615 47.631C35.2808 47.631 36.2693 46.6738 36.2693 45.4929C36.2693 44.312 35.2808 43.3547 34.0615 43.3547C32.8422 43.3547 31.8537 44.312 31.8537 45.4929C31.8537 46.6738 32.8422 47.631 34.0615 47.631Z" fill="url(#paint6_linear_25_1042)"/>
<path d="M2.8862 45.3224C4.43056 45.3224 5.6825 44.11 5.6825 42.6143C5.6825 41.1187 4.43056 39.9062 2.8862 39.9062C1.34185 39.9062 0.0899048 41.1187 0.0899048 42.6143C0.0899048 44.11 1.34185 45.3224 2.8862 45.3224Z" fill="url(#paint7_linear_25_1042)"/>
<path d="M51.4728 53.3086C52.8474 53.3086 53.9617 52.2294 53.9617 50.8982C53.9617 49.567 52.8474 48.4878 51.4728 48.4878C50.0982 48.4878 48.9838 49.567 48.9838 50.8982C48.9838 52.2294 50.0982 53.3086 51.4728 53.3086Z" fill="url(#paint8_linear_25_1042)"/>
<path d="M33.7767 55.2906C35.2528 55.2906 36.4493 54.1318 36.4493 52.7023C36.4493 51.2728 35.2528 50.114 33.7767 50.114C32.3007 50.114 31.1041 51.2728 31.1041 52.7023C31.1041 54.1318 32.3007 55.2906 33.7767 55.2906Z" fill="url(#paint9_linear_25_1042)"/>
<path d="M34.2453 72.1455C38.6403 72.1455 42.2031 68.6951 42.2031 64.4387C42.2031 60.1824 38.6403 56.7319 34.2453 56.7319C29.8503 56.7319 26.2875 60.1824 26.2875 64.4387C26.2875 68.6951 29.8503 72.1455 34.2453 72.1455Z" fill="url(#paint10_linear_25_1042)"/>
<path d="M60.6378 54.7643C63.623 54.7643 66.043 52.4206 66.043 49.5296C66.043 46.6386 63.623 44.2949 60.6378 44.2949C57.6526 44.2949 55.2326 46.6386 55.2326 49.5296C55.2326 52.4206 57.6526 54.7643 60.6378 54.7643Z" fill="url(#paint11_linear_25_1042)"/>
<path d="M16.2455 48.1176C19.5122 48.1176 22.1604 45.5529 22.1604 42.3893C22.1604 39.2256 19.5122 36.6609 16.2455 36.6609C12.9787 36.6609 10.3305 39.2256 10.3305 42.3893C10.3305 45.5529 12.9787 48.1176 16.2455 48.1176Z" fill="url(#paint12_linear_25_1042)"/>
<path d="M15.0798 14.9852C17.1562 14.9852 18.8395 13.355 18.8395 11.3442C18.8395 9.33327 17.1562 7.70312 15.0798 7.70312C13.0034 7.70312 11.3202 9.33327 11.3202 11.3442C11.3202 13.355 13.0034 14.9852 15.0798 14.9852Z" fill="url(#paint13_linear_25_1042)"/>
<path d="M5.6001 28.6562C7.83797 28.6562 9.65211 26.8993 9.65211 24.732C9.65211 22.5648 7.83797 20.8079 5.6001 20.8079C3.36224 20.8079 1.5481 22.5648 1.5481 24.732C1.5481 26.8993 3.36224 28.6562 5.6001 28.6562Z" fill="url(#paint14_linear_25_1042)"/>
<path d="M29.5259 13.8309C31.2214 13.8309 32.5959 12.4998 32.5959 10.8579C32.5959 9.21586 31.2214 7.88477 29.5259 7.88477C27.8304 7.88477 26.456 9.21586 26.456 10.8579C26.456 12.4998 27.8304 13.8309 29.5259 13.8309Z" fill="url(#paint15_linear_25_1042)"/>
<path d="M46.3826 5.11123C47.4528 5.11123 48.3205 4.27097 48.3205 3.23445C48.3205 2.19793 47.4528 1.35767 46.3826 1.35767C45.3123 1.35767 44.4446 2.19793 44.4446 3.23445C44.4446 4.27097 45.3123 5.11123 46.3826 5.11123Z" fill="#124372"/>
<path d="M41.9332 8.95559C43.3555 8.95559 44.5084 7.83903 44.5084 6.46168C44.5084 5.08433 43.3555 3.96777 41.9332 3.96777C40.511 3.96777 39.3581 5.08433 39.3581 6.46168C39.3581 7.83903 40.511 8.95559 41.9332 8.95559Z" fill="url(#paint16_linear_25_1042)"/>
<path d="M25.178 38.1092C27.1695 38.1092 28.784 36.5456 28.784 34.617C28.784 32.6883 27.1695 31.1248 25.178 31.1248C23.1865 31.1248 21.5721 32.6883 21.5721 34.617C21.5721 36.5456 23.1865 38.1092 25.178 38.1092Z" fill="url(#paint17_linear_25_1042)"/>
<path d="M6.84082 53.9911C9.08282 53.9911 10.9003 52.2309 10.9003 50.0596C10.9003 47.8883 9.08282 46.1282 6.84082 46.1282C4.59881 46.1282 2.78131 47.8883 2.78131 50.0596C2.78131 52.2309 4.59881 53.9911 6.84082 53.9911Z" fill="url(#paint18_linear_25_1042)"/>
<path d="M5.83988 39.4741C8.45037 39.4741 10.5666 37.4246 10.5666 34.8965C10.5666 32.3683 8.45037 30.3188 5.83988 30.3188C3.22938 30.3188 1.11316 32.3683 1.11316 34.8965C1.11316 37.4246 3.22938 39.4741 5.83988 39.4741Z" fill="url(#paint19_linear_25_1042)"/>
<path d="M15.4808 34.6751C17.9071 34.6751 19.8739 32.7703 19.8739 30.4205C19.8739 28.0708 17.9071 26.166 15.4808 26.166C13.0546 26.166 11.0877 28.0708 11.0877 30.4205C11.0877 32.7703 13.0546 34.6751 15.4808 34.6751Z" fill="url(#paint20_linear_25_1042)"/>
<path d="M15.301 24.4781C17.3235 24.4781 18.9631 22.8902 18.9631 20.9314C18.9631 18.9727 17.3235 17.3848 15.301 17.3848C13.2784 17.3848 11.6388 18.9727 11.6388 20.9314C11.6388 22.8902 13.2784 24.4781 15.301 24.4781Z" fill="url(#paint21_linear_25_1042)"/>
<path d="M22.3517 18.5173C23.8878 18.5173 25.133 17.3113 25.133 15.8237C25.133 14.3361 23.8878 13.1301 22.3517 13.1301C20.8156 13.1301 19.5704 14.3361 19.5704 15.8237C19.5704 17.3113 20.8156 18.5173 22.3517 18.5173Z" fill="url(#paint22_linear_25_1042)"/>
<path d="M42.1694 2.20347C42.6642 2.20347 43.0653 1.81503 43.0653 1.33587C43.0653 0.856701 42.6642 0.468262 42.1694 0.468262C41.6747 0.468262 41.2736 0.856701 41.2736 1.33587C41.2736 1.81503 41.6747 2.20347 42.1694 2.20347Z" fill="url(#paint23_linear_25_1042)"/>
<path d="M39.9804 11.4603C40.4752 11.4603 40.8763 11.0719 40.8763 10.5927C40.8763 10.1135 40.4752 9.7251 39.9804 9.7251C39.4856 9.7251 39.0845 10.1135 39.0845 10.5927C39.0845 11.0719 39.4856 11.4603 39.9804 11.4603Z" fill="url(#paint24_linear_25_1042)"/>
<path d="M0.895865 30.6092C1.39064 30.6092 1.79173 30.2208 1.79173 29.7416C1.79173 29.2625 1.39064 28.874 0.895865 28.874C0.401092 28.874 0 29.2625 0 29.7416C0 30.2208 0.401092 30.6092 0.895865 30.6092Z" fill="url(#paint25_linear_25_1042)"/>
<path d="M56.2559 7.37643C56.7631 7.37643 57.1742 6.97824 57.1742 6.48704C57.1742 5.99585 56.7631 5.59766 56.2559 5.59766C55.7487 5.59766 55.3375 5.99585 55.3375 6.48704C55.3375 6.97824 55.7487 7.37643 56.2559 7.37643Z" fill="#124372"/>
<path d="M37.0004 4.77727C38.3626 4.77727 39.4669 3.70784 39.4669 2.38863C39.4669 1.06943 38.3626 0 37.0004 0C35.6383 0 34.534 1.06943 34.534 2.38863C34.534 3.70784 35.6383 4.77727 37.0004 4.77727Z" fill="url(#paint26_linear_25_1042)"/>
<path d="M22.5278 8.76674C24.1756 8.76674 25.5115 7.47302 25.5115 5.87714C25.5115 4.28126 24.1756 2.98755 22.5278 2.98755C20.8799 2.98755 19.5441 4.28126 19.5441 5.87714C19.5441 7.47302 20.8799 8.76674 22.5278 8.76674Z" fill="url(#paint27_linear_25_1042)"/>
<path d="M8.04789 19.5266C9.44733 19.5266 10.5818 18.4279 10.5818 17.0726C10.5818 15.7173 9.44733 14.6187 8.04789 14.6187C6.64845 14.6187 5.51398 15.7173 5.51398 17.0726C5.51398 18.4279 6.64845 19.5266 8.04789 19.5266Z" fill="url(#paint28_linear_25_1042)"/>
<path d="M35.276 9.40198C36.2366 9.40198 37.0152 8.64785 37.0152 7.71759C37.0152 6.78733 36.2366 6.0332 35.276 6.0332C34.3154 6.0332 33.5367 6.78733 33.5367 7.71759C33.5367 8.64785 34.3154 9.40198 35.276 9.40198Z" fill="url(#paint29_linear_25_1042)"/>
<path d="M35.5348 13.7582C36.2573 13.7582 36.843 13.191 36.843 12.4913C36.843 11.7916 36.2573 11.2244 35.5348 11.2244C34.8123 11.2244 34.2266 11.7916 34.2266 12.4913C34.2266 13.191 34.8123 13.7582 35.5348 13.7582Z" fill="url(#paint30_linear_25_1042)"/>
<path d="M53.9355 10.9702C54.7491 10.9702 55.4086 10.3315 55.4086 9.54359C55.4086 8.75567 54.7491 8.11694 53.9355 8.11694C53.1219 8.11694 52.4624 8.75567 52.4624 9.54359C52.4624 10.3315 53.1219 10.9702 53.9355 10.9702Z" fill="#124372"/>
<path d="M26.7447 51.1306C28.554 51.1306 30.0208 49.7102 30.0208 47.9579C30.0208 46.2056 28.554 44.7852 26.7447 44.7852C24.9353 44.7852 23.4686 46.2056 23.4686 47.9579C23.4686 49.7102 24.9353 51.1306 26.7447 51.1306Z" fill="url(#paint31_linear_25_1042)"/>
<path d="M51.889 6.1314C52.6777 6.1314 53.3171 5.51217 53.3171 4.74832C53.3171 3.98446 52.6777 3.36523 51.889 3.36523C51.1002 3.36523 50.4608 3.98446 50.4608 4.74832C50.4608 5.51217 51.1002 6.1314 51.889 6.1314Z" fill="#124372"/>
<path d="M59.0183 10.8468C59.9085 10.8468 60.6301 10.1479 60.6301 9.28581C60.6301 8.42372 59.9085 7.72485 59.0183 7.72485C58.1281 7.72485 57.4065 8.42372 57.4065 9.28581C57.4065 10.1479 58.1281 10.8468 59.0183 10.8468Z" fill="#124372"/>
<path d="M47.8931 8.68696C48.5432 8.68696 49.0701 8.17662 49.0701 7.54709C49.0701 6.91756 48.5432 6.40723 47.8931 6.40723C47.2431 6.40723 46.7161 6.91756 46.7161 7.54709C46.7161 8.17662 47.2431 8.68696 47.8931 8.68696Z" fill="#124372"/>
<path d="M62.4107 12.4658C62.9717 12.4658 63.4265 12.0254 63.4265 11.4821C63.4265 10.9387 62.9717 10.4983 62.4107 10.4983C61.8497 10.4983 61.3949 10.9387 61.3949 11.4821C61.3949 12.0254 61.8497 12.4658 62.4107 12.4658Z" fill="#124372"/>
<path d="M29.8147 42.5018C30.8953 42.5018 31.7714 41.6534 31.7714 40.6068C31.7714 39.5603 30.8953 38.7119 29.8147 38.7119C28.7341 38.7119 27.858 39.5603 27.858 40.6068C27.858 41.6534 28.7341 42.5018 29.8147 42.5018Z" fill="url(#paint32_linear_25_1042)"/>
<path d="M65.8855 15.2175C66.1939 15.2175 66.444 14.9754 66.444 14.6766C66.444 14.3779 66.1939 14.1357 65.8855 14.1357C65.577 14.1357 65.327 14.3779 65.327 14.6766C65.327 14.9754 65.577 15.2175 65.8855 15.2175Z" fill="#124372"/>
<path d="M59.5245 13.6892C59.8329 13.6892 60.083 13.447 60.083 13.1483C60.083 12.8496 59.8329 12.6074 59.5245 12.6074C59.216 12.6074 58.9659 12.8496 58.9659 13.1483C58.9659 13.447 59.216 13.6892 59.5245 13.6892Z" fill="#124372"/>
<path d="M45.4454 10.1426C45.7539 10.1426 46.0039 9.90041 46.0039 9.60168C46.0039 9.30296 45.7539 9.06079 45.4454 9.06079C45.137 9.06079 44.8869 9.30296 44.8869 9.60168C44.8869 9.90041 45.137 10.1426 45.4454 10.1426Z" fill="#124372"/>
<path d="M50.9443 8.44726C51.2527 8.44726 51.5028 8.2051 51.5028 7.90637C51.5028 7.60764 51.2527 7.36548 50.9443 7.36548C50.6358 7.36548 50.3857 7.60764 50.3857 7.90637C50.3857 8.2051 50.6358 8.44726 50.9443 8.44726Z" fill="#124372"/>
<defs>
<linearGradient id="paint0_linear_25_1042" x1="44.4897" y1="40.7158" x2="36.4046" y2="11.4942" gradientUnits="userSpaceOnUse">
<stop stop-color="#00A9CB"/>
<stop offset="0.26" stop-color="#0493B8"/>
<stop offset="0.8" stop-color="#0E5A86"/>
<stop offset="1" stop-color="#124372"/>
</linearGradient>
<linearGradient id="paint1_linear_25_1042" x1="43.5826" y1="48.7891" x2="33.1026" y2="10.9198" gradientUnits="userSpaceOnUse">
<stop stop-color="#00A9CB"/>
<stop offset="0.26" stop-color="#0493B8"/>
<stop offset="0.8" stop-color="#0E5A86"/>
<stop offset="1" stop-color="#124372"/>
</linearGradient>
<linearGradient id="paint2_linear_25_1042" x1="35.4259" y1="38.9987" x2="27.7151" y2="11.1338" gradientUnits="userSpaceOnUse">
<stop stop-color="#00A9CB"/>
<stop offset="0.26" stop-color="#0493B8"/>
<stop offset="0.8" stop-color="#0E5A86"/>
<stop offset="1" stop-color="#124372"/>
</linearGradient>
<linearGradient id="paint3_linear_25_1042" x1="30.4069" y1="44.4474" x2="21.965" y2="13.931" gradientUnits="userSpaceOnUse">
<stop stop-color="#00A9CB"/>
<stop offset="0.26" stop-color="#0493B8"/>
<stop offset="0.8" stop-color="#0E5A86"/>
<stop offset="1" stop-color="#124372"/>
</linearGradient>
<linearGradient id="paint4_linear_25_1042" x1="15.3085" y1="49.1194" x2="6.86665" y2="18.603" gradientUnits="userSpaceOnUse">
<stop stop-color="#00A9CB"/>
<stop offset="0.26" stop-color="#0493B8"/>
<stop offset="0.8" stop-color="#0E5A86"/>
<stop offset="1" stop-color="#124372"/>
</linearGradient>
<linearGradient id="paint5_linear_25_1042" x1="39.2306" y1="41.2239" x2="30.7851" y2="10.7074" gradientUnits="userSpaceOnUse">
<stop stop-color="#00A9CB"/>
<stop offset="0.26" stop-color="#0493B8"/>
<stop offset="0.8" stop-color="#0E5A86"/>
<stop offset="1" stop-color="#124372"/>
</linearGradient>
<linearGradient id="paint6_linear_25_1042" x1="33.3943" y1="43.2313" x2="24.3908" y2="10.6907" gradientUnits="userSpaceOnUse">
<stop stop-color="#00A9CB"/>
<stop offset="0.26" stop-color="#0493B8"/>
<stop offset="0.8" stop-color="#0E5A86"/>
<stop offset="1" stop-color="#124372"/>
</linearGradient>
<linearGradient id="paint7_linear_25_1042" x1="5.43886" y1="51.2577" x2="-3.00659" y2="20.7412" gradientUnits="userSpaceOnUse">
<stop stop-color="#00A9CB"/>
<stop offset="0.26" stop-color="#0493B8"/>
<stop offset="0.8" stop-color="#0E5A86"/>
<stop offset="1" stop-color="#124372"/>
</linearGradient>
<linearGradient id="paint8_linear_25_1042" x1="48.1854" y1="39.7464" x2="40.5347" y2="12.1039" gradientUnits="userSpaceOnUse">
<stop stop-color="#00A9CB"/>
<stop offset="0.26" stop-color="#0493B8"/>
<stop offset="0.8" stop-color="#0E5A86"/>
<stop offset="1" stop-color="#124372"/>
</linearGradient>
<linearGradient id="paint9_linear_25_1042" x1="31.2053" y1="43.9863" x2="22.9895" y2="14.2906" gradientUnits="userSpaceOnUse">
<stop stop-color="#00A9CB"/>
<stop offset="0.26" stop-color="#0493B8"/>
<stop offset="0.8" stop-color="#0E5A86"/>
<stop offset="1" stop-color="#124372"/>
</linearGradient>
<linearGradient id="paint10_linear_25_1042" x1="28.8739" y1="46.2263" x2="20.99" y2="17.7413" gradientUnits="userSpaceOnUse">
<stop stop-color="#00A9CB"/>
<stop offset="0.26" stop-color="#0493B8"/>
<stop offset="0.8" stop-color="#0E5A86"/>
<stop offset="1" stop-color="#124372"/>
</linearGradient>
<linearGradient id="paint11_linear_25_1042" x1="57.2043" y1="37.8877" x2="49.3169" y2="9.38094" gradientUnits="userSpaceOnUse">
<stop stop-color="#00A9CB"/>
<stop offset="0.26" stop-color="#0493B8"/>
<stop offset="0.8" stop-color="#0E5A86"/>
<stop offset="1" stop-color="#124372"/>
</linearGradient>
<linearGradient id="paint12_linear_25_1042" x1="17.8198" y1="47.7292" x2="9.37789" y2="17.2128" gradientUnits="userSpaceOnUse">
<stop stop-color="#00A9CB"/>
<stop offset="0.26" stop-color="#0493B8"/>
<stop offset="0.8" stop-color="#0E5A86"/>
<stop offset="1" stop-color="#124372"/>
</linearGradient>
<linearGradient id="paint13_linear_25_1042" x1="25.9539" y1="48.2119" x2="16.6184" y2="14.4713" gradientUnits="userSpaceOnUse">
<stop stop-color="#00A9CB"/>
<stop offset="0.26" stop-color="#0493B8"/>
<stop offset="0.8" stop-color="#0E5A86"/>
<stop offset="1" stop-color="#124372"/>
</linearGradient>
<linearGradient id="paint14_linear_25_1042" x1="12.4859" y1="48.0666" x2="4.04044" y2="17.5501" gradientUnits="userSpaceOnUse">
<stop stop-color="#00A9CB"/>
<stop offset="0.26" stop-color="#0493B8"/>
<stop offset="0.8" stop-color="#0E5A86"/>
<stop offset="1" stop-color="#124372"/>
</linearGradient>
<linearGradient id="paint15_linear_25_1042" x1="38.627" y1="41.7104" x2="30.1816" y2="11.194" gradientUnits="userSpaceOnUse">
<stop stop-color="#00A9CB"/>
<stop offset="0.26" stop-color="#0493B8"/>
<stop offset="0.8" stop-color="#0E5A86"/>
<stop offset="1" stop-color="#124372"/>
</linearGradient>
<linearGradient id="paint16_linear_25_1042" x1="51.2967" y1="38.2036" x2="42.8548" y2="7.69091" gradientUnits="userSpaceOnUse">
<stop stop-color="#00A9CB"/>
<stop offset="0.26" stop-color="#0493B8"/>
<stop offset="0.8" stop-color="#0E5A86"/>
<stop offset="1" stop-color="#124372"/>
</linearGradient>
<linearGradient id="paint17_linear_25_1042" x1="28.1018" y1="44.5272" x2="19.6563" y2="14.0144" gradientUnits="userSpaceOnUse">
<stop stop-color="#00A9CB"/>
<stop offset="0.26" stop-color="#0493B8"/>
<stop offset="0.8" stop-color="#0E5A86"/>
<stop offset="1" stop-color="#124372"/>
</linearGradient>
<linearGradient id="paint18_linear_25_1042" x1="7.03573" y1="50.7239" x2="-0.176995" y2="24.6644" gradientUnits="userSpaceOnUse">
<stop stop-color="#00A9CB"/>
<stop offset="0.26" stop-color="#0493B8"/>
<stop offset="0.8" stop-color="#0E5A86"/>
<stop offset="1" stop-color="#124372"/>
</linearGradient>
<linearGradient id="paint19_linear_25_1042" x1="10.173" y1="49.584" x2="1.73112" y2="19.0677" gradientUnits="userSpaceOnUse">
<stop stop-color="#00A9CB"/>
<stop offset="0.26" stop-color="#0493B8"/>
<stop offset="0.8" stop-color="#0E5A86"/>
<stop offset="1" stop-color="#124372"/>
</linearGradient>
<linearGradient id="paint20_linear_25_1042" x1="20.3087" y1="46.778" x2="11.8668" y2="16.2652" gradientUnits="userSpaceOnUse">
<stop stop-color="#00A9CB"/>
<stop offset="0.26" stop-color="#0493B8"/>
<stop offset="0.8" stop-color="#0E5A86"/>
<stop offset="1" stop-color="#124372"/>
</linearGradient>
<linearGradient id="paint21_linear_25_1042" x1="22.5691" y1="45.5801" x2="14.4239" y2="16.1396" gradientUnits="userSpaceOnUse">
<stop stop-color="#00A9CB"/>
<stop offset="0.26" stop-color="#0493B8"/>
<stop offset="0.8" stop-color="#0E5A86"/>
<stop offset="1" stop-color="#124372"/>
</linearGradient>
<linearGradient id="paint22_linear_25_1042" x1="30.6431" y1="43.921" x2="22.1977" y2="13.4045" gradientUnits="userSpaceOnUse">
<stop stop-color="#00A9CB"/>
<stop offset="0.26" stop-color="#0493B8"/>
<stop offset="0.8" stop-color="#0E5A86"/>
<stop offset="1" stop-color="#124372"/>
</linearGradient>
<linearGradient id="paint23_linear_25_1042" x1="53.0135" y1="38.0947" x2="44.5716" y2="7.58195" gradientUnits="userSpaceOnUse">
<stop stop-color="#00A9CB"/>
<stop offset="0.26" stop-color="#0493B8"/>
<stop offset="0.8" stop-color="#0E5A86"/>
<stop offset="1" stop-color="#124372"/>
</linearGradient>
<linearGradient id="paint24_linear_25_1042" x1="47.9045" y1="37.4485" x2="39.4626" y2="6.93575" gradientUnits="userSpaceOnUse">
<stop stop-color="#00A9CB"/>
<stop offset="0.26" stop-color="#0493B8"/>
<stop offset="0.8" stop-color="#0E5A86"/>
<stop offset="1" stop-color="#124372"/>
</linearGradient>
<linearGradient id="paint25_linear_25_1042" x1="7.11444" y1="50.8255" x2="-1.32745" y2="20.3091" gradientUnits="userSpaceOnUse">
<stop stop-color="#00A9CB"/>
<stop offset="0.26" stop-color="#0493B8"/>
<stop offset="0.8" stop-color="#0E5A86"/>
<stop offset="1" stop-color="#124372"/>
</linearGradient>
<linearGradient id="paint26_linear_25_1042" x1="47.8258" y1="39.0857" x2="39.3839" y2="8.56939" gradientUnits="userSpaceOnUse">
<stop stop-color="#00A9CB"/>
<stop offset="0.26" stop-color="#0493B8"/>
<stop offset="0.8" stop-color="#0E5A86"/>
<stop offset="1" stop-color="#124372"/>
</linearGradient>
<linearGradient id="paint27_linear_25_1042" x1="33.3194" y1="42.4581" x2="24.8739" y2="11.9452" gradientUnits="userSpaceOnUse">
<stop stop-color="#00A9CB"/>
<stop offset="0.26" stop-color="#0493B8"/>
<stop offset="0.8" stop-color="#0E5A86"/>
<stop offset="1" stop-color="#124372"/>
</linearGradient>
<linearGradient id="paint28_linear_25_1042" x1="17.1452" y1="47.918" x2="8.70333" y2="17.4016" gradientUnits="userSpaceOnUse">
<stop stop-color="#00A9CB"/>
<stop offset="0.26" stop-color="#0493B8"/>
<stop offset="0.8" stop-color="#0E5A86"/>
<stop offset="1" stop-color="#124372"/>
</linearGradient>
<linearGradient id="paint29_linear_25_1042" x1="44.647" y1="39.485" x2="36.2051" y2="8.96861" gradientUnits="userSpaceOnUse">
<stop stop-color="#00A9CB"/>
<stop offset="0.26" stop-color="#0493B8"/>
<stop offset="0.8" stop-color="#0E5A86"/>
<stop offset="1" stop-color="#124372"/>
</linearGradient>
<linearGradient id="paint30_linear_25_1042" x1="43.5189" y1="39.554" x2="35.0734" y2="9.03753" gradientUnits="userSpaceOnUse">
<stop stop-color="#00A9CB"/>
<stop offset="0.26" stop-color="#0493B8"/>
<stop offset="0.8" stop-color="#0E5A86"/>
<stop offset="1" stop-color="#124372"/>
</linearGradient>
<linearGradient id="paint31_linear_25_1042" x1="25.9088" y1="45.1264" x2="17.4669" y2="14.6136" gradientUnits="userSpaceOnUse">
<stop stop-color="#00A9CB"/>
<stop offset="0.26" stop-color="#0493B8"/>
<stop offset="0.8" stop-color="#0E5A86"/>
<stop offset="1" stop-color="#124372"/>
</linearGradient>
<linearGradient id="paint32_linear_25_1042" x1="30.3957" y1="42.5744" x2="21.9538" y2="12.058" gradientUnits="userSpaceOnUse">
<stop stop-color="#00A9CB"/>
<stop offset="0.26" stop-color="#0493B8"/>
<stop offset="0.8" stop-color="#0E5A86"/>
<stop offset="1" stop-color="#124372"/>
</linearGradient>
</defs>
</svg>
