<svg width="50" height="50" viewBox="0 0 50 50" fill="none" xmlns="http://www.w3.org/2000/svg">
<path d="M23.0226 19.7333H29.6C30.9621 19.7333 32.0667 18.6288 32.0667 17.2667C32.0667 15.9046 30.9621 14.8 29.6 14.8H27.1333C27.1333 13.4379 26.0288 12.3333 24.6667 12.3333C23.3046 12.3333 22.2 13.4379 22.2 14.8V14.8891C19.4181 15.3212 17.2667 17.8685 17.2667 20.9667C17.2667 24.3667 19.849 27.1333 23.0226 27.1333H26.3107C26.6985 27.1333 27.1333 27.661 27.1333 28.3667C27.1333 29.0724 26.6985 29.6 26.3107 29.6H19.7333C18.3712 29.6 17.2667 30.7046 17.2667 32.0667C17.2667 33.4288 18.3712 34.5333 19.7333 34.5333H22.2C22.2 35.8954 23.3046 37 24.6667 37C26.0288 37 27.1333 35.8954 27.1333 34.5333V34.4443C29.9152 34.0121 32.0667 31.4651 32.0667 28.3667C32.0667 24.9666 29.4843 22.2 26.3107 22.2H23.0226C22.6349 22.2 22.2 21.6724 22.2 20.9667C22.2 20.261 22.6349 19.7333 23.0226 19.7333Z" fill="white"/>
<path d="M24.6667 0C11.065 0 0 11.065 0 24.6667C0 38.2684 11.065 49.3333 24.6667 49.3333C38.2684 49.3333 49.3333 38.2684 49.3333 24.6667C49.3333 11.065 38.2684 0 24.6667 0ZM24.6667 44.4C13.786 44.4 4.93333 35.5474 4.93333 24.6667C4.93333 13.786 13.786 4.93333 24.6667 4.93333C35.5474 4.93333 44.4 13.786 44.4 24.6667C44.4 35.5474 35.5474 44.4 24.6667 44.4Z" fill="white"/>
</svg>
