<svg width="44" height="44" viewBox="0 0 44 44" fill="none" xmlns="http://www.w3.org/2000/svg">
<path d="M22 8.8C21.7111 8.79992 21.425 8.85678 21.158 8.96731C20.8911 9.07784 20.6485 9.23989 20.4442 9.44419C20.2399 9.6485 20.0779 9.89105 19.9673 10.158C19.8568 10.425 19.7999 10.7111 19.8 11V20.6443L14.4526 23.3352C14.1945 23.465 13.9646 23.6444 13.7759 23.863C13.5872 24.0816 13.4434 24.3353 13.3527 24.6095C13.262 24.8837 13.2263 25.1731 13.2474 25.4612C13.2686 25.7492 13.3463 26.0303 13.4761 26.2883C13.6059 26.5463 13.7852 26.7762 14.0038 26.9649C14.2225 27.1536 14.4761 27.2974 14.7504 27.3881C15.0246 27.4788 15.314 27.5145 15.602 27.4934C15.89 27.4722 16.1711 27.3945 16.4291 27.2647L22.9883 23.9647C23.3526 23.7819 23.659 23.5013 23.8729 23.1543C24.0869 22.8073 24.2002 22.4077 24.2 22V11C24.2001 10.7111 24.1432 10.425 24.0327 10.158C23.9222 9.89105 23.7601 9.6485 23.5558 9.44419C23.3515 9.23989 23.1089 9.07784 22.842 8.96731C22.575 8.85678 22.2889 8.79992 22 8.8ZM22 0C17.6488 0 13.3953 1.29028 9.77746 3.70767C6.15958 6.12506 3.33979 9.56099 1.67466 13.581C0.00953225 17.6009 -0.426141 22.0244 0.422734 26.292C1.27161 30.5596 3.3669 34.4796 6.44366 37.5563C9.52041 40.6331 13.4404 42.7284 17.708 43.5773C21.9756 44.4261 26.3991 43.9905 30.419 42.3253C34.439 40.6602 37.8749 37.8404 40.2923 34.2225C42.7097 30.6047 44 26.3512 44 22C43.9933 16.1673 41.6733 10.5754 37.549 6.45102C33.4246 2.32666 27.8327 0.00667283 22 0ZM22 39.6C18.5191 39.6 15.1163 38.5678 12.222 36.6339C9.32767 34.6999 7.07183 31.9512 5.73973 28.7352C4.40763 25.5192 4.05909 21.9805 4.73819 18.5664C5.41729 15.1523 7.09352 12.0163 9.55493 9.55492C12.0163 7.09351 15.1524 5.41728 18.5664 4.73818C21.9805 4.05908 25.5193 4.40762 28.7352 5.73972C31.9512 7.07182 34.7 9.32766 36.6339 12.222C38.5678 15.1163 39.6 18.519 39.6 22C39.5947 26.6662 37.7387 31.1397 34.4392 34.4392C31.1397 37.7387 26.6662 39.5947 22 39.6Z" fill="#F5F5F5"/>
</svg>
