<svg width="902" height="106" viewBox="0 0 902 106" fill="none" xmlns="http://www.w3.org/2000/svg">
<path d="M900.5 48.5C900.776 48.5 901 48.2761 901 48C901 47.7239 900.776 47.5 900.5 47.5V48.5ZM3.49861 48.5C3.77475 48.5 3.99861 48.2761 3.99861 48C3.99861 47.7239 3.77475 47.5 3.49861 47.5V48.5ZM8.49583 47.5C8.21969 47.5 7.99583 47.7239 7.99583 48C7.99583 48.2761 8.21969 48.5 8.49583 48.5V47.5ZM13.4931 48.5C13.7692 48.5 13.9931 48.2761 13.9931 48C13.9931 47.7239 13.7692 47.5 13.4931 47.5V48.5ZM18.4903 47.5C18.2141 47.5 17.9903 47.7239 17.9903 48C17.9903 48.2761 18.2141 48.5 18.4903 48.5V47.5ZM23.4875 48.5C23.7636 48.5 23.9875 48.2761 23.9875 48C23.9875 47.7239 23.7636 47.5 23.4875 47.5V48.5ZM28.4847 47.5C28.2086 47.5 27.9847 47.7239 27.9847 48C27.9847 48.2761 28.2086 48.5 28.4847 48.5V47.5ZM33.4819 48.5C33.7581 48.5 33.9819 48.2761 33.9819 48C33.9819 47.7239 33.7581 47.5 33.4819 47.5V48.5ZM38.4792 47.5C38.203 47.5 37.9792 47.7239 37.9792 48C37.9792 48.2761 38.203 48.5 38.4792 48.5V47.5ZM43.4764 48.5C43.7525 48.5 43.9764 48.2761 43.9764 48C43.9764 47.7239 43.7525 47.5 43.4764 47.5V48.5ZM48.4736 47.5C48.1975 47.5 47.9736 47.7239 47.9736 48C47.9736 48.2761 48.1975 48.5 48.4736 48.5V47.5ZM53.4708 48.5C53.747 48.5 53.9708 48.2761 53.9708 48C53.9708 47.7239 53.747 47.5 53.4708 47.5V48.5ZM58.4681 47.5C58.1919 47.5 57.9681 47.7239 57.9681 48C57.9681 48.2761 58.1919 48.5 58.4681 48.5V47.5ZM63.4653 48.5C63.7414 48.5 63.9653 48.2761 63.9653 48C63.9653 47.7239 63.7414 47.5 63.4653 47.5V48.5ZM68.4625 47.5C68.1864 47.5 67.9625 47.7239 67.9625 48C67.9625 48.2761 68.1864 48.5 68.4625 48.5V47.5ZM73.4597 48.5C73.7359 48.5 73.9597 48.2761 73.9597 48C73.9597 47.7239 73.7359 47.5 73.4597 47.5V48.5ZM78.4569 47.5C78.1808 47.5 77.9569 47.7239 77.9569 48C77.9569 48.2761 78.1808 48.5 78.4569 48.5V47.5ZM83.4542 48.5C83.7303 48.5 83.9542 48.2761 83.9542 48C83.9542 47.7239 83.7303 47.5 83.4542 47.5V48.5ZM88.4514 47.5C88.1752 47.5 87.9514 47.7239 87.9514 48C87.9514 48.2761 88.1752 48.5 88.4514 48.5V47.5ZM93.4486 48.5C93.7248 48.5 93.9486 48.2761 93.9486 48C93.9486 47.7239 93.7248 47.5 93.4486 47.5V48.5ZM98.4458 47.5C98.1697 47.5 97.9458 47.7239 97.9458 48C97.9458 48.2761 98.1697 48.5 98.4458 48.5V47.5ZM103.443 48.5C103.719 48.5 103.943 48.2761 103.943 48C103.943 47.7239 103.719 47.5 103.443 47.5V48.5ZM108.44 47.5C108.164 47.5 107.94 47.7239 107.94 48C107.94 48.2761 108.164 48.5 108.44 48.5V47.5ZM113.438 48.5C113.714 48.5 113.938 48.2761 113.938 48C113.938 47.7239 113.714 47.5 113.438 47.5V48.5ZM118.435 47.5C118.159 47.5 117.935 47.7239 117.935 48C117.935 48.2761 118.159 48.5 118.435 48.5V47.5ZM123.432 48.5C123.708 48.5 123.932 48.2761 123.932 48C123.932 47.7239 123.708 47.5 123.432 47.5V48.5ZM128.429 47.5C128.153 47.5 127.929 47.7239 127.929 48C127.929 48.2761 128.153 48.5 128.429 48.5V47.5ZM133.426 48.5C133.703 48.5 133.926 48.2761 133.926 48C133.926 47.7239 133.703 47.5 133.426 47.5V48.5ZM138.424 47.5C138.147 47.5 137.924 47.7239 137.924 48C137.924 48.2761 138.147 48.5 138.424 48.5V47.5ZM143.421 48.5C143.697 48.5 143.921 48.2761 143.921 48C143.921 47.7239 143.697 47.5 143.421 47.5V48.5ZM148.418 47.5C148.142 47.5 147.918 47.7239 147.918 48C147.918 48.2761 148.142 48.5 148.418 48.5V47.5ZM153.415 48.5C153.691 48.5 153.915 48.2761 153.915 48C153.915 47.7239 153.691 47.5 153.415 47.5V48.5ZM158.413 47.5C158.136 47.5 157.913 47.7239 157.913 48C157.913 48.2761 158.136 48.5 158.413 48.5V47.5ZM163.41 48.5C163.686 48.5 163.91 48.2761 163.91 48C163.91 47.7239 163.686 47.5 163.41 47.5V48.5ZM168.407 47.5C168.131 47.5 167.907 47.7239 167.907 48C167.907 48.2761 168.131 48.5 168.407 48.5V47.5ZM173.404 48.5C173.68 48.5 173.904 48.2761 173.904 48C173.904 47.7239 173.68 47.5 173.404 47.5V48.5ZM178.401 47.5C178.125 47.5 177.901 47.7239 177.901 48C177.901 48.2761 178.125 48.5 178.401 48.5V47.5ZM183.399 48.5C183.675 48.5 183.899 48.2761 183.899 48C183.899 47.7239 183.675 47.5 183.399 47.5V48.5ZM188.396 47.5C188.12 47.5 187.896 47.7239 187.896 48C187.896 48.2761 188.12 48.5 188.396 48.5V47.5ZM193.393 48.5C193.669 48.5 193.893 48.2761 193.893 48C193.893 47.7239 193.669 47.5 193.393 47.5V48.5ZM198.39 47.5C198.114 47.5 197.89 47.7239 197.89 48C197.89 48.2761 198.114 48.5 198.39 48.5V47.5ZM203.388 48.5C203.664 48.5 203.888 48.2761 203.888 48C203.888 47.7239 203.664 47.5 203.388 47.5V48.5ZM208.385 47.5C208.109 47.5 207.885 47.7239 207.885 48C207.885 48.2761 208.109 48.5 208.385 48.5V47.5ZM213.382 48.5C213.658 48.5 213.882 48.2761 213.882 48C213.882 47.7239 213.658 47.5 213.382 47.5V48.5ZM218.379 47.5C218.103 47.5 217.879 47.7239 217.879 48C217.879 48.2761 218.103 48.5 218.379 48.5V47.5ZM223.376 48.5C223.653 48.5 223.876 48.2761 223.876 48C223.876 47.7239 223.653 47.5 223.376 47.5V48.5ZM228.374 47.5C228.097 47.5 227.874 47.7239 227.874 48C227.874 48.2761 228.097 48.5 228.374 48.5V47.5ZM233.371 48.5C233.647 48.5 233.871 48.2761 233.871 48C233.871 47.7239 233.647 47.5 233.371 47.5V48.5ZM238.368 47.5C238.092 47.5 237.868 47.7239 237.868 48C237.868 48.2761 238.092 48.5 238.368 48.5V47.5ZM243.365 48.5C243.641 48.5 243.865 48.2761 243.865 48C243.865 47.7239 243.641 47.5 243.365 47.5V48.5ZM248.363 47.5C248.086 47.5 247.863 47.7239 247.863 48C247.863 48.2761 248.086 48.5 248.363 48.5V47.5ZM253.36 48.5C253.636 48.5 253.86 48.2761 253.86 48C253.86 47.7239 253.636 47.5 253.36 47.5V48.5ZM258.357 47.5C258.081 47.5 257.857 47.7239 257.857 48C257.857 48.2761 258.081 48.5 258.357 48.5V47.5ZM263.354 48.5C263.63 48.5 263.854 48.2761 263.854 48C263.854 47.7239 263.63 47.5 263.354 47.5V48.5ZM268.351 47.5C268.075 47.5 267.851 47.7239 267.851 48C267.851 48.2761 268.075 48.5 268.351 48.5V47.5ZM273.349 48.5C273.625 48.5 273.849 48.2761 273.849 48C273.849 47.7239 273.625 47.5 273.349 47.5V48.5ZM278.346 47.5C278.07 47.5 277.846 47.7239 277.846 48C277.846 48.2761 278.07 48.5 278.346 48.5V47.5ZM283.343 48.5C283.619 48.5 283.843 48.2761 283.843 48C283.843 47.7239 283.619 47.5 283.343 47.5V48.5ZM288.34 47.5C288.064 47.5 287.84 47.7239 287.84 48C287.84 48.2761 288.064 48.5 288.34 48.5V47.5ZM293.338 48.5C293.614 48.5 293.838 48.2761 293.838 48C293.838 47.7239 293.614 47.5 293.338 47.5V48.5ZM298.335 47.5C298.059 47.5 297.835 47.7239 297.835 48C297.835 48.2761 298.059 48.5 298.335 48.5V47.5ZM303.332 48.5C303.608 48.5 303.832 48.2761 303.832 48C303.832 47.7239 303.608 47.5 303.332 47.5V48.5ZM308.329 47.5C308.053 47.5 307.829 47.7239 307.829 48C307.829 48.2761 308.053 48.5 308.329 48.5V47.5ZM313.326 48.5C313.603 48.5 313.826 48.2761 313.826 48C313.826 47.7239 313.603 47.5 313.326 47.5V48.5ZM318.324 47.5C318.047 47.5 317.824 47.7239 317.824 48C317.824 48.2761 318.047 48.5 318.324 48.5V47.5ZM323.321 48.5C323.597 48.5 323.821 48.2761 323.821 48C323.821 47.7239 323.597 47.5 323.321 47.5V48.5ZM328.318 47.5C328.042 47.5 327.818 47.7239 327.818 48C327.818 48.2761 328.042 48.5 328.318 48.5V47.5ZM333.315 48.5C333.591 48.5 333.815 48.2761 333.815 48C333.815 47.7239 333.591 47.5 333.315 47.5V48.5ZM338.313 47.5C338.036 47.5 337.813 47.7239 337.813 48C337.813 48.2761 338.036 48.5 338.313 48.5V47.5ZM343.31 48.5C343.586 48.5 343.81 48.2761 343.81 48C343.81 47.7239 343.586 47.5 343.31 47.5V48.5ZM348.307 47.5C348.031 47.5 347.807 47.7239 347.807 48C347.807 48.2761 348.031 48.5 348.307 48.5V47.5ZM353.304 48.5C353.58 48.5 353.804 48.2761 353.804 48C353.804 47.7239 353.58 47.5 353.304 47.5V48.5ZM358.301 47.5C358.025 47.5 357.801 47.7239 357.801 48C357.801 48.2761 358.025 48.5 358.301 48.5V47.5ZM363.299 48.5C363.575 48.5 363.799 48.2761 363.799 48C363.799 47.7239 363.575 47.5 363.299 47.5V48.5ZM368.296 47.5C368.02 47.5 367.796 47.7239 367.796 48C367.796 48.2761 368.02 48.5 368.296 48.5V47.5ZM373.293 48.5C373.569 48.5 373.793 48.2761 373.793 48C373.793 47.7239 373.569 47.5 373.293 47.5V48.5ZM378.29 47.5C378.014 47.5 377.79 47.7239 377.79 48C377.79 48.2761 378.014 48.5 378.29 48.5V47.5ZM383.288 48.5C383.564 48.5 383.788 48.2761 383.788 48C383.788 47.7239 383.564 47.5 383.288 47.5V48.5ZM388.285 47.5C388.009 47.5 387.785 47.7239 387.785 48C387.785 48.2761 388.009 48.5 388.285 48.5V47.5ZM393.282 48.5C393.558 48.5 393.782 48.2761 393.782 48C393.782 47.7239 393.558 47.5 393.282 47.5V48.5ZM398.279 47.5C398.003 47.5 397.779 47.7239 397.779 48C397.779 48.2761 398.003 48.5 398.279 48.5V47.5ZM403.276 48.5C403.553 48.5 403.776 48.2761 403.776 48C403.776 47.7239 403.553 47.5 403.276 47.5V48.5ZM408.274 47.5C407.998 47.5 407.774 47.7239 407.774 48C407.774 48.2761 407.998 48.5 408.274 48.5V47.5ZM413.271 48.5C413.547 48.5 413.771 48.2761 413.771 48C413.771 47.7239 413.547 47.5 413.271 47.5V48.5ZM418.268 47.5C417.992 47.5 417.768 47.7239 417.768 48C417.768 48.2761 417.992 48.5 418.268 48.5V47.5ZM423.265 48.5C423.541 48.5 423.765 48.2761 423.765 48C423.765 47.7239 423.541 47.5 423.265 47.5V48.5ZM428.263 47.5C427.986 47.5 427.763 47.7239 427.763 48C427.763 48.2761 427.986 48.5 428.263 48.5V47.5ZM433.26 48.5C433.536 48.5 433.76 48.2761 433.76 48C433.76 47.7239 433.536 47.5 433.26 47.5V48.5ZM438.257 47.5C437.981 47.5 437.757 47.7239 437.757 48C437.757 48.2761 437.981 48.5 438.257 48.5V47.5ZM443.254 48.5C443.53 48.5 443.754 48.2761 443.754 48C443.754 47.7239 443.53 47.5 443.254 47.5V48.5ZM448.251 47.5C447.975 47.5 447.751 47.7239 447.751 48C447.751 48.2761 447.975 48.5 448.251 48.5V47.5ZM453.249 48.5C453.525 48.5 453.749 48.2761 453.749 48C453.749 47.7239 453.525 47.5 453.249 47.5V48.5ZM458.246 47.5C457.97 47.5 457.746 47.7239 457.746 48C457.746 48.2761 457.97 48.5 458.246 48.5V47.5ZM463.243 48.5C463.519 48.5 463.743 48.2761 463.743 48C463.743 47.7239 463.519 47.5 463.243 47.5V48.5ZM468.24 47.5C467.964 47.5 467.74 47.7239 467.74 48C467.74 48.2761 467.964 48.5 468.24 48.5V47.5ZM473.238 48.5C473.514 48.5 473.738 48.2761 473.738 48C473.738 47.7239 473.514 47.5 473.238 47.5V48.5ZM478.235 47.5C477.959 47.5 477.735 47.7239 477.735 48C477.735 48.2761 477.959 48.5 478.235 48.5V47.5ZM483.232 48.5C483.508 48.5 483.732 48.2761 483.732 48C483.732 47.7239 483.508 47.5 483.232 47.5V48.5ZM488.229 47.5C487.953 47.5 487.729 47.7239 487.729 48C487.729 48.2761 487.953 48.5 488.229 48.5V47.5ZM493.226 48.5C493.503 48.5 493.726 48.2761 493.726 48C493.726 47.7239 493.503 47.5 493.226 47.5V48.5ZM498.224 47.5C497.948 47.5 497.724 47.7239 497.724 48C497.724 48.2761 497.948 48.5 498.224 48.5V47.5ZM503.221 48.5C503.497 48.5 503.721 48.2761 503.721 48C503.721 47.7239 503.497 47.5 503.221 47.5V48.5ZM508.218 47.5C507.942 47.5 507.718 47.7239 507.718 48C507.718 48.2761 507.942 48.5 508.218 48.5V47.5ZM513.215 48.5C513.491 48.5 513.715 48.2761 513.715 48C513.715 47.7239 513.491 47.5 513.215 47.5V48.5ZM518.213 47.5C517.936 47.5 517.713 47.7239 517.713 48C517.713 48.2761 517.936 48.5 518.213 48.5V47.5ZM523.21 48.5C523.486 48.5 523.71 48.2761 523.71 48C523.71 47.7239 523.486 47.5 523.21 47.5V48.5ZM528.207 47.5C527.931 47.5 527.707 47.7239 527.707 48C527.707 48.2761 527.931 48.5 528.207 48.5V47.5ZM533.204 48.5C533.48 48.5 533.704 48.2761 533.704 48C533.704 47.7239 533.48 47.5 533.204 47.5V48.5ZM538.201 47.5C537.925 47.5 537.701 47.7239 537.701 48C537.701 48.2761 537.925 48.5 538.201 48.5V47.5ZM543.198 48.5C543.475 48.5 543.698 48.2761 543.698 48C543.698 47.7239 543.475 47.5 543.198 47.5V48.5ZM548.196 47.5C547.92 47.5 547.696 47.7239 547.696 48C547.696 48.2761 547.92 48.5 548.196 48.5V47.5ZM553.193 48.5C553.469 48.5 553.693 48.2761 553.693 48C553.693 47.7239 553.469 47.5 553.193 47.5V48.5ZM558.19 47.5C557.914 47.5 557.69 47.7239 557.69 48C557.69 48.2761 557.914 48.5 558.19 48.5V47.5ZM563.187 48.5C563.463 48.5 563.687 48.2761 563.687 48C563.687 47.7239 563.463 47.5 563.187 47.5V48.5ZM568.184 47.5C567.908 47.5 567.684 47.7239 567.684 48C567.684 48.2761 567.908 48.5 568.184 48.5V47.5ZM573.182 48.5C573.458 48.5 573.682 48.2761 573.682 48C573.682 47.7239 573.458 47.5 573.182 47.5V48.5ZM578.179 47.5C577.903 47.5 577.679 47.7239 577.679 48C577.679 48.2761 577.903 48.5 578.179 48.5V47.5ZM583.176 48.5C583.452 48.5 583.676 48.2761 583.676 48C583.676 47.7239 583.452 47.5 583.176 47.5V48.5ZM588.173 47.5C587.897 47.5 587.673 47.7239 587.673 48C587.673 48.2761 587.897 48.5 588.173 48.5V47.5ZM593.17 48.5C593.447 48.5 593.67 48.2761 593.67 48C593.67 47.7239 593.447 47.5 593.17 47.5V48.5ZM598.168 47.5C597.891 47.5 597.668 47.7239 597.668 48C597.668 48.2761 597.891 48.5 598.168 48.5V47.5ZM603.165 48.5C603.441 48.5 603.665 48.2761 603.665 48C603.665 47.7239 603.441 47.5 603.165 47.5V48.5ZM608.162 47.5C607.886 47.5 607.662 47.7239 607.662 48C607.662 48.2761 607.886 48.5 608.162 48.5V47.5ZM613.159 48.5C613.435 48.5 613.659 48.2761 613.659 48C613.659 47.7239 613.435 47.5 613.159 47.5V48.5ZM618.156 47.5C617.88 47.5 617.656 47.7239 617.656 48C617.656 48.2761 617.88 48.5 618.156 48.5V47.5ZM623.154 48.5C623.43 48.5 623.654 48.2761 623.654 48C623.654 47.7239 623.43 47.5 623.154 47.5V48.5ZM628.151 47.5C627.875 47.5 627.651 47.7239 627.651 48C627.651 48.2761 627.875 48.5 628.151 48.5V47.5ZM633.148 48.5C633.424 48.5 633.648 48.2761 633.648 48C633.648 47.7239 633.424 47.5 633.148 47.5V48.5ZM638.145 47.5C637.869 47.5 637.645 47.7239 637.645 48C637.645 48.2761 637.869 48.5 638.145 48.5V47.5ZM643.142 48.5C643.419 48.5 643.642 48.2761 643.642 48C643.642 47.7239 643.419 47.5 643.142 47.5V48.5ZM648.14 47.5C647.863 47.5 647.64 47.7239 647.64 48C647.64 48.2761 647.863 48.5 648.14 48.5V47.5ZM653.137 48.5C653.413 48.5 653.637 48.2761 653.637 48C653.637 47.7239 653.413 47.5 653.137 47.5V48.5ZM658.134 47.5C657.858 47.5 657.634 47.7239 657.634 48C657.634 48.2761 657.858 48.5 658.134 48.5V47.5ZM663.131 48.5C663.407 48.5 663.631 48.2761 663.631 48C663.631 47.7239 663.407 47.5 663.131 47.5V48.5ZM668.128 47.5C667.852 47.5 667.628 47.7239 667.628 48C667.628 48.2761 667.852 48.5 668.128 48.5V47.5ZM673.125 48.5C673.402 48.5 673.625 48.2761 673.625 48C673.625 47.7239 673.402 47.5 673.125 47.5V48.5ZM678.123 47.5C677.847 47.5 677.623 47.7239 677.623 48C677.623 48.2761 677.847 48.5 678.123 48.5V47.5ZM683.12 48.5C683.396 48.5 683.62 48.2761 683.62 48C683.62 47.7239 683.396 47.5 683.12 47.5V48.5ZM688.117 47.5C687.841 47.5 687.617 47.7239 687.617 48C687.617 48.2761 687.841 48.5 688.117 48.5V47.5ZM693.114 48.5C693.39 48.5 693.614 48.2761 693.614 48C693.614 47.7239 693.39 47.5 693.114 47.5V48.5ZM698.111 47.5C697.835 47.5 697.611 47.7239 697.611 48C697.611 48.2761 697.835 48.5 698.111 48.5V47.5ZM703.109 48.5C703.385 48.5 703.609 48.2761 703.609 48C703.609 47.7239 703.385 47.5 703.109 47.5V48.5ZM708.106 47.5C707.83 47.5 707.606 47.7239 707.606 48C707.606 48.2761 707.83 48.5 708.106 48.5V47.5ZM713.103 48.5C713.379 48.5 713.603 48.2761 713.603 48C713.603 47.7239 713.379 47.5 713.103 47.5V48.5ZM718.1 47.5C717.824 47.5 717.6 47.7239 717.6 48C717.6 48.2761 717.824 48.5 718.1 48.5V47.5ZM723.097 48.5C723.374 48.5 723.597 48.2761 723.597 48C723.597 47.7239 723.374 47.5 723.097 47.5V48.5ZM728.095 47.5C727.818 47.5 727.595 47.7239 727.595 48C727.595 48.2761 727.818 48.5 728.095 48.5V47.5ZM733.092 48.5C733.368 48.5 733.592 48.2761 733.592 48C733.592 47.7239 733.368 47.5 733.092 47.5V48.5ZM738.089 47.5C737.813 47.5 737.589 47.7239 737.589 48C737.589 48.2761 737.813 48.5 738.089 48.5V47.5ZM743.086 48.5C743.362 48.5 743.586 48.2761 743.586 48C743.586 47.7239 743.362 47.5 743.086 47.5V48.5ZM748.083 47.5C747.807 47.5 747.583 47.7239 747.583 48C747.583 48.2761 747.807 48.5 748.083 48.5V47.5ZM753.081 48.5C753.357 48.5 753.581 48.2761 753.581 48C753.581 47.7239 753.357 47.5 753.081 47.5V48.5ZM758.078 47.5C757.802 47.5 757.578 47.7239 757.578 48C757.578 48.2761 757.802 48.5 758.078 48.5V47.5ZM763.075 48.5C763.351 48.5 763.575 48.2761 763.575 48C763.575 47.7239 763.351 47.5 763.075 47.5V48.5ZM768.072 47.5C767.796 47.5 767.572 47.7239 767.572 48C767.572 48.2761 767.796 48.5 768.072 48.5V47.5ZM773.069 48.5C773.345 48.5 773.569 48.2761 773.569 48C773.569 47.7239 773.345 47.5 773.069 47.5V48.5ZM778.067 47.5C777.79 47.5 777.567 47.7239 777.567 48C777.567 48.2761 777.79 48.5 778.067 48.5V47.5ZM783.064 48.5C783.34 48.5 783.564 48.2761 783.564 48C783.564 47.7239 783.34 47.5 783.064 47.5V48.5ZM788.061 47.5C787.785 47.5 787.561 47.7239 787.561 48C787.561 48.2761 787.785 48.5 788.061 48.5V47.5ZM793.058 48.5C793.334 48.5 793.558 48.2761 793.558 48C793.558 47.7239 793.334 47.5 793.058 47.5V48.5ZM798.055 47.5C797.779 47.5 797.555 47.7239 797.555 48C797.555 48.2761 797.779 48.5 798.055 48.5V47.5ZM803.052 48.5C803.329 48.5 803.552 48.2761 803.552 48C803.552 47.7239 803.329 47.5 803.052 47.5V48.5ZM808.05 47.5C807.774 47.5 807.55 47.7239 807.55 48C807.55 48.2761 807.774 48.5 808.05 48.5V47.5ZM813.047 48.5C813.323 48.5 813.547 48.2761 813.547 48C813.547 47.7239 813.323 47.5 813.047 47.5V48.5ZM818.044 47.5C817.768 47.5 817.544 47.7239 817.544 48C817.544 48.2761 817.768 48.5 818.044 48.5V47.5ZM823.041 48.5C823.317 48.5 823.541 48.2761 823.541 48C823.541 47.7239 823.317 47.5 823.041 47.5V48.5ZM828.038 47.5C827.762 47.5 827.538 47.7239 827.538 48C827.538 48.2761 827.762 48.5 828.038 48.5V47.5ZM833.036 48.5C833.312 48.5 833.536 48.2761 833.536 48C833.536 47.7239 833.312 47.5 833.036 47.5V48.5ZM838.033 47.5C837.757 47.5 837.533 47.7239 837.533 48C837.533 48.2761 837.757 48.5 838.033 48.5V47.5ZM843.03 48.5C843.306 48.5 843.53 48.2761 843.53 48C843.53 47.7239 843.306 47.5 843.03 47.5V48.5ZM848.027 47.5C847.751 47.5 847.527 47.7239 847.527 48C847.527 48.2761 847.751 48.5 848.027 48.5V47.5ZM853.024 48.5C853.301 48.5 853.524 48.2761 853.524 48C853.524 47.7239 853.301 47.5 853.024 47.5V48.5ZM858.022 47.5C857.745 47.5 857.522 47.7239 857.522 48C857.522 48.2761 857.745 48.5 858.022 48.5V47.5ZM863.019 48.5C863.295 48.5 863.519 48.2761 863.519 48C863.519 47.7239 863.295 47.5 863.019 47.5V48.5ZM868.016 47.5C867.74 47.5 867.516 47.7239 867.516 48C867.516 48.2761 867.74 48.5 868.016 48.5V47.5ZM873.013 48.5C873.289 48.5 873.513 48.2761 873.513 48C873.513 47.7239 873.289 47.5 873.013 47.5V48.5ZM878.01 47.5C877.734 47.5 877.51 47.7239 877.51 48C877.51 48.2761 877.734 48.5 878.01 48.5V47.5ZM883.008 48.5C883.284 48.5 883.508 48.2761 883.508 48C883.508 47.7239 883.284 47.5 883.008 47.5V48.5ZM888.005 47.5C887.729 47.5 887.505 47.7239 887.505 48C887.505 48.2761 887.729 48.5 888.005 48.5V47.5ZM893.002 48.5C893.278 48.5 893.502 48.2761 893.502 48C893.502 47.7239 893.278 47.5 893.002 47.5V48.5ZM897.999 47.5C897.723 47.5 897.499 47.7239 897.499 48C897.499 48.2761 897.723 48.5 897.999 48.5V47.5ZM1 48.5H3.49861V47.5H1V48.5ZM8.49583 48.5H13.4931V47.5H8.49583V48.5ZM18.4903 48.5H23.4875V47.5H18.4903V48.5ZM28.4847 48.5H33.4819V47.5H28.4847V48.5ZM38.4792 48.5H43.4764V47.5H38.4792V48.5ZM48.4736 48.5H53.4708V47.5H48.4736V48.5ZM58.4681 48.5H63.4653V47.5H58.4681V48.5ZM68.4625 48.5H73.4597V47.5H68.4625V48.5ZM78.4569 48.5H83.4542V47.5H78.4569V48.5ZM88.4514 48.5H93.4486V47.5H88.4514V48.5ZM98.4458 48.5H103.443V47.5H98.4458V48.5ZM108.44 48.5H113.438V47.5H108.44V48.5ZM118.435 48.5H123.432V47.5H118.435V48.5ZM128.429 48.5H133.426V47.5H128.429V48.5ZM138.424 48.5H143.421V47.5H138.424V48.5ZM148.418 48.5H153.415V47.5H148.418V48.5ZM158.413 48.5H163.41V47.5H158.413V48.5ZM168.407 48.5H173.404V47.5H168.407V48.5ZM178.401 48.5H183.399V47.5H178.401V48.5ZM188.396 48.5H193.393V47.5H188.396V48.5ZM198.39 48.5H203.388V47.5H198.39V48.5ZM208.385 48.5H213.382V47.5H208.385V48.5ZM218.379 48.5H223.376V47.5H218.379V48.5ZM228.374 48.5H233.371V47.5H228.374V48.5ZM238.368 48.5H243.365V47.5H238.368V48.5ZM248.363 48.5H253.36V47.5H248.363V48.5ZM258.357 48.5H263.354V47.5H258.357V48.5ZM268.351 48.5H273.349V47.5H268.351V48.5ZM278.346 48.5H283.343V47.5H278.346V48.5ZM288.34 48.5H293.338V47.5H288.34V48.5ZM298.335 48.5H303.332V47.5H298.335V48.5ZM308.329 48.5H313.326V47.5H308.329V48.5ZM318.324 48.5H323.321V47.5H318.324V48.5ZM328.318 48.5H333.315V47.5H328.318V48.5ZM338.313 48.5H343.31V47.5H338.313V48.5ZM348.307 48.5H353.304V47.5H348.307V48.5ZM358.301 48.5H363.299V47.5H358.301V48.5ZM368.296 48.5H373.293V47.5H368.296V48.5ZM378.29 48.5H383.288V47.5H378.29V48.5ZM388.285 48.5H393.282V47.5H388.285V48.5ZM398.279 48.5H403.276V47.5H398.279V48.5ZM408.274 48.5H413.271V47.5H408.274V48.5ZM418.268 48.5H423.265V47.5H418.268V48.5ZM428.263 48.5H433.26V47.5H428.263V48.5ZM438.257 48.5H443.254V47.5H438.257V48.5ZM448.251 48.5H453.249V47.5H448.251V48.5ZM458.246 48.5H463.243V47.5H458.246V48.5ZM468.24 48.5H473.238V47.5H468.24V48.5ZM478.235 48.5H483.232V47.5H478.235V48.5ZM488.229 48.5H493.226V47.5H488.229V48.5ZM498.224 48.5H503.221V47.5H498.224V48.5ZM508.218 48.5H513.215V47.5H508.218V48.5ZM518.213 48.5H523.21V47.5H518.213V48.5ZM528.207 48.5H533.204V47.5H528.207V48.5ZM538.201 48.5H543.198V47.5H538.201V48.5ZM548.196 48.5H553.193V47.5H548.196V48.5ZM558.19 48.5H563.187V47.5H558.19V48.5ZM568.184 48.5H573.182V47.5H568.184V48.5ZM578.179 48.5H583.176V47.5H578.179V48.5ZM588.173 48.5H593.17V47.5H588.173V48.5ZM598.168 48.5H603.165V47.5H598.168V48.5ZM608.162 48.5H613.159V47.5H608.162V48.5ZM618.156 48.5H623.154V47.5H618.156V48.5ZM628.151 48.5H633.148V47.5H628.151V48.5ZM638.145 48.5H643.142V47.5H638.145V48.5ZM648.14 48.5H653.137V47.5H648.14V48.5ZM658.134 48.5H663.131V47.5H658.134V48.5ZM668.128 48.5H673.125V47.5H668.128V48.5ZM678.123 48.5H683.12V47.5H678.123V48.5ZM688.117 48.5H693.114V47.5H688.117V48.5ZM698.111 48.5H703.109V47.5H698.111V48.5ZM708.106 48.5H713.103V47.5H708.106V48.5ZM718.1 48.5H723.097V47.5H718.1V48.5ZM728.095 48.5H733.092V47.5H728.095V48.5ZM738.089 48.5H743.086V47.5H738.089V48.5ZM748.083 48.5H753.081V47.5H748.083V48.5ZM758.078 48.5H763.075V47.5H758.078V48.5ZM768.072 48.5H773.069V47.5H768.072V48.5ZM778.067 48.5H783.064V47.5H778.067V48.5ZM788.061 48.5H793.058V47.5H788.061V48.5ZM798.055 48.5H803.052V47.5H798.055V48.5ZM808.05 48.5H813.047V47.5H808.05V48.5ZM818.044 48.5H823.041V47.5H818.044V48.5ZM828.038 48.5H833.036V47.5H828.038V48.5ZM838.033 48.5H843.03V47.5H838.033V48.5ZM848.027 48.5H853.024V47.5H848.027V48.5ZM858.022 48.5H863.019V47.5H858.022V48.5ZM868.016 48.5H873.013V47.5H868.016V48.5ZM878.01 48.5H883.008V47.5H878.01V48.5ZM888.005 48.5H893.002V47.5H888.005V48.5ZM897.999 48.5H900.5V47.5H897.999V48.5Z" fill="#0F1825"/>
<path d="M296.5 105.5C296.5 105.776 296.724 106 297 106C297.276 106 297.5 105.776 297.5 105.5H296.5ZM296.5 50.3958C296.5 50.672 296.724 50.8958 297 50.8958C297.276 50.8958 297.5 50.672 297.5 50.3958H296.5ZM297.5 55.1875C297.5 54.9114 297.276 54.6875 297 54.6875C296.724 54.6875 296.5 54.9114 296.5 55.1875H297.5ZM296.5 59.9792C296.5 60.2553 296.724 60.4792 297 60.4792C297.276 60.4792 297.5 60.2553 297.5 59.9792H296.5ZM297.5 64.7708C297.5 64.4947 297.276 64.2708 297 64.2708C296.724 64.2708 296.5 64.4947 296.5 64.7708H297.5ZM296.5 69.5625C296.5 69.8386 296.724 70.0625 297 70.0625C297.276 70.0625 297.5 69.8386 297.5 69.5625H296.5ZM297.5 74.3542C297.5 74.078 297.276 73.8542 297 73.8542C296.724 73.8542 296.5 74.078 296.5 74.3542H297.5ZM296.5 79.1458C296.5 79.422 296.724 79.6458 297 79.6458C297.276 79.6458 297.5 79.422 297.5 79.1458H296.5ZM297.5 83.9375C297.5 83.6614 297.276 83.4375 297 83.4375C296.724 83.4375 296.5 83.6614 296.5 83.9375H297.5ZM296.5 88.7292C296.5 89.0053 296.724 89.2292 297 89.2292C297.276 89.2292 297.5 89.0053 297.5 88.7292H296.5ZM297.5 93.5208C297.5 93.2447 297.276 93.0208 297 93.0208C296.724 93.0208 296.5 93.2447 296.5 93.5208H297.5ZM296.5 98.3125C296.5 98.5886 296.724 98.8125 297 98.8125C297.276 98.8125 297.5 98.5886 297.5 98.3125H296.5ZM297.5 103.104C297.5 102.828 297.276 102.604 297 102.604C296.724 102.604 296.5 102.828 296.5 103.104H297.5ZM296.5 48V50.3958H297.5V48H296.5ZM296.5 55.1875V59.9792H297.5V55.1875H296.5ZM296.5 64.7708V69.5625H297.5V64.7708H296.5ZM296.5 74.3542V79.1458H297.5V74.3542H296.5ZM296.5 83.9375V88.7292H297.5V83.9375H296.5ZM296.5 93.5208V98.3125H297.5V93.5208H296.5ZM296.5 103.104V105.5H297.5V103.104H296.5Z" fill="#0F1825"/>
<path d="M599.5 105.5C599.5 105.776 599.724 106 600 106C600.276 106 600.5 105.776 600.5 105.5H599.5ZM599.5 50.3958C599.5 50.672 599.724 50.8958 600 50.8958C600.276 50.8958 600.5 50.672 600.5 50.3958H599.5ZM600.5 55.1875C600.5 54.9114 600.276 54.6875 600 54.6875C599.724 54.6875 599.5 54.9114 599.5 55.1875H600.5ZM599.5 59.9792C599.5 60.2553 599.724 60.4792 600 60.4792C600.276 60.4792 600.5 60.2553 600.5 59.9792H599.5ZM600.5 64.7708C600.5 64.4947 600.276 64.2708 600 64.2708C599.724 64.2708 599.5 64.4947 599.5 64.7708H600.5ZM599.5 69.5625C599.5 69.8386 599.724 70.0625 600 70.0625C600.276 70.0625 600.5 69.8386 600.5 69.5625H599.5ZM600.5 74.3542C600.5 74.078 600.276 73.8542 600 73.8542C599.724 73.8542 599.5 74.078 599.5 74.3542H600.5ZM599.5 79.1458C599.5 79.422 599.724 79.6458 600 79.6458C600.276 79.6458 600.5 79.422 600.5 79.1458H599.5ZM600.5 83.9375C600.5 83.6614 600.276 83.4375 600 83.4375C599.724 83.4375 599.5 83.6614 599.5 83.9375H600.5ZM599.5 88.7292C599.5 89.0053 599.724 89.2292 600 89.2292C600.276 89.2292 600.5 89.0053 600.5 88.7292H599.5ZM600.5 93.5208C600.5 93.2447 600.276 93.0208 600 93.0208C599.724 93.0208 599.5 93.2447 599.5 93.5208H600.5ZM599.5 98.3125C599.5 98.5886 599.724 98.8125 600 98.8125C600.276 98.8125 600.5 98.5886 600.5 98.3125H599.5ZM600.5 103.104C600.5 102.828 600.276 102.604 600 102.604C599.724 102.604 599.5 102.828 599.5 103.104H600.5ZM599.5 48V50.3958H600.5V48H599.5ZM599.5 55.1875V59.9792H600.5V55.1875H599.5ZM599.5 64.7708V69.5625H600.5V64.7708H599.5ZM599.5 74.3542V79.1458H600.5V74.3542H599.5ZM599.5 83.9375V88.7292H600.5V83.9375H599.5ZM599.5 93.5208V98.3125H600.5V93.5208H599.5ZM599.5 103.104V105.5H600.5V103.104H599.5Z" fill="#0F1825"/>
<path d="M449.5 47.5C449.5 47.7761 449.724 48 450 48C450.276 48 450.5 47.7761 450.5 47.5H449.5ZM449.5 2.375C449.5 2.65114 449.724 2.875 450 2.875C450.276 2.875 450.5 2.65114 450.5 2.375H449.5ZM450.5 7.125C450.5 6.84886 450.276 6.625 450 6.625C449.724 6.625 449.5 6.84886 449.5 7.125H450.5ZM449.5 11.875C449.5 12.1511 449.724 12.375 450 12.375C450.276 12.375 450.5 12.1511 450.5 11.875H449.5ZM450.5 16.625C450.5 16.3489 450.276 16.125 450 16.125C449.724 16.125 449.5 16.3489 449.5 16.625H450.5ZM449.5 21.375C449.5 21.6511 449.724 21.875 450 21.875C450.276 21.875 450.5 21.6511 450.5 21.375H449.5ZM450.5 26.125C450.5 25.8489 450.276 25.625 450 25.625C449.724 25.625 449.5 25.8489 449.5 26.125H450.5ZM449.5 30.875C449.5 31.1511 449.724 31.375 450 31.375C450.276 31.375 450.5 31.1511 450.5 30.875H449.5ZM450.5 35.625C450.5 35.3489 450.276 35.125 450 35.125C449.724 35.125 449.5 35.3489 449.5 35.625H450.5ZM449.5 40.375C449.5 40.6511 449.724 40.875 450 40.875C450.276 40.875 450.5 40.6511 450.5 40.375H449.5ZM450.5 45.125C450.5 44.8489 450.276 44.625 450 44.625C449.724 44.625 449.5 44.8489 449.5 45.125H450.5ZM449.5 0V2.375H450.5V0H449.5ZM449.5 7.125V11.875H450.5V7.125H449.5ZM449.5 16.625V21.375H450.5V16.625H449.5ZM449.5 26.125V30.875H450.5V26.125H449.5ZM449.5 35.625V40.375H450.5V35.625H449.5ZM449.5 45.125V47.5H450.5V45.125H449.5Z" fill="#0F1825"/>
<path d="M0.5 105.5C0.5 105.776 0.723858 106 1 106C1.27614 106 1.5 105.776 1.5 105.5H0.5ZM0.5 50.3958C0.5 50.672 0.723858 50.8958 1 50.8958C1.27614 50.8958 1.5 50.672 1.5 50.3958H0.5ZM1.5 55.1875C1.5 54.9114 1.27614 54.6875 1 54.6875C0.723858 54.6875 0.5 54.9114 0.5 55.1875H1.5ZM0.5 59.9792C0.5 60.2553 0.723858 60.4792 1 60.4792C1.27614 60.4792 1.5 60.2553 1.5 59.9792H0.5ZM1.5 64.7708C1.5 64.4947 1.27614 64.2708 1 64.2708C0.723858 64.2708 0.5 64.4947 0.5 64.7708H1.5ZM0.5 69.5625C0.5 69.8386 0.723858 70.0625 1 70.0625C1.27614 70.0625 1.5 69.8386 1.5 69.5625H0.5ZM1.5 74.3542C1.5 74.078 1.27614 73.8542 1 73.8542C0.723858 73.8542 0.5 74.078 0.5 74.3542H1.5ZM0.5 79.1458C0.5 79.422 0.723858 79.6458 1 79.6458C1.27614 79.6458 1.5 79.422 1.5 79.1458H0.5ZM1.5 83.9375C1.5 83.6614 1.27614 83.4375 1 83.4375C0.723858 83.4375 0.5 83.6614 0.5 83.9375H1.5ZM0.5 88.7292C0.5 89.0053 0.723858 89.2292 1 89.2292C1.27614 89.2292 1.5 89.0053 1.5 88.7292H0.5ZM1.5 93.5208C1.5 93.2447 1.27614 93.0208 1 93.0208C0.723858 93.0208 0.5 93.2447 0.5 93.5208H1.5ZM0.5 98.3125C0.5 98.5886 0.723858 98.8125 1 98.8125C1.27614 98.8125 1.5 98.5886 1.5 98.3125H0.5ZM1.5 103.104C1.5 102.828 1.27614 102.604 1 102.604C0.723858 102.604 0.5 102.828 0.5 103.104H1.5ZM0.5 48V50.3958H1.5V48H0.5ZM0.5 55.1875V59.9792H1.5V55.1875H0.5ZM0.5 64.7708V69.5625H1.5V64.7708H0.5ZM0.5 74.3542V79.1458H1.5V74.3542H0.5ZM0.5 83.9375V88.7292H1.5V83.9375H0.5ZM0.5 93.5208V98.3125H1.5V93.5208H0.5ZM0.5 103.104V105.5H1.5V103.104H0.5Z" fill="#0F1825"/>
<path d="M900.5 105.5C900.5 105.776 900.724 106 901 106C901.276 106 901.5 105.776 901.5 105.5H900.5ZM900.5 50.3958C900.5 50.672 900.724 50.8958 901 50.8958C901.276 50.8958 901.5 50.672 901.5 50.3958H900.5ZM901.5 55.1875C901.5 54.9114 901.276 54.6875 901 54.6875C900.724 54.6875 900.5 54.9114 900.5 55.1875H901.5ZM900.5 59.9792C900.5 60.2553 900.724 60.4792 901 60.4792C901.276 60.4792 901.5 60.2553 901.5 59.9792H900.5ZM901.5 64.7708C901.5 64.4947 901.276 64.2708 901 64.2708C900.724 64.2708 900.5 64.4947 900.5 64.7708H901.5ZM900.5 69.5625C900.5 69.8386 900.724 70.0625 901 70.0625C901.276 70.0625 901.5 69.8386 901.5 69.5625H900.5ZM901.5 74.3542C901.5 74.078 901.276 73.8542 901 73.8542C900.724 73.8542 900.5 74.078 900.5 74.3542H901.5ZM900.5 79.1458C900.5 79.422 900.724 79.6458 901 79.6458C901.276 79.6458 901.5 79.422 901.5 79.1458H900.5ZM901.5 83.9375C901.5 83.6614 901.276 83.4375 901 83.4375C900.724 83.4375 900.5 83.6614 900.5 83.9375H901.5ZM900.5 88.7292C900.5 89.0053 900.724 89.2292 901 89.2292C901.276 89.2292 901.5 89.0053 901.5 88.7292H900.5ZM901.5 93.5208C901.5 93.2447 901.276 93.0208 901 93.0208C900.724 93.0208 900.5 93.2447 900.5 93.5208H901.5ZM900.5 98.3125C900.5 98.5886 900.724 98.8125 901 98.8125C901.276 98.8125 901.5 98.5886 901.5 98.3125H900.5ZM901.5 103.104C901.5 102.828 901.276 102.604 901 102.604C900.724 102.604 900.5 102.828 900.5 103.104H901.5ZM900.5 48V50.3958H901.5V48H900.5ZM900.5 55.1875V59.9792H901.5V55.1875H900.5ZM900.5 64.7708V69.5625H901.5V64.7708H900.5ZM900.5 74.3542V79.1458H901.5V74.3542H900.5ZM900.5 83.9375V88.7292H901.5V83.9375H900.5ZM900.5 93.5208V98.3125H901.5V93.5208H900.5ZM900.5 103.104V105.5H901.5V103.104H900.5Z" fill="#0F1825"/>
<path d="M238.586 47.6222C238.586 47.7787 238.643 47.9141 238.757 48.0285L242.802 52.0729C242.916 52.1873 243.051 52.2444 243.208 52.2444C243.364 52.2444 243.5 52.1873 243.614 52.0729C243.729 51.9586 243.786 51.8231 243.786 51.6667V43.5778C243.786 43.4213 243.729 43.2859 243.614 43.1715C243.5 43.0572 243.364 43 243.208 43C243.051 43 242.916 43.0572 242.802 43.1715L238.757 47.216C238.643 47.3303 238.586 47.4657 238.586 47.6222Z" fill="#0F1825"/>
<path d="M662.2 47.6222C662.2 47.7787 662.143 47.9141 662.028 48.0285L657.984 52.0729C657.87 52.1873 657.734 52.2444 657.578 52.2444C657.421 52.2444 657.286 52.1873 657.172 52.0729C657.057 51.9586 657 51.8231 657 51.6667V43.5778C657 43.4213 657.057 43.2859 657.172 43.1715C657.286 43.0572 657.421 43 657.578 43C657.734 43 657.87 43.0572 657.984 43.1715L662.028 47.216C662.143 47.3303 662.2 47.4657 662.2 47.6222Z" fill="#0F1825"/>
<path d="M485.2 47.6222C485.2 47.7787 485.143 47.9141 485.028 48.0285L480.984 52.0729C480.87 52.1873 480.734 52.2444 480.578 52.2444C480.421 52.2444 480.286 52.1873 480.172 52.0729C480.057 51.9586 480 51.8231 480 51.6667V43.5778C480 43.4213 480.057 43.2859 480.172 43.1715C480.286 43.0572 480.421 43 480.578 43C480.734 43 480.87 43.0572 480.984 43.1715L485.028 47.216C485.143 47.3303 485.2 47.4657 485.2 47.6222Z" fill="#0F1825"/>
<path d="M412.586 47.6222C412.586 47.7787 412.643 47.9141 412.757 48.0285L416.802 52.0729C416.916 52.1873 417.051 52.2444 417.208 52.2444C417.364 52.2444 417.5 52.1873 417.614 52.0729C417.729 51.9586 417.786 51.8231 417.786 51.6667V43.5778C417.786 43.4213 417.729 43.2859 417.614 43.1715C417.5 43.0572 417.364 43 417.208 43C417.051 43 416.916 43.0572 416.802 43.1715L412.757 47.216C412.643 47.3303 412.586 47.4657 412.586 47.6222Z" fill="#0F1825"/>
<path d="M153.586 47.6222C153.586 47.7787 153.643 47.9141 153.757 48.0285L157.802 52.0729C157.916 52.1873 158.051 52.2444 158.208 52.2444C158.364 52.2444 158.5 52.1873 158.614 52.0729C158.729 51.9586 158.786 51.8231 158.786 51.6667V43.5778C158.786 43.4213 158.729 43.2859 158.614 43.1715C158.5 43.0572 158.364 43 158.208 43C158.051 43 157.916 43.0572 157.802 43.1715L153.757 47.216C153.643 47.3303 153.586 47.4657 153.586 47.6222Z" fill="#0F1825"/>
<path d="M747.2 47.6222C747.2 47.7787 747.143 47.9141 747.028 48.0285L742.984 52.0729C742.87 52.1873 742.734 52.2444 742.578 52.2444C742.421 52.2444 742.286 52.1873 742.172 52.0729C742.057 51.9586 742 51.8231 742 51.6667V43.5778C742 43.4213 742.057 43.2859 742.172 43.1715C742.286 43.0572 742.421 43 742.578 43C742.734 43 742.87 43.0572 742.984 43.1715L747.028 47.216C747.143 47.3303 747.2 47.4657 747.2 47.6222Z" fill="#0F1825"/>
<path d="M570.2 47.6222C570.2 47.7787 570.143 47.9141 570.028 48.0285L565.984 52.0729C565.87 52.1873 565.734 52.2444 565.578 52.2444C565.421 52.2444 565.286 52.1873 565.172 52.0729C565.057 51.9586 565 51.8231 565 51.6667V43.5778C565 43.4213 565.057 43.2859 565.172 43.1715C565.286 43.0572 565.421 43 565.578 43C565.734 43 565.87 43.0572 565.984 43.1715L570.028 47.216C570.143 47.3303 570.2 47.4657 570.2 47.6222Z" fill="#0F1825"/>
<path d="M327.586 47.6222C327.586 47.7787 327.643 47.9141 327.757 48.0285L331.802 52.0729C331.916 52.1873 332.051 52.2444 332.208 52.2444C332.364 52.2444 332.5 52.1873 332.614 52.0729C332.729 51.9586 332.786 51.8231 332.786 51.6667V43.5778C332.786 43.4213 332.729 43.2859 332.614 43.1715C332.5 43.0572 332.364 43 332.208 43C332.051 43 331.916 43.0572 331.802 43.1715L327.757 47.216C327.643 47.3303 327.586 47.4657 327.586 47.6222Z" fill="#0F1825"/>
<path d="M68.5857 47.6222C68.5857 47.7787 68.6429 47.9141 68.7572 48.0285L72.8017 52.0729C72.916 52.1873 73.0514 52.2444 73.2079 52.2444C73.3644 52.2444 73.4998 52.1873 73.6142 52.0729C73.7285 51.9586 73.7857 51.8231 73.7857 51.6667V43.5778C73.7857 43.4213 73.7285 43.2859 73.6142 43.1715C73.4998 43.0572 73.3644 43 73.2079 43C73.0514 43 72.916 43.0572 72.8017 43.1715L68.7572 47.216C68.6429 47.3303 68.5857 47.4657 68.5857 47.6222Z" fill="#0F1825"/>
<path d="M832.2 47.6222C832.2 47.7787 832.143 47.9141 832.028 48.0285L827.984 52.0729C827.87 52.1873 827.734 52.2444 827.578 52.2444C827.421 52.2444 827.286 52.1873 827.172 52.0729C827.057 51.9586 827 51.8231 827 51.6667V43.5778C827 43.4213 827.057 43.2859 827.172 43.1715C827.286 43.0572 827.421 43 827.578 43C827.734 43 827.87 43.0572 827.984 43.1715L832.028 47.216C832.143 47.3303 832.2 47.4657 832.2 47.6222Z" fill="#0F1825"/>
</svg>
