<svg width="256" height="73" viewBox="0 0 256 73" fill="none" xmlns="http://www.w3.org/2000/svg">
<path d="M89.4103 54.992C88.9499 54.5757 88.3453 54.342 87.7161 54.3372C86.2467 54.3372 85.3921 55.4103 85.4033 56.6944C85.4033 57.8076 86.0855 58.8771 87.7161 58.8771C88.2785 58.89 88.8255 58.6979 89.2492 58.3387V57.1018H87.4987V56.2324H90.1788V58.7279C89.8745 59.0704 89.4959 59.3433 89.0701 59.5269C88.6443 59.7106 88.1819 59.8005 87.7161 59.7901C85.4108 59.7901 84.4175 58.3023 84.4175 56.6835C84.4175 54.9265 85.572 53.4314 87.7161 53.4314C88.5847 53.4305 89.4186 53.7626 90.0363 54.3554L89.4103 54.992Z" fill="#00A9CB"/>
<path d="M96.0937 59.681H91.4457V53.5915H96.0525V54.5373H92.4503V56.1815H95.9438V57.0873H92.484V58.7243H96.1125L96.0937 59.681Z" fill="#00A9CB"/>
<path d="M101.132 54.9374C100.944 54.716 100.707 54.5397 100.437 54.4223C100.168 54.3049 99.8747 54.2496 99.5798 54.2608C98.7401 54.2608 98.1291 54.5991 98.1291 55.1811C98.1291 55.7631 98.8301 55.9378 99.651 56.0505C100.944 56.2251 102.17 56.5744 102.17 57.9385C102.17 59.3027 100.88 59.8192 99.5722 59.8192C98.3728 59.8192 97.4469 59.4554 96.8734 58.4369L97.6231 57.9494C97.8272 58.27 98.1158 58.5318 98.4592 58.7076C98.8026 58.8835 99.1881 58.9671 99.576 58.9498C100.326 58.9498 101.165 58.7061 101.165 57.9385C101.165 57.2801 100.438 57.0509 99.561 56.9381C98.3128 56.7744 97.1321 56.4689 97.1321 55.1666C97.1321 53.8642 98.4215 53.4168 99.5498 53.4168C100.457 53.4168 101.36 53.6242 101.889 54.4426L101.132 54.9374Z" fill="#00A9CB"/>
<path d="M104.726 54.4682H102.665V53.5915H107.789V54.4682H105.738V59.681H104.726V54.4682Z" fill="#00A9CB"/>
<path d="M112.515 58.4005H109.116L108.527 59.681H107.459L110.274 53.5914H111.368L114.18 59.681H113.115L112.515 58.4005ZM109.412 52.7038C109.584 52.2163 109.94 51.8853 110.469 51.9981C110.686 52.0526 110.874 52.18 111.08 52.2527C111.286 52.3255 111.537 52.3291 111.635 52.0235L112.227 52.2418C112.219 52.3632 112.183 52.4813 112.122 52.5873C112.06 52.6934 111.975 52.7848 111.873 52.8546C111.77 52.9245 111.653 52.9711 111.529 52.9909C111.405 53.0108 111.279 53.0034 111.159 52.9693C110.952 52.8961 110.749 52.8123 110.551 52.7183C110.495 52.6953 110.434 52.6838 110.373 52.6846C110.312 52.6855 110.252 52.6986 110.196 52.7232C110.14 52.7479 110.091 52.7834 110.05 52.8276C110.009 52.8719 109.978 52.9239 109.959 52.9803L109.412 52.7038ZM110.821 54.6172L109.494 57.5274H112.148L110.821 54.6172Z" fill="#00A9CB"/>
<path d="M120.841 56.6617C120.841 58.3059 119.81 59.8083 117.632 59.8083C115.454 59.8083 114.423 58.2695 114.423 56.6689C114.402 56.2496 114.471 55.8305 114.625 55.4382C114.779 55.0458 115.015 54.6886 115.318 54.389C115.621 54.0894 115.985 53.8539 116.386 53.6972C116.788 53.5405 117.218 53.4661 117.651 53.4787C119.791 53.4859 120.841 55.0174 120.841 56.6617ZM117.632 58.9134C119.191 58.9134 119.844 57.8439 119.844 56.6799C119.844 55.5158 119.184 54.3917 117.651 54.3663C116.196 54.3663 115.402 55.3484 115.402 56.6799C115.435 57.7566 116.08 58.9134 117.632 58.9134Z" fill="#00A9CB"/>
<path d="M124.263 59.681V53.5915H128.701V54.5409H125.267V56.3925H128.528V57.2983H125.267V59.6737L124.263 59.681Z" fill="#00A9CB"/>
<path d="M129.874 59.681V53.5915H130.868V59.681H129.874Z" fill="#00A9CB"/>
<path d="M136.775 57.924V53.5915H137.779V59.681H137.03L133.469 55.3812V59.681H132.457V53.5915H133.229L136.775 57.924Z" fill="#00A9CB"/>
<path d="M143.702 58.4005H140.306L139.714 59.681H138.649L141.46 53.5915H142.555L145.37 59.681H144.298L143.702 58.4005ZM142.008 54.6173L140.681 57.5275H143.335L142.008 54.6173Z" fill="#00A9CB"/>
<path d="M150.569 57.924V53.5915H151.574V59.681H150.824L147.267 55.3812V59.681H146.255V53.5915H147.023L150.569 57.924Z" fill="#00A9CB"/>
<path d="M158.429 58.8953C158.118 59.1899 157.749 59.4216 157.344 59.5771C156.939 59.7326 156.507 59.8087 156.072 59.8011C153.793 59.8011 152.773 58.2805 152.762 56.6799C152.751 55.0793 153.83 53.486 156.072 53.486C156.498 53.4841 156.921 53.5649 157.315 53.7235C157.709 53.8822 158.066 54.1155 158.366 54.4099L157.695 55.0465C157.259 54.6401 156.676 54.4156 156.072 54.4209C155.762 54.4044 155.453 54.4516 155.163 54.5595C154.874 54.6674 154.612 54.8335 154.393 55.0469C154.175 55.2603 154.005 55.5161 153.896 55.7975C153.787 56.079 153.74 56.3797 153.759 56.6799C153.759 57.793 154.449 58.8989 156.072 58.8989C156.694 58.8921 157.291 58.6554 157.74 58.2368L158.429 58.8953Z" fill="#00A9CB"/>
<path d="M164.082 59.681H159.449V53.5915H164.056V54.5373H160.454V56.1815H163.913V57.0873H160.454V58.7243H164.082V59.681Z" fill="#00A9CB"/>
<path d="M165.375 59.681V53.5915H166.369V59.681H165.375Z" fill="#00A9CB"/>
<path d="M173.359 59.681H172.186L170.274 57.593H168.951V59.6992H167.947V53.5915C168.921 53.5915 169.892 53.5915 170.867 53.5915C172.321 53.5915 173.082 54.5555 173.082 55.5813C173.105 56.0497 172.941 56.5087 172.624 56.8625C172.307 57.2163 171.861 57.4376 171.38 57.4802L173.254 59.5064L173.359 59.681ZM168.951 54.4791V56.6872H170.859C171.014 56.7042 171.172 56.6883 171.32 56.6405C171.469 56.5927 171.605 56.5142 171.719 56.4104C171.833 56.3067 171.922 56.1801 171.981 56.0394C172.04 55.8988 172.066 55.7474 172.059 55.5958C172.063 55.4444 172.035 55.2938 171.976 55.1535C171.917 55.0131 171.829 54.8862 171.717 54.7809C171.605 54.6755 171.471 54.5939 171.325 54.5413C171.178 54.4887 171.022 54.4663 170.867 54.4754L168.951 54.4791Z" fill="#00A9CB"/>
<path d="M178.753 58.4005H175.357L174.765 59.681H173.7L176.512 53.5915H177.606L180.421 59.681H179.353L178.753 58.4005ZM177.059 54.6173L175.732 57.5275H178.386L177.059 54.6173Z" fill="#00A9CB"/>
<path d="M187.315 58.4005H183.919L183.326 59.681H182.258L185.073 53.5915H186.168L188.983 59.681H187.914L187.315 58.4005ZM185.62 54.6173L184.293 57.5275H186.947L185.62 54.6173Z" fill="#00A9CB"/>
<path d="M194.841 53.5915V57.1492C194.841 58.9426 193.623 59.8374 192.109 59.7865C190.711 59.7501 189.519 58.8807 189.519 57.1492V53.5915H190.512V57.1492C190.512 58.2405 191.175 58.8553 192.109 58.888C193.113 58.9426 193.848 58.306 193.848 57.1492V53.5915H194.841Z" fill="#00A9CB"/>
<path d="M197.765 54.4682H195.703V53.5915H200.827V54.4682H198.777V59.681H197.765V54.4682Z" fill="#00A9CB"/>
<path d="M207.623 56.6616C207.623 58.3059 206.592 59.8083 204.415 59.8083C202.237 59.8083 201.206 58.2695 201.206 56.6689C201.185 56.2497 201.253 55.8308 201.406 55.4384C201.56 55.0461 201.796 54.6888 202.098 54.3891C202.401 54.0895 202.765 53.8539 203.166 53.6972C203.567 53.5405 203.997 53.4661 204.43 53.4786C206.574 53.4859 207.623 55.0174 207.623 56.6616ZM204.415 58.9134C205.974 58.9134 206.626 57.8439 206.626 56.6798C206.626 55.5158 205.963 54.3917 204.43 54.3662C202.979 54.3662 202.199 55.3484 202.199 56.6798C202.218 57.7566 202.863 58.9134 204.415 58.9134Z" fill="#00A9CB"/>
<path d="M214.273 55.0175L212.144 57.8949H211.926L209.82 55.0175V59.6883H208.819V53.5915H209.985L212.054 56.4434L214.116 53.5915H215.281V59.681H214.277L214.273 55.0175Z" fill="#00A9CB"/>
<path d="M221.2 58.4005H217.804L217.212 59.681H216.143L218.958 53.5915H220.053L222.868 59.681H221.8L221.2 58.4005ZM219.506 54.6173L218.179 57.5275H220.833L219.506 54.6173Z" fill="#00A9CB"/>
<path d="M224.596 54.4682H222.534V53.5915H227.662V54.4682H225.608V59.681H224.596V54.4682Z" fill="#00A9CB"/>
<path d="M228.603 59.681V53.5915H229.596V59.681H228.603Z" fill="#00A9CB"/>
<path d="M230.904 53.5915H235.485V54.0353L232.036 58.7643H235.485V59.6956H230.612V59.1463L233.986 54.5009H230.882L230.904 53.5915Z" fill="#00A9CB"/>
<path d="M240.98 58.4005H237.584L236.992 59.681H235.924L238.757 53.5915H239.852L242.667 59.681H241.599L240.98 58.4005ZM239.286 54.6173L237.959 57.5275H240.632L239.286 54.6173Z" fill="#00A9CB"/>
<path d="M245.879 53.5915C248.023 53.5915 248.998 55.0793 249.024 56.5817C249.051 58.0841 248.076 59.681 245.879 59.681H243.518V53.5915H245.879ZM244.5 58.7389H245.879C247.412 58.7389 248.057 57.6475 248.031 56.5562C248.042 56.2807 247.994 56.0059 247.89 55.7495C247.785 55.4931 247.626 55.2608 247.424 55.0675C247.221 54.8743 246.979 54.7243 246.713 54.6274C246.447 54.5304 246.163 54.4886 245.879 54.5045H244.5V58.7389Z" fill="#00A9CB"/>
<path d="M254.336 58.4005H250.936L250.347 59.681H249.279L252.094 53.5915H253.189L256 59.681H254.935L254.336 58.4005ZM252.626 54.6173L251.3 57.5275H253.953L252.626 54.6173Z" fill="#00A9CB"/>
<path d="M108.872 41.0703C105.648 44.1624 101.728 45.392 97.3982 45.392C86.153 45.392 81.7936 38.5348 81.7524 31.0047C81.7112 23.8675 86.6553 16.2974 97.3982 16.2974C99.4552 16.2774 101.495 16.6602 103.397 17.4227C105.298 18.1852 107.021 19.3119 108.463 20.7354L103.482 25.4936C102.687 24.7146 101.739 24.0989 100.694 23.6833C99.6484 23.2677 98.5276 23.0606 97.3982 23.0745C91.8843 23.0745 89.7177 27.4397 89.759 31.0411C89.8002 34.6425 91.7606 38.7313 97.3982 38.7313C99.9358 38.6695 102.352 37.6626 104.145 35.9193L108.872 41.0703Z" fill="#143C68"/>
<path d="M125.661 45.352C116.29 45.352 109.772 40.0809 109.772 30.801C109.772 21.6849 116.305 16.2501 125.661 16.2501C135.017 16.2501 141.547 21.5612 141.547 30.801C141.547 40.0409 135.054 45.352 125.661 45.352ZM125.661 22.9581C121.043 22.9581 117.857 26.2066 117.857 30.8047C117.857 35.4028 121.084 38.6549 125.661 38.6549C130.399 38.6549 133.461 35.4028 133.461 30.8047C133.461 26.0501 130.399 22.9581 125.661 22.9581Z" fill="#143C68"/>
<path d="M163.359 24.6205C161.398 23.1945 159.149 22.718 156.66 22.718C154.7 22.718 152.777 23.3146 152.777 24.7806C152.777 26.6831 154.7 26.9632 157.515 27.2361C163.194 27.8326 169.116 30.0517 169.116 36.4322C169.116 42.7364 162.991 45.432 156.578 45.472C151.431 45.512 147.754 44.639 143.792 40.5938L148.245 35.6392C151.064 38.2984 154.209 38.7713 156.619 38.7713C159.273 38.7713 161.117 37.8619 161.117 36.3158C161.117 34.9262 159.483 34.0568 156.338 33.7694C150.089 33.2165 144.699 31.6704 144.699 24.7733C144.699 18.9056 150.622 16.3701 156.668 16.3701C160.956 16.3701 164.303 17.3196 167.366 19.6441L163.359 24.6205Z" fill="#143C68"/>
<path d="M172.954 44.679V16.9303H180.998V44.679H172.954Z" fill="#143C68"/>
<path d="M210.693 28.1491L203.38 36.5523H201.952L194.804 28.1855V44.679H186.797V16.9303H195.254L202.75 26.3266L210.247 16.9303H218.662V44.679H210.693V28.1491Z" fill="#143C68"/>
<path d="M238.791 45.352C229.42 45.352 222.905 40.0809 222.905 30.801C222.905 21.6849 229.439 16.2501 238.791 16.2501C248.143 16.2501 254.681 21.5612 254.681 30.801C254.681 40.0409 248.185 45.352 238.791 45.352ZM238.791 22.9581C234.177 22.9581 230.991 26.2066 230.991 30.8047C230.991 35.4028 234.218 38.6549 238.791 38.6549C243.529 38.6549 246.592 35.4028 246.592 30.8047C246.592 26.0501 243.529 22.9581 238.791 22.9581Z" fill="#143C68"/>
<path d="M50.7382 68.9281C54.6281 68.9281 57.7815 65.8678 57.7815 62.0928C57.7815 58.3177 54.6281 55.2575 50.7382 55.2575C46.8484 55.2575 43.695 58.3177 43.695 62.0928C43.695 65.8678 46.8484 68.9281 50.7382 68.9281Z" fill="url(#paint0_linear_125_2)"/>
<path d="M30.0134 5.02404C31.241 5.02404 32.2362 4.05824 32.2362 2.86686C32.2362 1.67549 31.241 0.709686 30.0134 0.709686C28.7858 0.709686 27.7906 1.67549 27.7906 2.86686C27.7906 4.05824 28.7858 5.02404 30.0134 5.02404Z" fill="url(#paint1_linear_125_2)"/>
<path d="M29.185 20.0152C30.3609 20.0152 31.3141 19.0901 31.3141 17.9489C31.3141 16.8078 30.3609 15.8827 29.185 15.8827C28.0091 15.8827 27.0559 16.8078 27.0559 17.9489C27.0559 19.0901 28.0091 20.0152 29.185 20.0152Z" fill="url(#paint2_linear_125_2)"/>
<path d="M24.6606 28.7275C26.7308 28.7275 28.409 27.0989 28.409 25.0898C28.409 23.0807 26.7308 21.4521 24.6606 21.4521C22.5904 21.4521 20.9122 23.0807 20.9122 25.0898C20.9122 27.0989 22.5904 28.7275 24.6606 28.7275Z" fill="url(#paint3_linear_125_2)"/>
<path d="M17.9323 65.7669C22.2403 65.7669 25.7327 62.3777 25.7327 58.1968C25.7327 54.0159 22.2403 50.6267 17.9323 50.6267C13.6243 50.6267 10.1319 54.0159 10.1319 58.1968C10.1319 62.3777 13.6243 65.7669 17.9323 65.7669Z" fill="url(#paint4_linear_125_2)"/>
<path d="M42.1619 55.2066C44.3645 55.2066 46.1502 53.4737 46.1502 51.336C46.1502 49.1984 44.3645 47.4655 42.1619 47.4655C39.9592 47.4655 38.1736 49.1984 38.1736 51.336C38.1736 53.4737 39.9592 55.2066 42.1619 55.2066Z" fill="url(#paint5_linear_125_2)"/>
<path d="M62.0921 61.2852C63.7731 61.2852 65.1358 59.9628 65.1358 58.3314C65.1358 56.7 63.7731 55.3776 62.0921 55.3776C60.4111 55.3776 59.0484 56.7 59.0484 58.3314C59.0484 59.9628 60.4111 61.2852 62.0921 61.2852Z" fill="#00A9CB"/>
<path d="M34.0616 47.8002C35.2809 47.8002 36.2694 46.8409 36.2694 45.6575C36.2694 44.4742 35.2809 43.5149 34.0616 43.5149C32.8422 43.5149 31.8538 44.4742 31.8538 45.6575C31.8538 46.8409 32.8422 47.8002 34.0616 47.8002Z" fill="url(#paint6_linear_125_2)"/>
<path d="M2.88626 45.4865C4.43062 45.4865 5.68256 44.2716 5.68256 42.7728C5.68256 41.274 4.43062 40.0591 2.88626 40.0591C1.34191 40.0591 0.0899658 41.274 0.0899658 42.7728C0.0899658 44.2716 1.34191 45.4865 2.88626 45.4865Z" fill="url(#paint7_linear_125_2)"/>
<path d="M51.4728 53.4895C52.8474 53.4895 53.9618 52.4081 53.9618 51.0741C53.9618 49.7401 52.8474 48.6586 51.4728 48.6586C50.0982 48.6586 48.9839 49.7401 48.9839 51.0741C48.9839 52.4081 50.0982 53.4895 51.4728 53.4895Z" fill="url(#paint8_linear_125_2)"/>
<path d="M33.7767 55.4757C35.2528 55.4757 36.4493 54.3145 36.4493 52.882C36.4493 51.4496 35.2528 50.2883 33.7767 50.2883C32.3007 50.2883 31.1041 51.4496 31.1041 52.882C31.1041 54.3145 32.3007 55.4757 33.7767 55.4757Z" fill="url(#paint9_linear_125_2)"/>
<path d="M34.2453 72.3658C38.6403 72.3658 42.2031 68.9081 42.2031 64.6429C42.2031 60.3776 38.6403 56.92 34.2453 56.92C29.8503 56.92 26.2875 60.3776 26.2875 64.6429C26.2875 68.9081 29.8503 72.3658 34.2453 72.3658Z" fill="url(#paint10_linear_125_2)"/>
<path d="M60.6377 54.9483C63.6229 54.9483 66.0429 52.5997 66.0429 49.7027C66.0429 46.8056 63.6229 44.4571 60.6377 44.4571C57.6525 44.4571 55.2325 46.8056 55.2325 49.7027C55.2325 52.5997 57.6525 54.9483 60.6377 54.9483Z" fill="url(#paint11_linear_125_2)"/>
<path d="M16.2455 48.2876C19.5123 48.2876 22.1605 45.7175 22.1605 42.5472C22.1605 39.3769 19.5123 36.8069 16.2455 36.8069C12.9788 36.8069 10.3306 39.3769 10.3306 42.5472C10.3306 45.7175 12.9788 48.2876 16.2455 48.2876Z" fill="url(#paint12_linear_125_2)"/>
<path d="M15.0798 15.086C17.1562 15.086 18.8394 13.4525 18.8394 11.4374C18.8394 9.42228 17.1562 7.78873 15.0798 7.78873C13.0034 7.78873 11.3201 9.42228 11.3201 11.4374C11.3201 13.4525 13.0034 15.086 15.0798 15.086Z" fill="url(#paint13_linear_125_2)"/>
<path d="M5.6001 28.7857C7.83797 28.7857 9.65211 27.0251 9.65211 24.8533C9.65211 22.6815 7.83797 20.921 5.6001 20.921C3.36224 20.921 1.5481 22.6815 1.5481 24.8533C1.5481 27.0251 3.36224 28.7857 5.6001 28.7857Z" fill="url(#paint14_linear_125_2)"/>
<path d="M29.526 13.9292C31.2215 13.9292 32.596 12.5953 32.596 10.9499C32.596 9.30449 31.2215 7.97061 29.526 7.97061C27.8306 7.97061 26.4561 9.30449 26.4561 10.9499C26.4561 12.5953 27.8306 13.9292 29.526 13.9292Z" fill="url(#paint15_linear_125_2)"/>
<path d="M46.3826 5.19138C47.4529 5.19138 48.3205 4.34936 48.3205 3.31067C48.3205 2.27198 47.4529 1.42996 46.3826 1.42996C45.3123 1.42996 44.4447 2.27198 44.4447 3.31067C44.4447 4.34936 45.3123 5.19138 46.3826 5.19138Z" fill="#124372"/>
<path d="M41.9332 9.04375C43.3554 9.04375 44.5083 7.92485 44.5083 6.54462C44.5083 5.1644 43.3554 4.0455 41.9332 4.0455C40.511 4.0455 39.358 5.1644 39.358 6.54462C39.358 7.92485 40.511 9.04375 41.9332 9.04375Z" fill="url(#paint16_linear_125_2)"/>
<path d="M25.1779 38.2584C27.1694 38.2584 28.7839 36.6916 28.7839 34.7589C28.7839 32.8261 27.1694 31.2594 25.1779 31.2594C23.1864 31.2594 21.572 32.8261 21.572 34.7589C21.572 36.6916 23.1864 38.2584 25.1779 38.2584Z" fill="url(#paint17_linear_125_2)"/>
<path d="M6.84082 54.1735C9.08282 54.1735 10.9003 52.4096 10.9003 50.2338C10.9003 48.058 9.08282 46.2941 6.84082 46.2941C4.59881 46.2941 2.78131 48.058 2.78131 50.2338C2.78131 52.4096 4.59881 54.1735 6.84082 54.1735Z" fill="url(#paint18_linear_125_2)"/>
<path d="M5.84 39.6261C8.45049 39.6261 10.5667 37.5724 10.5667 35.039C10.5667 32.5055 8.45049 30.4518 5.84 30.4518C3.22951 30.4518 1.11328 32.5055 1.11328 35.039C1.11328 37.5724 3.22951 39.6261 5.84 39.6261Z" fill="url(#paint19_linear_125_2)"/>
<path d="M15.4809 34.8171C17.9071 34.8171 19.874 32.9083 19.874 30.5536C19.874 28.199 17.9071 26.2902 15.4809 26.2902C13.0546 26.2902 11.0878 28.199 11.0878 30.5536C11.0878 32.9083 13.0546 34.8171 15.4809 34.8171Z" fill="url(#paint20_linear_125_2)"/>
<path d="M15.3009 24.5987C17.3235 24.5987 18.9631 23.0075 18.9631 21.0447C18.9631 19.0818 17.3235 17.4906 15.3009 17.4906C13.2783 17.4906 11.6387 19.0818 11.6387 21.0447C11.6387 23.0075 13.2783 24.5987 15.3009 24.5987Z" fill="url(#paint21_linear_125_2)"/>
<path d="M22.3516 18.6255C23.8877 18.6255 25.1329 17.417 25.1329 15.9263C25.1329 14.4356 23.8877 13.2271 22.3516 13.2271C20.8155 13.2271 19.5703 14.4356 19.5703 15.9263C19.5703 17.417 20.8155 18.6255 22.3516 18.6255Z" fill="url(#paint22_linear_125_2)"/>
<path d="M42.1694 2.27756C42.6642 2.27756 43.0653 1.88831 43.0653 1.40814C43.0653 0.927979 42.6642 0.538727 42.1694 0.538727C41.6747 0.538727 41.2736 0.927979 41.2736 1.40814C41.2736 1.88831 41.6747 2.27756 42.1694 2.27756Z" fill="url(#paint23_linear_125_2)"/>
<path d="M39.9803 11.5538C40.4751 11.5538 40.8762 11.1645 40.8762 10.6844C40.8762 10.2042 40.4751 9.81494 39.9803 9.81494C39.4856 9.81494 39.0845 10.2042 39.0845 10.6844C39.0845 11.1645 39.4856 11.5538 39.9803 11.5538Z" fill="url(#paint24_linear_125_2)"/>
<path d="M0.895865 30.7428C1.39064 30.7428 1.79173 30.3536 1.79173 29.8734C1.79173 29.3932 1.39064 29.004 0.895865 29.004C0.401092 29.004 0 29.3932 0 29.8734C0 30.3536 0.401092 30.7428 0.895865 30.7428Z" fill="url(#paint25_linear_125_2)"/>
<path d="M56.2558 7.46132C56.763 7.46132 57.1742 7.0623 57.1742 6.57008C57.1742 6.07786 56.763 5.67883 56.2558 5.67883C55.7486 5.67883 55.3375 6.07786 55.3375 6.57008C55.3375 7.0623 55.7486 7.46132 56.2558 7.46132Z" fill="#124372"/>
<path d="M37.0004 4.85671C38.3626 4.85671 39.4668 3.78505 39.4668 2.46309C39.4668 1.14112 38.3626 0.069458 37.0004 0.069458C35.6382 0.069458 34.5339 1.14112 34.5339 2.46309C34.5339 3.78505 35.6382 4.85671 37.0004 4.85671Z" fill="url(#paint26_linear_125_2)"/>
<path d="M22.5278 8.85456C24.1757 8.85456 25.5116 7.55814 25.5116 5.95893C25.5116 4.35971 24.1757 3.06329 22.5278 3.06329C20.88 3.06329 19.5441 4.35971 19.5441 5.95893C19.5441 7.55814 20.88 8.85456 22.5278 8.85456Z" fill="url(#paint27_linear_125_2)"/>
<path d="M8.04777 19.6368C9.44721 19.6368 10.5817 18.5358 10.5817 17.1777C10.5817 15.8196 9.44721 14.7186 8.04777 14.7186C6.64833 14.7186 5.51385 15.8196 5.51385 17.1777C5.51385 18.5358 6.64833 19.6368 8.04777 19.6368Z" fill="url(#paint28_linear_125_2)"/>
<path d="M35.2761 9.49117C36.2366 9.49117 37.0153 8.73547 37.0153 7.80326C37.0153 6.87106 36.2366 6.11536 35.2761 6.11536C34.3155 6.11536 33.5368 6.87106 33.5368 7.80326C33.5368 8.73547 34.3155 9.49117 35.2761 9.49117Z" fill="url(#paint29_linear_125_2)"/>
<path d="M35.5347 13.8565C36.2572 13.8565 36.8429 13.2881 36.8429 12.5869C36.8429 11.8857 36.2572 11.3173 35.5347 11.3173C34.8122 11.3173 34.2265 11.8857 34.2265 12.5869C34.2265 13.2881 34.8122 13.8565 35.5347 13.8565Z" fill="url(#paint30_linear_125_2)"/>
<path d="M53.9356 11.0627C54.7492 11.0627 55.4087 10.4226 55.4087 9.63306C55.4087 8.8435 54.7492 8.20343 53.9356 8.20343C53.122 8.20343 52.4625 8.8435 52.4625 9.63306C52.4625 10.4226 53.122 11.0627 53.9356 11.0627Z" fill="#124372"/>
<path d="M26.7448 51.3069C28.5541 51.3069 30.0209 49.8835 30.0209 48.1275C30.0209 46.3716 28.5541 44.9482 26.7448 44.9482C24.9354 44.9482 23.4687 46.3716 23.4687 48.1275C23.4687 49.8835 24.9354 51.3069 26.7448 51.3069Z" fill="url(#paint31_linear_125_2)"/>
<path d="M51.889 6.21357C52.6777 6.21357 53.3172 5.59305 53.3172 4.8276C53.3172 4.06214 52.6777 3.44162 51.889 3.44162C51.1003 3.44162 50.4609 4.06214 50.4609 4.8276C50.4609 5.59305 51.1003 6.21357 51.889 6.21357Z" fill="#124372"/>
<path d="M59.0184 10.939C59.9085 10.939 60.6302 10.2387 60.6302 9.3748C60.6302 8.5109 59.9085 7.81058 59.0184 7.81058C58.1282 7.81058 57.4066 8.5109 57.4066 9.3748C57.4066 10.2387 58.1282 10.939 59.0184 10.939Z" fill="#124372"/>
<path d="M47.8932 8.77458C48.5432 8.77458 49.0702 8.26318 49.0702 7.63233C49.0702 7.00148 48.5432 6.49008 47.8932 6.49008C47.2431 6.49008 46.7162 7.00148 46.7162 7.63233C46.7162 8.26318 47.2431 8.77458 47.8932 8.77458Z" fill="#124372"/>
<path d="M62.4107 12.5614C62.9717 12.5614 63.4265 12.1201 63.4265 11.5756C63.4265 11.0312 62.9717 10.5898 62.4107 10.5898C61.8497 10.5898 61.3949 11.0312 61.3949 11.5756C61.3949 12.1201 61.8497 12.5614 62.4107 12.5614Z" fill="#124372"/>
<path d="M29.8147 42.66C30.8953 42.66 31.7714 41.8099 31.7714 40.7611C31.7714 39.7124 30.8953 38.8622 29.8147 38.8622C28.7341 38.8622 27.858 39.7124 27.858 40.7611C27.858 41.8099 28.7341 42.66 29.8147 42.66Z" fill="url(#paint32_linear_125_2)"/>
<path d="M65.8854 15.3188C66.1939 15.3188 66.4439 15.0762 66.4439 14.7768C66.4439 14.4775 66.1939 14.2348 65.8854 14.2348C65.577 14.2348 65.3269 14.4775 65.3269 14.7768C65.3269 15.0762 65.577 15.3188 65.8854 15.3188Z" fill="#124372"/>
<path d="M59.5245 13.7873C59.8329 13.7873 60.083 13.5446 60.083 13.2453C60.083 12.9459 59.8329 12.7032 59.5245 12.7032C59.216 12.7032 58.9659 12.9459 58.9659 13.2453C58.9659 13.5446 59.216 13.7873 59.5245 13.7873Z" fill="#124372"/>
<path d="M45.4455 10.2333C45.7539 10.2333 46.004 9.99063 46.004 9.69128C46.004 9.39193 45.7539 9.14926 45.4455 9.14926C45.137 9.14926 44.887 9.39193 44.887 9.69128C44.887 9.99063 45.137 10.2333 45.4455 10.2333Z" fill="#124372"/>
<path d="M50.9444 8.53445C51.2528 8.53445 51.5029 8.29178 51.5029 7.99243C51.5029 7.69308 51.2528 7.45041 50.9444 7.45041C50.6359 7.45041 50.3859 7.69308 50.3859 7.99243C50.3859 8.29178 50.6359 8.53445 50.9444 8.53445Z" fill="#124372"/>
<defs>
<linearGradient id="paint0_linear_125_2" x1="44.4897" y1="40.8702" x2="36.3731" y2="11.5962" gradientUnits="userSpaceOnUse">
<stop stop-color="#00A9CB"/>
<stop offset="0.26" stop-color="#0493B8"/>
<stop offset="0.8" stop-color="#0E5A86"/>
<stop offset="1" stop-color="#124372"/>
</linearGradient>
<linearGradient id="paint1_linear_125_2" x1="43.5826" y1="48.9606" x2="33.0618" y2="11.0234" gradientUnits="userSpaceOnUse">
<stop stop-color="#00A9CB"/>
<stop offset="0.26" stop-color="#0493B8"/>
<stop offset="0.8" stop-color="#0E5A86"/>
<stop offset="1" stop-color="#124372"/>
</linearGradient>
<linearGradient id="paint2_linear_125_2" x1="35.4261" y1="39.1496" x2="27.6853" y2="11.2348" gradientUnits="userSpaceOnUse">
<stop stop-color="#00A9CB"/>
<stop offset="0.26" stop-color="#0493B8"/>
<stop offset="0.8" stop-color="#0E5A86"/>
<stop offset="1" stop-color="#124372"/>
</linearGradient>
<linearGradient id="paint3_linear_125_2" x1="30.4069" y1="44.6099" x2="21.9322" y2="14.0388" gradientUnits="userSpaceOnUse">
<stop stop-color="#00A9CB"/>
<stop offset="0.26" stop-color="#0493B8"/>
<stop offset="0.8" stop-color="#0E5A86"/>
<stop offset="1" stop-color="#124372"/>
</linearGradient>
<linearGradient id="paint4_linear_125_2" x1="15.3084" y1="49.2916" x2="6.83371" y2="18.7206" gradientUnits="userSpaceOnUse">
<stop stop-color="#00A9CB"/>
<stop offset="0.26" stop-color="#0493B8"/>
<stop offset="0.8" stop-color="#0E5A86"/>
<stop offset="1" stop-color="#124372"/>
</linearGradient>
<linearGradient id="paint5_linear_125_2" x1="39.2306" y1="41.3796" x2="30.7523" y2="10.8084" gradientUnits="userSpaceOnUse">
<stop stop-color="#00A9CB"/>
<stop offset="0.26" stop-color="#0493B8"/>
<stop offset="0.8" stop-color="#0E5A86"/>
<stop offset="1" stop-color="#124372"/>
</linearGradient>
<linearGradient id="paint6_linear_125_2" x1="33.3943" y1="43.3912" x2="24.3558" y2="10.7923" gradientUnits="userSpaceOnUse">
<stop stop-color="#00A9CB"/>
<stop offset="0.26" stop-color="#0493B8"/>
<stop offset="0.8" stop-color="#0E5A86"/>
<stop offset="1" stop-color="#124372"/>
</linearGradient>
<linearGradient id="paint7_linear_125_2" x1="5.43892" y1="51.4342" x2="-3.03936" y2="20.8631" gradientUnits="userSpaceOnUse">
<stop stop-color="#00A9CB"/>
<stop offset="0.26" stop-color="#0493B8"/>
<stop offset="0.8" stop-color="#0E5A86"/>
<stop offset="1" stop-color="#124372"/>
</linearGradient>
<linearGradient id="paint8_linear_125_2" x1="48.1855" y1="39.899" x2="40.505" y2="12.207" gradientUnits="userSpaceOnUse">
<stop stop-color="#00A9CB"/>
<stop offset="0.26" stop-color="#0493B8"/>
<stop offset="0.8" stop-color="#0E5A86"/>
<stop offset="1" stop-color="#124372"/>
</linearGradient>
<linearGradient id="paint9_linear_125_2" x1="31.2053" y1="44.1478" x2="22.9576" y2="14.3989" gradientUnits="userSpaceOnUse">
<stop stop-color="#00A9CB"/>
<stop offset="0.26" stop-color="#0493B8"/>
<stop offset="0.8" stop-color="#0E5A86"/>
<stop offset="1" stop-color="#124372"/>
</linearGradient>
<linearGradient id="paint10_linear_125_2" x1="28.8739" y1="46.3924" x2="20.9594" y2="17.8563" gradientUnits="userSpaceOnUse">
<stop stop-color="#00A9CB"/>
<stop offset="0.26" stop-color="#0493B8"/>
<stop offset="0.8" stop-color="#0E5A86"/>
<stop offset="1" stop-color="#124372"/>
</linearGradient>
<linearGradient id="paint11_linear_125_2" x1="57.2042" y1="38.0365" x2="49.2862" y2="9.47858" gradientUnits="userSpaceOnUse">
<stop stop-color="#00A9CB"/>
<stop offset="0.26" stop-color="#0493B8"/>
<stop offset="0.8" stop-color="#0E5A86"/>
<stop offset="1" stop-color="#124372"/>
</linearGradient>
<linearGradient id="paint12_linear_125_2" x1="17.8198" y1="47.8983" x2="9.34514" y2="17.3273" gradientUnits="userSpaceOnUse">
<stop stop-color="#00A9CB"/>
<stop offset="0.26" stop-color="#0493B8"/>
<stop offset="0.8" stop-color="#0E5A86"/>
<stop offset="1" stop-color="#124372"/>
</linearGradient>
<linearGradient id="paint13_linear_125_2" x1="25.9538" y1="48.3822" x2="16.582" y2="14.5811" gradientUnits="userSpaceOnUse">
<stop stop-color="#00A9CB"/>
<stop offset="0.26" stop-color="#0493B8"/>
<stop offset="0.8" stop-color="#0E5A86"/>
<stop offset="1" stop-color="#124372"/>
</linearGradient>
<linearGradient id="paint14_linear_125_2" x1="12.4859" y1="48.2367" x2="4.00761" y2="17.6655" gradientUnits="userSpaceOnUse">
<stop stop-color="#00A9CB"/>
<stop offset="0.26" stop-color="#0493B8"/>
<stop offset="0.8" stop-color="#0E5A86"/>
<stop offset="1" stop-color="#124372"/>
</linearGradient>
<linearGradient id="paint15_linear_125_2" x1="38.6271" y1="41.867" x2="30.1488" y2="11.2958" gradientUnits="userSpaceOnUse">
<stop stop-color="#00A9CB"/>
<stop offset="0.26" stop-color="#0493B8"/>
<stop offset="0.8" stop-color="#0E5A86"/>
<stop offset="1" stop-color="#124372"/>
</linearGradient>
<linearGradient id="paint16_linear_125_2" x1="51.2966" y1="38.353" x2="42.8219" y2="7.78552" gradientUnits="userSpaceOnUse">
<stop stop-color="#00A9CB"/>
<stop offset="0.26" stop-color="#0493B8"/>
<stop offset="0.8" stop-color="#0E5A86"/>
<stop offset="1" stop-color="#124372"/>
</linearGradient>
<linearGradient id="paint17_linear_125_2" x1="28.1017" y1="44.6899" x2="19.6234" y2="14.1223" gradientUnits="userSpaceOnUse">
<stop stop-color="#00A9CB"/>
<stop offset="0.26" stop-color="#0493B8"/>
<stop offset="0.8" stop-color="#0E5A86"/>
<stop offset="1" stop-color="#124372"/>
</linearGradient>
<linearGradient id="paint18_linear_125_2" x1="7.03573" y1="50.8995" x2="-0.205032" y2="24.7932" gradientUnits="userSpaceOnUse">
<stop stop-color="#00A9CB"/>
<stop offset="0.26" stop-color="#0493B8"/>
<stop offset="0.8" stop-color="#0E5A86"/>
<stop offset="1" stop-color="#124372"/>
</linearGradient>
<linearGradient id="paint19_linear_125_2" x1="10.1731" y1="49.7572" x2="1.69843" y2="19.1862" gradientUnits="userSpaceOnUse">
<stop stop-color="#00A9CB"/>
<stop offset="0.26" stop-color="#0493B8"/>
<stop offset="0.8" stop-color="#0E5A86"/>
<stop offset="1" stop-color="#124372"/>
</linearGradient>
<linearGradient id="paint20_linear_125_2" x1="20.3088" y1="46.9453" x2="11.8341" y2="16.3778" gradientUnits="userSpaceOnUse">
<stop stop-color="#00A9CB"/>
<stop offset="0.26" stop-color="#0493B8"/>
<stop offset="0.8" stop-color="#0E5A86"/>
<stop offset="1" stop-color="#124372"/>
</linearGradient>
<linearGradient id="paint21_linear_125_2" x1="22.569" y1="45.7449" x2="14.3922" y2="16.2516" gradientUnits="userSpaceOnUse">
<stop stop-color="#00A9CB"/>
<stop offset="0.26" stop-color="#0493B8"/>
<stop offset="0.8" stop-color="#0E5A86"/>
<stop offset="1" stop-color="#124372"/>
</linearGradient>
<linearGradient id="paint22_linear_125_2" x1="30.6431" y1="44.0824" x2="22.1648" y2="13.5112" gradientUnits="userSpaceOnUse">
<stop stop-color="#00A9CB"/>
<stop offset="0.26" stop-color="#0493B8"/>
<stop offset="0.8" stop-color="#0E5A86"/>
<stop offset="1" stop-color="#124372"/>
</linearGradient>
<linearGradient id="paint23_linear_125_2" x1="53.0135" y1="38.2438" x2="44.5388" y2="7.67639" gradientUnits="userSpaceOnUse">
<stop stop-color="#00A9CB"/>
<stop offset="0.26" stop-color="#0493B8"/>
<stop offset="0.8" stop-color="#0E5A86"/>
<stop offset="1" stop-color="#124372"/>
</linearGradient>
<linearGradient id="paint24_linear_125_2" x1="47.9044" y1="37.5963" x2="39.4297" y2="7.02886" gradientUnits="userSpaceOnUse">
<stop stop-color="#00A9CB"/>
<stop offset="0.26" stop-color="#0493B8"/>
<stop offset="0.8" stop-color="#0E5A86"/>
<stop offset="1" stop-color="#124372"/>
</linearGradient>
<linearGradient id="paint25_linear_125_2" x1="7.11444" y1="51.0014" x2="-1.36026" y2="20.4303" gradientUnits="userSpaceOnUse">
<stop stop-color="#00A9CB"/>
<stop offset="0.26" stop-color="#0493B8"/>
<stop offset="0.8" stop-color="#0E5A86"/>
<stop offset="1" stop-color="#124372"/>
</linearGradient>
<linearGradient id="paint26_linear_125_2" x1="47.8257" y1="39.2369" x2="39.351" y2="8.66586" gradientUnits="userSpaceOnUse">
<stop stop-color="#00A9CB"/>
<stop offset="0.26" stop-color="#0493B8"/>
<stop offset="0.8" stop-color="#0E5A86"/>
<stop offset="1" stop-color="#124372"/>
</linearGradient>
<linearGradient id="paint27_linear_125_2" x1="33.3195" y1="42.6164" x2="24.8412" y2="12.0488" gradientUnits="userSpaceOnUse">
<stop stop-color="#00A9CB"/>
<stop offset="0.26" stop-color="#0493B8"/>
<stop offset="0.8" stop-color="#0E5A86"/>
<stop offset="1" stop-color="#124372"/>
</linearGradient>
<linearGradient id="paint28_linear_125_2" x1="17.1451" y1="48.0875" x2="8.6704" y2="17.5165" gradientUnits="userSpaceOnUse">
<stop stop-color="#00A9CB"/>
<stop offset="0.26" stop-color="#0493B8"/>
<stop offset="0.8" stop-color="#0E5A86"/>
<stop offset="1" stop-color="#124372"/>
</linearGradient>
<linearGradient id="paint29_linear_125_2" x1="44.647" y1="39.6371" x2="36.1723" y2="9.066" gradientUnits="userSpaceOnUse">
<stop stop-color="#00A9CB"/>
<stop offset="0.26" stop-color="#0493B8"/>
<stop offset="0.8" stop-color="#0E5A86"/>
<stop offset="1" stop-color="#124372"/>
</linearGradient>
<linearGradient id="paint30_linear_125_2" x1="43.5188" y1="39.7062" x2="35.0405" y2="9.13502" gradientUnits="userSpaceOnUse">
<stop stop-color="#00A9CB"/>
<stop offset="0.26" stop-color="#0493B8"/>
<stop offset="0.8" stop-color="#0E5A86"/>
<stop offset="1" stop-color="#124372"/>
</linearGradient>
<linearGradient id="paint31_linear_125_2" x1="25.9089" y1="45.2901" x2="17.4342" y2="14.7227" gradientUnits="userSpaceOnUse">
<stop stop-color="#00A9CB"/>
<stop offset="0.26" stop-color="#0493B8"/>
<stop offset="0.8" stop-color="#0E5A86"/>
<stop offset="1" stop-color="#124372"/>
</linearGradient>
<linearGradient id="paint32_linear_125_2" x1="30.3957" y1="42.7328" x2="21.921" y2="12.1617" gradientUnits="userSpaceOnUse">
<stop stop-color="#00A9CB"/>
<stop offset="0.26" stop-color="#0493B8"/>
<stop offset="0.8" stop-color="#0E5A86"/>
<stop offset="1" stop-color="#124372"/>
</linearGradient>
</defs>
</svg>
