<svg width="227" height="65" viewBox="0 0 227 65" fill="none" xmlns="http://www.w3.org/2000/svg">
<path d="M79.0934 48.6545C78.686 48.2863 78.1513 48.0796 77.5946 48.0753C76.2948 48.0753 75.5388 49.0246 75.5487 50.1605C75.5487 51.1452 76.1522 52.0913 77.5946 52.0913C78.0921 52.1028 78.576 51.9329 78.9508 51.6151V50.521H77.4023V49.7519H79.7731V51.9594C79.504 52.2624 79.1691 52.5038 78.7924 52.6662C78.4157 52.8287 78.0067 52.9082 77.5946 52.899C75.5553 52.899 74.6766 51.5829 74.6766 50.1509C74.6766 48.5966 75.6979 47.274 77.5946 47.274C78.363 47.2732 79.1007 47.567 79.6471 48.0914L79.0934 48.6545Z" fill="#00A9CB"/>
<path d="M85.0056 52.8025H80.8939V47.4156H84.9691V48.2523H81.7826V49.7068H84.8729V50.5081H81.8124V51.9562H85.0222L85.0056 52.8025Z" fill="#00A9CB"/>
<path d="M89.4621 48.6063C89.2964 48.4104 89.0863 48.2545 88.8481 48.1506C88.6099 48.0468 88.3502 47.9979 88.0893 48.0077C87.3466 48.0077 86.8061 48.307 86.8061 48.8219C86.8061 49.3367 87.4262 49.4912 88.1523 49.591C89.2963 49.7454 90.3806 50.0543 90.3806 51.2611C90.3806 52.4678 89.2399 52.9248 88.0827 52.9248C87.0216 52.9248 86.2026 52.603 85.6953 51.702L86.3585 51.2707C86.539 51.5543 86.7943 51.7859 87.0981 51.9415C87.4018 52.0971 87.7429 52.171 88.086 52.1557C88.7492 52.1557 89.4919 51.9401 89.4919 51.2611C89.4919 50.6786 88.8487 50.4759 88.0728 50.3761C86.9686 50.2313 85.9241 49.961 85.9241 48.809C85.9241 47.6569 87.0647 47.2611 88.0628 47.2611C88.8652 47.2611 89.6644 47.4446 90.1319 48.1686L89.4621 48.6063Z" fill="#00A9CB"/>
<path d="M92.642 48.1912H90.8183V47.4156H95.3511V48.1912H93.5373V52.8025H92.642V48.1912Z" fill="#00A9CB"/>
<path d="M99.5324 51.6698H96.5249L96.0043 52.8025H95.0593L97.5495 47.4156H98.5177L101.005 52.8025H100.063L99.5324 51.6698ZM96.7869 46.6304C96.9394 46.1992 97.2544 45.9064 97.7219 46.0061C97.9143 46.0544 98.0801 46.167 98.2624 46.2314C98.4448 46.2957 98.667 46.2989 98.7532 46.0286L99.2771 46.2217C99.2701 46.3291 99.2383 46.4335 99.1841 46.5274C99.1299 46.6212 99.0546 46.702 98.9639 46.7638C98.8731 46.8256 98.7692 46.8668 98.6599 46.8844C98.5505 46.902 98.4385 46.8954 98.3321 46.8653C98.1491 46.8005 97.9698 46.7264 97.7949 46.6433C97.745 46.6229 97.6914 46.6127 97.6373 46.6135C97.5832 46.6142 97.5298 46.6258 97.4806 46.6476C97.4313 46.6694 97.3873 46.7008 97.3512 46.74C97.3151 46.7791 97.2878 46.8251 97.271 46.875L96.7869 46.6304ZM98.0336 48.3231L96.8598 50.8974H99.2074L98.0336 48.3231Z" fill="#00A9CB"/>
<path d="M106.897 50.1316C106.897 51.5861 105.985 52.9151 104.059 52.9151C102.132 52.9151 101.22 51.5539 101.22 50.138C101.202 49.767 101.263 49.3963 101.399 49.0493C101.535 48.7022 101.744 48.3862 102.012 48.1211C102.28 47.8561 102.602 47.6477 102.957 47.5092C103.312 47.3706 103.693 47.3048 104.075 47.3158C105.968 47.3223 106.897 48.677 106.897 50.1316ZM104.059 52.1235C105.438 52.1235 106.015 51.1774 106.015 50.1477C106.015 49.1179 105.431 48.1235 104.075 48.101C102.789 48.101 102.086 48.9699 102.086 50.1477C102.115 51.1002 102.686 52.1235 104.059 52.1235Z" fill="#00A9CB"/>
<path d="M109.924 52.8025V47.4156H113.85V48.2555H110.813V49.8935H113.698V50.6947H110.813V52.7961L109.924 52.8025Z" fill="#00A9CB"/>
<path d="M114.888 52.8025V47.4156H115.767V52.8025H114.888Z" fill="#00A9CB"/>
<path d="M120.993 51.2482V47.4156H121.881V52.8025H121.218L118.068 48.9989V52.8025H117.173V47.4156H117.856L120.993 51.2482Z" fill="#00A9CB"/>
<path d="M127.12 51.6698H124.116L123.592 52.8025H122.651L125.138 47.4156H126.106L128.596 52.8025H127.648L127.12 51.6698ZM125.622 48.3231L124.448 50.8975H126.795L125.622 48.3231Z" fill="#00A9CB"/>
<path d="M133.195 51.2482V47.4156H134.084V52.8025H133.421L130.274 48.9989V52.8025H129.378V47.4156H130.058L133.195 51.2482Z" fill="#00A9CB"/>
<path d="M140.148 52.1074C139.873 52.3681 139.546 52.5731 139.188 52.7106C138.83 52.8481 138.448 52.9155 138.063 52.9087C136.047 52.9087 135.145 51.5636 135.135 50.1477C135.125 48.7318 136.08 47.3223 138.063 47.3223C138.44 47.3206 138.814 47.3921 139.162 47.5324C139.511 47.6728 139.827 47.8792 140.092 48.1397L139.499 48.7028C139.113 48.3433 138.597 48.1446 138.063 48.1493C137.789 48.1347 137.515 48.1765 137.259 48.272C137.003 48.3674 136.771 48.5144 136.578 48.7031C136.385 48.8919 136.235 49.1182 136.138 49.3671C136.041 49.6161 136 49.8821 136.017 50.1477C136.017 51.1324 136.627 52.1106 138.063 52.1106C138.613 52.1046 139.141 51.8952 139.538 51.525L140.148 52.1074Z" fill="#00A9CB"/>
<path d="M145.149 52.8025H141.05V47.4156H145.126V48.2523H141.939V49.7068H145V50.5081H141.939V51.9562H145.149V52.8025Z" fill="#00A9CB"/>
<path d="M146.293 52.8025V47.4156H147.171V52.8025H146.293Z" fill="#00A9CB"/>
<path d="M153.356 52.8025H152.318L150.627 50.9554H149.456V52.8186H148.567V47.4156C149.43 47.4156 150.288 47.4156 151.151 47.4156C152.437 47.4156 153.11 48.2684 153.11 49.1759C153.131 49.5902 152.986 49.9962 152.705 50.3092C152.425 50.6222 152.03 50.818 151.605 50.8556L153.263 52.6481L153.356 52.8025ZM149.456 48.2008V50.1541H151.144C151.281 50.1692 151.421 50.1551 151.552 50.1128C151.683 50.0706 151.803 50.0011 151.904 49.9093C152.005 49.8175 152.084 49.7055 152.136 49.5811C152.188 49.4567 152.212 49.3228 152.205 49.1887C152.209 49.0548 152.184 48.9215 152.132 48.7974C152.08 48.6732 152.002 48.561 151.903 48.4678C151.804 48.3745 151.685 48.3024 151.556 48.2559C151.426 48.2093 151.288 48.1895 151.151 48.1976L149.456 48.2008Z" fill="#00A9CB"/>
<path d="M158.127 51.6698H155.123L154.599 52.8025H153.657L156.144 47.4156H157.112L159.603 52.8025H158.658L158.127 51.6698ZM156.628 48.3231L155.455 50.8975H157.802L156.628 48.3231Z" fill="#00A9CB"/>
<path d="M165.701 51.6698H162.696L162.172 52.8025H161.227L163.718 47.4156H164.686L167.176 52.8025H166.231L165.701 51.6698ZM164.202 48.3231L163.028 50.8975H165.376L164.202 48.3231Z" fill="#00A9CB"/>
<path d="M172.359 47.4156V50.5628C172.359 52.1493 171.281 52.9409 169.941 52.8958C168.705 52.8637 167.65 52.0946 167.65 50.5628V47.4156H168.529V50.5628C168.529 51.5282 169.116 52.072 169.941 52.101C170.83 52.1493 171.48 51.5861 171.48 50.5628V47.4156H172.359Z" fill="#00A9CB"/>
<path d="M174.945 48.1912H173.121V47.4156H177.654V48.1912H175.84V52.8025H174.945V48.1912Z" fill="#00A9CB"/>
<path d="M183.666 50.1315C183.666 51.5861 182.754 52.9151 180.828 52.9151C178.901 52.9151 177.989 51.5539 177.989 50.138C177.97 49.7672 178.031 49.3965 178.166 49.0495C178.302 48.7024 178.511 48.3864 178.779 48.1213C179.046 47.8562 179.368 47.6478 179.723 47.5091C180.078 47.3705 180.458 47.3047 180.841 47.3158C182.737 47.3222 183.666 48.677 183.666 50.1315ZM180.828 52.1235C182.207 52.1235 182.784 51.1774 182.784 50.1476C182.784 49.1179 182.197 48.1235 180.841 48.101C179.558 48.101 178.868 48.9699 178.868 50.1476C178.884 51.1002 179.455 52.1235 180.828 52.1235Z" fill="#00A9CB"/>
<path d="M189.548 48.6771L187.665 51.2225H187.473L185.609 48.6771V52.809H184.724V47.4156H185.755L187.585 49.9385L189.409 47.4156H190.44V52.8025H189.552L189.548 48.6771Z" fill="#00A9CB"/>
<path d="M195.676 51.6698H192.672L192.148 52.8025H191.203L193.693 47.4156H194.661L197.152 52.8025H196.207L195.676 51.6698ZM194.177 48.3231L193.003 50.8975H195.351L194.177 48.3231Z" fill="#00A9CB"/>
<path d="M198.68 48.1912H196.856V47.4156H201.393V48.1912H199.575V52.8025H198.68V48.1912Z" fill="#00A9CB"/>
<path d="M202.225 52.8025V47.4156H203.104V52.8025H202.225Z" fill="#00A9CB"/>
<path d="M204.261 47.4156H208.313V47.8082L205.262 51.9916H208.313V52.8154H204.002V52.3295L206.986 48.2201H204.241L204.261 47.4156Z" fill="#00A9CB"/>
<path d="M213.174 51.6698H210.17L209.646 52.8025H208.701L211.208 47.4156H212.176L214.666 52.8025H213.721L213.174 51.6698ZM211.675 48.3231L210.501 50.8975H212.865L211.675 48.3231Z" fill="#00A9CB"/>
<path d="M217.508 47.4156C219.404 47.4156 220.267 48.7318 220.29 50.0608C220.313 51.3898 219.451 52.8025 217.508 52.8025H215.419V47.4156H217.508ZM216.287 51.9691H217.508C218.864 51.9691 219.434 51.0037 219.411 50.0383C219.421 49.7945 219.379 49.5515 219.286 49.3246C219.194 49.0978 219.053 48.8923 218.874 48.7214C218.695 48.5504 218.48 48.4178 218.245 48.332C218.01 48.2462 217.759 48.2092 217.508 48.2233H216.287V51.9691Z" fill="#00A9CB"/>
<path d="M224.988 51.6698H221.981L221.46 52.8025H220.515L223.005 47.4156H223.974L226.461 52.8025H225.519L224.988 51.6698ZM223.476 48.3231L222.302 50.8975H224.65L223.476 48.3231Z" fill="#00A9CB"/>
<path d="M96.3094 36.3393C93.4578 39.0746 89.9894 40.1623 86.1595 40.1623C76.2119 40.1623 72.3556 34.0964 72.3191 27.4351C72.2826 21.1215 76.6563 14.4248 86.1595 14.4248C87.9792 14.4072 89.7839 14.7458 91.4658 15.4203C93.1476 16.0949 94.672 17.0915 95.948 18.3508L91.5412 22.5599C90.8382 21.8708 89.9993 21.3262 89.0747 20.9585C88.1501 20.5909 87.1587 20.4077 86.1595 20.4199C81.2819 20.4199 79.3653 24.2815 79.4018 27.4673C79.4383 30.6531 81.1725 34.2701 86.1595 34.2701C88.4044 34.2155 90.5415 33.3248 92.1281 31.7826L96.3094 36.3393Z" fill="#143C68"/>
<path d="M111.161 40.1269C102.871 40.1269 97.1052 35.464 97.1052 27.2549C97.1052 19.1907 102.885 14.383 111.161 14.383C119.438 14.383 125.214 19.0813 125.214 27.2549C125.214 35.4286 119.471 40.1269 111.161 40.1269ZM111.161 20.317C107.076 20.317 104.258 23.1906 104.258 27.2582C104.258 31.3257 107.112 34.2026 111.161 34.2026C115.352 34.2026 118.061 31.3257 118.061 27.2582C118.061 23.0523 115.352 20.317 111.161 20.317Z" fill="#143C68"/>
<path d="M144.509 21.7876C142.775 20.5262 140.785 20.1046 138.583 20.1046C136.849 20.1046 135.148 20.6324 135.148 21.9292C135.148 23.6122 136.849 23.86 139.339 24.1013C144.363 24.6291 149.602 26.592 149.602 32.2364C149.602 37.8131 144.184 40.1977 138.51 40.2331C133.958 40.2685 130.705 39.4961 127.2 35.9178L131.139 31.5349C133.633 33.8872 136.415 34.3055 138.547 34.3055C140.895 34.3055 142.526 33.501 142.526 32.1334C142.526 30.9041 141.08 30.135 138.298 29.8808C132.771 29.3917 128.002 28.024 128.002 21.9228C128.002 16.7322 133.242 14.4892 138.59 14.4892C142.383 14.4892 145.344 15.3291 148.054 17.3854L144.509 21.7876Z" fill="#143C68"/>
<path d="M152.997 39.5315V14.9848H160.113V39.5315H152.997Z" fill="#143C68"/>
<path d="M186.382 24.909L179.912 32.3426H178.649L172.326 24.9412V39.5315H165.243V14.9848H172.724L179.355 23.2968L185.987 14.9848H193.431V39.5315H186.382V24.909Z" fill="#143C68"/>
<path d="M211.237 40.1269C202.948 40.1269 197.185 35.464 197.185 27.2549C197.185 19.1907 202.964 14.383 211.237 14.383C219.51 14.383 225.293 19.0813 225.293 27.2549C225.293 35.4286 219.547 40.1269 211.237 40.1269ZM211.237 20.317C207.156 20.317 204.337 23.1906 204.337 27.2582C204.337 31.3257 207.192 34.2026 211.237 34.2026C215.429 34.2026 218.138 31.3257 218.138 27.2582C218.138 23.0523 215.429 20.317 211.237 20.317Z" fill="#143C68"/>
<path d="M44.8836 60.9826C48.3246 60.9826 51.1141 58.2754 51.1141 54.936C51.1141 51.5965 48.3246 48.8894 44.8836 48.8894C41.4425 48.8894 38.653 51.5965 38.653 54.936C38.653 58.2754 41.4425 60.9826 44.8836 60.9826Z" fill="url(#paint0_linear_25_1126)"/>
<path d="M26.5501 4.45233C27.6361 4.45233 28.5165 3.59797 28.5165 2.54407C28.5165 1.49016 27.6361 0.635803 26.5501 0.635803C25.4642 0.635803 24.5838 1.49016 24.5838 2.54407C24.5838 3.59797 25.4642 4.45233 26.5501 4.45233Z" fill="url(#paint1_linear_25_1126)"/>
<path d="M25.8173 17.7136C26.8575 17.7136 27.7008 16.8953 27.7008 15.8858C27.7008 14.8764 26.8575 14.058 25.8173 14.058C24.7772 14.058 23.9339 14.8764 23.9339 15.8858C23.9339 16.8953 24.7772 17.7136 25.8173 17.7136Z" fill="url(#paint2_linear_25_1126)"/>
<path d="M21.8151 25.4207C23.6464 25.4207 25.1309 23.98 25.1309 22.2027C25.1309 20.4255 23.6464 18.9847 21.8151 18.9847C19.9838 18.9847 18.4992 20.4255 18.4992 22.2027C18.4992 23.98 19.9838 25.4207 21.8151 25.4207Z" fill="url(#paint3_linear_25_1126)"/>
<path d="M15.8631 58.1862C19.674 58.1862 22.7634 55.188 22.7634 51.4896C22.7634 47.7911 19.674 44.7929 15.8631 44.7929C12.0522 44.7929 8.96278 47.7911 8.96278 51.4896C8.96278 55.188 12.0522 58.1862 15.8631 58.1862Z" fill="url(#paint4_linear_25_1126)"/>
<path d="M37.2969 48.8444C39.2454 48.8444 40.825 47.3114 40.825 45.4205C40.825 43.5295 39.2454 41.9965 37.2969 41.9965C35.3484 41.9965 33.7688 43.5295 33.7688 45.4205C33.7688 47.3114 35.3484 48.8444 37.2969 48.8444Z" fill="url(#paint5_linear_25_1126)"/>
<path d="M54.9274 54.2216C56.4144 54.2216 57.6199 53.0518 57.6199 51.6086C57.6199 50.1655 56.4144 48.9956 54.9274 48.9956C53.4404 48.9956 52.2349 50.1655 52.2349 51.6086C52.2349 53.0518 53.4404 54.2216 54.9274 54.2216Z" fill="#00A9CB"/>
<path d="M30.1313 42.2926C31.2099 42.2926 32.0843 41.444 32.0843 40.3972C32.0843 39.3504 31.2099 38.5018 30.1313 38.5018C29.0526 38.5018 28.1782 39.3504 28.1782 40.3972C28.1782 41.444 29.0526 42.2926 30.1313 42.2926Z" fill="url(#paint6_linear_25_1126)"/>
<path d="M2.55321 40.2459C3.91936 40.2459 5.02685 39.1711 5.02685 37.8453C5.02685 36.5195 3.91936 35.4447 2.55321 35.4447C1.18706 35.4447 0.0795746 36.5195 0.0795746 37.8453C0.0795746 39.1711 1.18706 40.2459 2.55321 40.2459Z" fill="url(#paint7_linear_25_1126)"/>
<path d="M45.5335 47.3255C46.7495 47.3255 47.7352 46.3688 47.7352 45.1887C47.7352 44.0087 46.7495 43.052 45.5335 43.052C44.3175 43.052 43.3317 44.0087 43.3317 45.1887C43.3317 46.3688 44.3175 47.3255 45.5335 47.3255Z" fill="url(#paint8_linear_25_1126)"/>
<path d="M29.8793 49.0825C31.185 49.0825 32.2435 48.0552 32.2435 46.7881C32.2435 45.5209 31.185 44.4937 29.8793 44.4937C28.5736 44.4937 27.5151 45.5209 27.5151 46.7881C27.5151 48.0552 28.5736 49.0825 29.8793 49.0825Z" fill="url(#paint9_linear_25_1126)"/>
<path d="M30.2938 64.0236C34.1816 64.0236 37.3334 60.9649 37.3334 57.1918C37.3334 53.4187 34.1816 50.36 30.2938 50.36C26.4059 50.36 23.2542 53.4187 23.2542 57.1918C23.2542 60.9649 26.4059 64.0236 30.2938 64.0236Z" fill="url(#paint10_linear_25_1126)"/>
<path d="M53.6408 48.6159C56.2815 48.6159 58.4223 46.5383 58.4223 43.9756C58.4223 41.4128 56.2815 39.3352 53.6408 39.3352C51.0001 39.3352 48.8593 41.4128 48.8593 43.9756C48.8593 46.5383 51.0001 48.6159 53.6408 48.6159Z" fill="url(#paint11_linear_25_1126)"/>
<path d="M14.371 42.7238C17.2608 42.7238 19.6034 40.4503 19.6034 37.6458C19.6034 34.8413 17.2608 32.5678 14.371 32.5678C11.4812 32.5678 9.13852 34.8413 9.13852 37.6458C9.13852 40.4503 11.4812 42.7238 14.371 42.7238Z" fill="url(#paint12_linear_25_1126)"/>
<path d="M13.3397 13.3533C15.1765 13.3533 16.6656 11.9082 16.6656 10.1256C16.6656 8.34307 15.1765 6.89801 13.3397 6.89801C11.5029 6.89801 10.0139 8.34307 10.0139 10.1256C10.0139 11.9082 11.5029 13.3533 13.3397 13.3533Z" fill="url(#paint13_linear_25_1126)"/>
<path d="M4.95388 25.4722C6.93352 25.4722 8.53834 23.9148 8.53834 21.9936C8.53834 20.0724 6.93352 18.5149 4.95388 18.5149C2.97424 18.5149 1.36943 20.0724 1.36943 21.9936C1.36943 23.9148 2.97424 25.4722 4.95388 25.4722Z" fill="url(#paint14_linear_25_1126)"/>
<path d="M26.1191 12.3299C27.6189 12.3299 28.8348 11.15 28.8348 9.69442C28.8348 8.23886 27.6189 7.0589 26.1191 7.0589C24.6193 7.0589 23.4034 8.23886 23.4034 9.69442C23.4034 11.15 24.6193 12.3299 26.1191 12.3299Z" fill="url(#paint15_linear_25_1126)"/>
<path d="M41.0306 4.60037C41.9773 4.60037 42.7449 3.85551 42.7449 2.93668C42.7449 2.01784 41.9773 1.27298 41.0306 1.27298C40.0838 1.27298 39.3163 2.01784 39.3163 2.93668C39.3163 3.85551 40.0838 4.60037 41.0306 4.60037Z" fill="#124372"/>
<path d="M37.0946 8.0082C38.3527 8.0082 39.3726 7.01842 39.3726 5.79745C39.3726 4.57649 38.3527 3.5867 37.0946 3.5867C35.8365 3.5867 34.8166 4.57649 34.8166 5.79745C34.8166 7.01842 35.8365 8.0082 37.0946 8.0082Z" fill="url(#paint16_linear_25_1126)"/>
<path d="M22.2727 33.8518C24.0344 33.8518 25.4626 32.4658 25.4626 30.7561C25.4626 29.0464 24.0344 27.6604 22.2727 27.6604C20.511 27.6604 19.0828 29.0464 19.0828 30.7561C19.0828 32.4658 20.511 33.8518 22.2727 33.8518Z" fill="url(#paint17_linear_25_1126)"/>
<path d="M6.05147 47.9305C8.03477 47.9305 9.64256 46.3701 9.64256 44.4454C9.64256 42.5206 8.03477 40.9603 6.05147 40.9603C4.06817 40.9603 2.46039 42.5206 2.46039 44.4454C2.46039 46.3701 4.06817 47.9305 6.05147 47.9305Z" fill="url(#paint18_linear_25_1126)"/>
<path d="M5.16613 35.0618C7.4754 35.0618 9.34744 33.245 9.34744 31.0039C9.34744 28.7628 7.4754 26.946 5.16613 26.946C2.85685 26.946 0.984818 28.7628 0.984818 31.0039C0.984818 33.245 2.85685 35.0618 5.16613 35.0618Z" fill="url(#paint19_linear_25_1126)"/>
<path d="M13.6945 30.8076C15.8408 30.8076 17.5807 29.119 17.5807 27.0361C17.5807 24.9532 15.8408 23.2646 13.6945 23.2646C11.5483 23.2646 9.80835 24.9532 9.80835 27.0361C9.80835 29.119 11.5483 30.8076 13.6945 30.8076Z" fill="url(#paint20_linear_25_1126)"/>
<path d="M13.5354 21.7683C15.3245 21.7683 16.775 20.3607 16.775 18.6244C16.775 16.888 15.3245 15.4804 13.5354 15.4804C11.7462 15.4804 10.2958 16.888 10.2958 18.6244C10.2958 20.3607 11.7462 21.7683 13.5354 21.7683Z" fill="url(#paint21_linear_25_1126)"/>
<path d="M19.7725 16.4843C21.1314 16.4843 22.2329 15.4153 22.2329 14.0966C22.2329 12.7779 21.1314 11.7089 19.7725 11.7089C18.4137 11.7089 17.3121 12.7779 17.3121 14.0966C17.3121 15.4153 18.4137 16.4843 19.7725 16.4843Z" fill="url(#paint22_linear_25_1126)"/>
<path d="M37.3035 2.02278C37.7412 2.02278 38.096 1.67845 38.096 1.25369C38.096 0.828925 37.7412 0.484589 37.3035 0.484589C36.8658 0.484589 36.511 0.828925 36.511 1.25369C36.511 1.67845 36.8658 2.02278 37.3035 2.02278Z" fill="url(#paint23_linear_25_1126)"/>
<path d="M35.367 10.2286C35.8047 10.2286 36.1595 9.88429 36.1595 9.45953C36.1595 9.03477 35.8047 8.69043 35.367 8.69043C34.9294 8.69043 34.5746 9.03477 34.5746 9.45953C34.5746 9.88429 34.9294 10.2286 35.367 10.2286Z" fill="url(#paint24_linear_25_1126)"/>
<path d="M0.792492 27.2035C1.23017 27.2035 1.58498 26.8591 1.58498 26.4344C1.58498 26.0096 1.23017 25.6653 0.792492 25.6653C0.354811 25.6653 0 26.0096 0 26.4344C0 26.8591 0.354811 27.2035 0.792492 27.2035Z" fill="url(#paint25_linear_25_1126)"/>
<path d="M49.7645 6.6084C50.2132 6.6084 50.5769 6.25542 50.5769 5.81999C50.5769 5.38457 50.2132 5.03159 49.7645 5.03159C49.3159 5.03159 48.9521 5.38457 48.9521 5.81999C48.9521 6.25542 49.3159 6.6084 49.7645 6.6084Z" fill="#124372"/>
<path d="M32.7309 4.30432C33.9359 4.30432 34.9128 3.35631 34.9128 2.18689C34.9128 1.01746 33.9359 0.069458 32.7309 0.069458C31.5259 0.069458 30.5491 1.01746 30.5491 2.18689C30.5491 3.35631 31.5259 4.30432 32.7309 4.30432Z" fill="url(#paint26_linear_25_1126)"/>
<path d="M19.9284 7.84086C21.3861 7.84086 22.5678 6.69403 22.5678 5.27935C22.5678 3.86466 21.3861 2.71783 19.9284 2.71783C18.4706 2.71783 17.2889 3.86466 17.2889 5.27935C17.2889 6.69403 18.4706 7.84086 19.9284 7.84086Z" fill="url(#paint27_linear_25_1126)"/>
<path d="M7.11918 17.379C8.35714 17.379 9.36071 16.405 9.36071 15.2036C9.36071 14.0022 8.35714 13.0283 7.11918 13.0283C5.88122 13.0283 4.87766 14.0022 4.87766 15.2036C4.87766 16.405 5.88122 17.379 7.11918 17.379Z" fill="url(#paint28_linear_25_1126)"/>
<path d="M31.2056 8.40401C32.0553 8.40401 32.7442 7.73551 32.7442 6.91087C32.7442 6.08623 32.0553 5.41772 31.2056 5.41772C30.3559 5.41772 29.6671 6.08623 29.6671 6.91087C29.6671 7.73551 30.3559 8.40401 31.2056 8.40401Z" fill="url(#paint29_linear_25_1126)"/>
<path d="M31.4344 12.2656C32.0735 12.2656 32.5917 11.7628 32.5917 11.1425C32.5917 10.5223 32.0735 10.0194 31.4344 10.0194C30.7953 10.0194 30.2772 10.5223 30.2772 11.1425C30.2772 11.7628 30.7953 12.2656 31.4344 12.2656Z" fill="url(#paint30_linear_25_1126)"/>
<path d="M47.712 9.79419C48.4317 9.79419 49.0151 9.22798 49.0151 8.52953C49.0151 7.83107 48.4317 7.26486 47.712 7.26486C46.9923 7.26486 46.4089 7.83107 46.4089 8.52953C46.4089 9.22798 46.9923 9.79419 47.712 9.79419Z" fill="#124372"/>
<path d="M23.6587 45.3947C25.2593 45.3947 26.5568 44.1355 26.5568 42.5822C26.5568 41.0289 25.2593 39.7697 23.6587 39.7697C22.0582 39.7697 20.7607 41.0289 20.7607 42.5822C20.7607 44.1355 22.0582 45.3947 23.6587 45.3947Z" fill="url(#paint31_linear_25_1126)"/>
<path d="M45.9016 5.50462C46.5993 5.50462 47.1649 4.9557 47.1649 4.27857C47.1649 3.60144 46.5993 3.05252 45.9016 3.05252C45.2039 3.05252 44.6382 3.60144 44.6382 4.27857C44.6382 4.9557 45.2039 5.50462 45.9016 5.50462Z" fill="#124372"/>
<path d="M52.2083 9.68479C52.9958 9.68479 53.6341 9.06527 53.6341 8.30106C53.6341 7.53685 52.9958 6.91733 52.2083 6.91733C51.4209 6.91733 50.7825 7.53685 50.7825 8.30106C50.7825 9.06527 51.4209 9.68479 52.2083 9.68479Z" fill="#124372"/>
<path d="M42.3669 7.7701C42.9419 7.7701 43.408 7.31771 43.408 6.75965C43.408 6.2016 42.9419 5.74921 42.3669 5.74921C41.7918 5.74921 41.3257 6.2016 41.3257 6.75965C41.3257 7.31771 41.7918 7.7701 42.3669 7.7701Z" fill="#124372"/>
<path d="M55.2092 11.12C55.7055 11.12 56.1078 10.7296 56.1078 10.2479C56.1078 9.76629 55.7055 9.37585 55.2092 9.37585C54.7129 9.37585 54.3106 9.76629 54.3106 10.2479C54.3106 10.7296 54.7129 11.12 55.2092 11.12Z" fill="#124372"/>
<path d="M26.3744 37.7456C27.3304 37.7456 28.1053 36.9935 28.1053 36.0658C28.1053 35.1381 27.3304 34.386 26.3744 34.386C25.4185 34.386 24.6435 35.1381 24.6435 36.0658C24.6435 36.9935 25.4185 37.7456 26.3744 37.7456Z" fill="url(#paint32_linear_25_1126)"/>
<path d="M58.283 13.5592C58.5559 13.5592 58.7771 13.3446 58.7771 13.0798C58.7771 12.815 58.5559 12.6003 58.283 12.6003C58.0101 12.6003 57.7889 12.815 57.7889 13.0798C57.7889 13.3446 58.0101 13.5592 58.283 13.5592Z" fill="#124372"/>
<path d="M52.656 12.2044C52.9289 12.2044 53.1501 11.9897 53.1501 11.7249C53.1501 11.4601 52.9289 11.2455 52.656 11.2455C52.3831 11.2455 52.1619 11.4601 52.1619 11.7249C52.1619 11.9897 52.3831 12.2044 52.656 12.2044Z" fill="#124372"/>
<path d="M40.2016 9.06052C40.4744 9.06052 40.6956 8.84585 40.6956 8.58104C40.6956 8.31623 40.4744 8.10156 40.2016 8.10156C39.9287 8.10156 39.7075 8.31623 39.7075 8.58104C39.7075 8.84585 39.9287 9.06052 40.2016 9.06052Z" fill="#124372"/>
<path d="M45.066 7.55768C45.3388 7.55768 45.56 7.34301 45.56 7.0782C45.56 6.81339 45.3388 6.59872 45.066 6.59872C44.7931 6.59872 44.5719 6.81339 44.5719 7.0782C44.5719 7.34301 44.7931 7.55768 45.066 7.55768Z" fill="#124372"/>
<defs>
<linearGradient id="paint0_linear_25_1126" x1="39.356" y1="36.1623" x2="32.176" y2="10.2662" gradientUnits="userSpaceOnUse">
<stop stop-color="#00A9CB"/>
<stop offset="0.26" stop-color="#0493B8"/>
<stop offset="0.8" stop-color="#0E5A86"/>
<stop offset="1" stop-color="#124372"/>
</linearGradient>
<linearGradient id="paint1_linear_25_1126" x1="38.5536" y1="43.3191" x2="29.2468" y2="9.75943" gradientUnits="userSpaceOnUse">
<stop stop-color="#00A9CB"/>
<stop offset="0.26" stop-color="#0493B8"/>
<stop offset="0.8" stop-color="#0E5A86"/>
<stop offset="1" stop-color="#124372"/>
</linearGradient>
<linearGradient id="paint2_linear_25_1126" x1="31.3383" y1="34.6402" x2="24.4907" y2="9.94642" gradientUnits="userSpaceOnUse">
<stop stop-color="#00A9CB"/>
<stop offset="0.26" stop-color="#0493B8"/>
<stop offset="0.8" stop-color="#0E5A86"/>
<stop offset="1" stop-color="#124372"/>
</linearGradient>
<linearGradient id="paint3_linear_25_1126" x1="26.8983" y1="39.4704" x2="19.4015" y2="12.4269" gradientUnits="userSpaceOnUse">
<stop stop-color="#00A9CB"/>
<stop offset="0.26" stop-color="#0493B8"/>
<stop offset="0.8" stop-color="#0E5A86"/>
<stop offset="1" stop-color="#124372"/>
</linearGradient>
<linearGradient id="paint4_linear_25_1126" x1="13.542" y1="43.6119" x2="6.04517" y2="16.5684" gradientUnits="userSpaceOnUse">
<stop stop-color="#00A9CB"/>
<stop offset="0.26" stop-color="#0493B8"/>
<stop offset="0.8" stop-color="#0E5A86"/>
<stop offset="1" stop-color="#124372"/>
</linearGradient>
<linearGradient id="paint5_linear_25_1126" x1="34.7039" y1="36.6128" x2="27.2039" y2="9.56922" gradientUnits="userSpaceOnUse">
<stop stop-color="#00A9CB"/>
<stop offset="0.26" stop-color="#0493B8"/>
<stop offset="0.8" stop-color="#0E5A86"/>
<stop offset="1" stop-color="#124372"/>
</linearGradient>
<linearGradient id="paint6_linear_25_1126" x1="29.541" y1="38.3924" x2="21.5455" y2="9.55497" gradientUnits="userSpaceOnUse">
<stop stop-color="#00A9CB"/>
<stop offset="0.26" stop-color="#0493B8"/>
<stop offset="0.8" stop-color="#0E5A86"/>
<stop offset="1" stop-color="#124372"/>
</linearGradient>
<linearGradient id="paint7_linear_25_1126" x1="4.81132" y1="45.5073" x2="-2.68867" y2="18.4637" gradientUnits="userSpaceOnUse">
<stop stop-color="#00A9CB"/>
<stop offset="0.26" stop-color="#0493B8"/>
<stop offset="0.8" stop-color="#0E5A86"/>
<stop offset="1" stop-color="#124372"/>
</linearGradient>
<linearGradient id="paint8_linear_25_1126" x1="42.6255" y1="35.3031" x2="35.8312" y2="10.8064" gradientUnits="userSpaceOnUse">
<stop stop-color="#00A9CB"/>
<stop offset="0.26" stop-color="#0493B8"/>
<stop offset="0.8" stop-color="#0E5A86"/>
<stop offset="1" stop-color="#124372"/>
</linearGradient>
<linearGradient id="paint9_linear_25_1126" x1="27.6046" y1="39.0617" x2="20.3085" y2="12.7454" gradientUnits="userSpaceOnUse">
<stop stop-color="#00A9CB"/>
<stop offset="0.26" stop-color="#0493B8"/>
<stop offset="0.8" stop-color="#0E5A86"/>
<stop offset="1" stop-color="#124372"/>
</linearGradient>
<linearGradient id="paint10_linear_25_1126" x1="25.5421" y1="41.0472" x2="18.5409" y2="15.8039" gradientUnits="userSpaceOnUse">
<stop stop-color="#00A9CB"/>
<stop offset="0.26" stop-color="#0493B8"/>
<stop offset="0.8" stop-color="#0E5A86"/>
<stop offset="1" stop-color="#124372"/>
</linearGradient>
<linearGradient id="paint11_linear_25_1126" x1="50.6035" y1="33.6555" x2="43.5991" y2="8.39288" gradientUnits="userSpaceOnUse">
<stop stop-color="#00A9CB"/>
<stop offset="0.26" stop-color="#0493B8"/>
<stop offset="0.8" stop-color="#0E5A86"/>
<stop offset="1" stop-color="#124372"/>
</linearGradient>
<linearGradient id="paint12_linear_25_1126" x1="15.7636" y1="42.3794" x2="8.2668" y2="15.3359" gradientUnits="userSpaceOnUse">
<stop stop-color="#00A9CB"/>
<stop offset="0.26" stop-color="#0493B8"/>
<stop offset="0.8" stop-color="#0E5A86"/>
<stop offset="1" stop-color="#124372"/>
</linearGradient>
<linearGradient id="paint13_linear_25_1126" x1="22.9591" y1="42.8074" x2="14.6686" y2="12.9067" gradientUnits="userSpaceOnUse">
<stop stop-color="#00A9CB"/>
<stop offset="0.26" stop-color="#0493B8"/>
<stop offset="0.8" stop-color="#0E5A86"/>
<stop offset="1" stop-color="#124372"/>
</linearGradient>
<linearGradient id="paint14_linear_25_1126" x1="11.0451" y1="42.6787" x2="3.54514" y2="15.6351" gradientUnits="userSpaceOnUse">
<stop stop-color="#00A9CB"/>
<stop offset="0.26" stop-color="#0493B8"/>
<stop offset="0.8" stop-color="#0E5A86"/>
<stop offset="1" stop-color="#124372"/>
</linearGradient>
<linearGradient id="paint15_linear_25_1126" x1="34.17" y1="37.044" x2="26.67" y2="10.0004" gradientUnits="userSpaceOnUse">
<stop stop-color="#00A9CB"/>
<stop offset="0.26" stop-color="#0493B8"/>
<stop offset="0.8" stop-color="#0E5A86"/>
<stop offset="1" stop-color="#124372"/>
</linearGradient>
<linearGradient id="paint16_linear_25_1126" x1="45.3776" y1="33.9355" x2="37.8808" y2="6.89516" gradientUnits="userSpaceOnUse">
<stop stop-color="#00A9CB"/>
<stop offset="0.26" stop-color="#0493B8"/>
<stop offset="0.8" stop-color="#0E5A86"/>
<stop offset="1" stop-color="#124372"/>
</linearGradient>
<linearGradient id="paint17_linear_25_1126" x1="24.8591" y1="39.5412" x2="17.3591" y2="12.5008" gradientUnits="userSpaceOnUse">
<stop stop-color="#00A9CB"/>
<stop offset="0.26" stop-color="#0493B8"/>
<stop offset="0.8" stop-color="#0E5A86"/>
<stop offset="1" stop-color="#124372"/>
</linearGradient>
<linearGradient id="paint18_linear_25_1126" x1="6.2239" y1="45.0343" x2="-0.181365" y2="21.9404" gradientUnits="userSpaceOnUse">
<stop stop-color="#00A9CB"/>
<stop offset="0.26" stop-color="#0493B8"/>
<stop offset="0.8" stop-color="#0E5A86"/>
<stop offset="1" stop-color="#124372"/>
</linearGradient>
<linearGradient id="paint19_linear_25_1126" x1="8.99927" y1="44.0238" x2="1.50245" y2="16.9803" gradientUnits="userSpaceOnUse">
<stop stop-color="#00A9CB"/>
<stop offset="0.26" stop-color="#0493B8"/>
<stop offset="0.8" stop-color="#0E5A86"/>
<stop offset="1" stop-color="#124372"/>
</linearGradient>
<linearGradient id="paint20_linear_25_1126" x1="17.9654" y1="41.5363" x2="10.4686" y2="14.496" gradientUnits="userSpaceOnUse">
<stop stop-color="#00A9CB"/>
<stop offset="0.26" stop-color="#0493B8"/>
<stop offset="0.8" stop-color="#0E5A86"/>
<stop offset="1" stop-color="#124372"/>
</linearGradient>
<linearGradient id="paint21_linear_25_1126" x1="19.9648" y1="40.4745" x2="12.7315" y2="14.3844" gradientUnits="userSpaceOnUse">
<stop stop-color="#00A9CB"/>
<stop offset="0.26" stop-color="#0493B8"/>
<stop offset="0.8" stop-color="#0E5A86"/>
<stop offset="1" stop-color="#124372"/>
</linearGradient>
<linearGradient id="paint22_linear_25_1126" x1="27.1072" y1="39.0038" x2="19.6072" y2="11.9602" gradientUnits="userSpaceOnUse">
<stop stop-color="#00A9CB"/>
<stop offset="0.26" stop-color="#0493B8"/>
<stop offset="0.8" stop-color="#0E5A86"/>
<stop offset="1" stop-color="#124372"/>
</linearGradient>
<linearGradient id="paint23_linear_25_1126" x1="46.8963" y1="33.839" x2="39.3995" y2="6.79865" gradientUnits="userSpaceOnUse">
<stop stop-color="#00A9CB"/>
<stop offset="0.26" stop-color="#0493B8"/>
<stop offset="0.8" stop-color="#0E5A86"/>
<stop offset="1" stop-color="#124372"/>
</linearGradient>
<linearGradient id="paint24_linear_25_1126" x1="42.3768" y1="33.2661" x2="34.88" y2="6.22583" gradientUnits="userSpaceOnUse">
<stop stop-color="#00A9CB"/>
<stop offset="0.26" stop-color="#0493B8"/>
<stop offset="0.8" stop-color="#0E5A86"/>
<stop offset="1" stop-color="#124372"/>
</linearGradient>
<linearGradient id="paint25_linear_25_1126" x1="6.29352" y1="45.1244" x2="-1.2033" y2="18.0809" gradientUnits="userSpaceOnUse">
<stop stop-color="#00A9CB"/>
<stop offset="0.26" stop-color="#0493B8"/>
<stop offset="0.8" stop-color="#0E5A86"/>
<stop offset="1" stop-color="#124372"/>
</linearGradient>
<linearGradient id="paint26_linear_25_1126" x1="42.3072" y1="34.7174" x2="34.8103" y2="7.67393" gradientUnits="userSpaceOnUse">
<stop stop-color="#00A9CB"/>
<stop offset="0.26" stop-color="#0493B8"/>
<stop offset="0.8" stop-color="#0E5A86"/>
<stop offset="1" stop-color="#124372"/>
</linearGradient>
<linearGradient id="paint27_linear_25_1126" x1="29.4747" y1="37.7069" x2="21.9747" y2="10.6665" gradientUnits="userSpaceOnUse">
<stop stop-color="#00A9CB"/>
<stop offset="0.26" stop-color="#0493B8"/>
<stop offset="0.8" stop-color="#0E5A86"/>
<stop offset="1" stop-color="#124372"/>
</linearGradient>
<linearGradient id="paint28_linear_25_1126" x1="15.1668" y1="42.5468" x2="7.66997" y2="15.5033" gradientUnits="userSpaceOnUse">
<stop stop-color="#00A9CB"/>
<stop offset="0.26" stop-color="#0493B8"/>
<stop offset="0.8" stop-color="#0E5A86"/>
<stop offset="1" stop-color="#124372"/>
</linearGradient>
<linearGradient id="paint29_linear_25_1126" x1="39.4953" y1="35.0714" x2="31.9985" y2="8.02789" gradientUnits="userSpaceOnUse">
<stop stop-color="#00A9CB"/>
<stop offset="0.26" stop-color="#0493B8"/>
<stop offset="0.8" stop-color="#0E5A86"/>
<stop offset="1" stop-color="#124372"/>
</linearGradient>
<linearGradient id="paint30_linear_25_1126" x1="38.4972" y1="35.1326" x2="30.9972" y2="8.08895" gradientUnits="userSpaceOnUse">
<stop stop-color="#00A9CB"/>
<stop offset="0.26" stop-color="#0493B8"/>
<stop offset="0.8" stop-color="#0E5A86"/>
<stop offset="1" stop-color="#124372"/>
</linearGradient>
<linearGradient id="paint31_linear_25_1126" x1="22.9193" y1="40.0721" x2="15.4225" y2="13.0318" gradientUnits="userSpaceOnUse">
<stop stop-color="#00A9CB"/>
<stop offset="0.26" stop-color="#0493B8"/>
<stop offset="0.8" stop-color="#0E5A86"/>
<stop offset="1" stop-color="#124372"/>
</linearGradient>
<linearGradient id="paint32_linear_25_1126" x1="26.8884" y1="37.8099" x2="19.3916" y2="10.7664" gradientUnits="userSpaceOnUse">
<stop stop-color="#00A9CB"/>
<stop offset="0.26" stop-color="#0493B8"/>
<stop offset="0.8" stop-color="#0E5A86"/>
<stop offset="1" stop-color="#124372"/>
</linearGradient>
</defs>
</svg>
