<svg width="41" height="45" viewBox="0 0 41 45" fill="none" xmlns="http://www.w3.org/2000/svg">
<path d="M20.3566 44.5985C19.5662 44.6109 18.7863 44.4159 18.0948 44.033L17.4162 43.6485C12.1309 40.6583 7.73394 36.319 4.67418 31.0737C1.61441 25.8284 0.00151553 19.865 0.00018129 13.7925V13.4758C-0.00698855 12.6749 0.19863 11.8864 0.596021 11.191C0.993413 10.4955 1.56833 9.91808 2.262 9.51763L18.0948 0.606054C18.7824 0.209021 19.5625 0 20.3566 0C21.1506 0 21.9307 0.209021 22.6184 0.606054L38.4511 9.51763C39.1448 9.91808 39.7197 10.4955 40.1171 11.191C40.5145 11.8864 40.7201 12.6749 40.713 13.4758V13.7925C40.7071 19.8695 39.0874 25.8359 36.0194 31.0816C32.9515 36.3273 28.5454 40.6641 23.2517 43.6485L22.5732 44.033C21.8949 44.4083 21.1317 44.603 20.3566 44.5985ZM20.3566 4.56424L4.52382 13.4758V13.7925C4.52763 19.065 5.93294 24.2418 8.59579 28.7924C11.2586 33.3431 15.0833 37.1042 19.678 39.6903L20.3566 40.0748L21.0351 39.6903C25.6298 37.1042 29.4545 33.3431 32.1174 28.7924C34.7802 24.2418 36.1855 19.065 36.1893 13.7925V13.4758L20.3566 4.56424Z" fill="#00A9CB"/>
</svg>
