<svg width="275" height="157" viewBox="0 0 275 157" fill="none" xmlns="http://www.w3.org/2000/svg">
<g clip-path="url(#clip0_17_590)">
<path d="M218.951 61.5403H275L265.87 68.1009V81.0067C265.87 82.495 264.659 83.7014 263.164 83.7014H218.951C217.456 83.7014 216.244 82.495 216.244 81.0067V64.235C216.244 62.7467 217.456 61.5403 218.951 61.5403Z" fill="#F5F5F5"/>
<path d="M221.287 70.6625C221.287 70.7173 229.74 70.7604 240.168 70.7604C250.596 70.7604 259.049 70.7173 259.049 70.6625C259.049 70.6077 250.596 70.5646 240.168 70.5646C229.74 70.5646 221.287 70.6077 221.287 70.6625Z" fill="#E0E0E0"/>
<path d="M221.287 75.6172C221.287 75.672 229.74 75.7151 240.168 75.7151C250.596 75.7151 259.049 75.672 259.049 75.6172C259.049 75.5624 250.596 75.5193 240.168 75.5193C229.74 75.5193 221.287 75.5624 221.287 75.6172Z" fill="#E0E0E0"/>
<path d="M133.824 13.9124H131.2V22.6624H133.824V13.9124Z" fill="#E0E0E0"/>
<path d="M111.914 12.6433H109.29V22.6585H111.914V12.6433Z" fill="#E0E0E0"/>
<path d="M117.394 10.5557H114.77V22.6585H117.394V10.5557Z" fill="#E0E0E0"/>
<path d="M122.869 11.2216H120.245V22.6625H122.869V11.2216Z" fill="#E0E0E0"/>
<path d="M128.345 7.35168H125.721V22.6624H128.345V7.35168Z" fill="#E0E0E0"/>
<path d="M139.3 7.42615H136.676V22.6624H139.3V7.42615Z" fill="#E0E0E0"/>
<path d="M144.779 12.4279H142.155V22.6585H144.779V12.4279Z" fill="#E0E0E0"/>
<path d="M150.255 8.09595H147.631V22.6624H150.255V8.09595Z" fill="#E0E0E0"/>
<path d="M155.734 4.81372H153.11V22.6585H155.734V4.81372Z" fill="#E0E0E0"/>
<path d="M161.21 8.02148H158.586V22.6624H161.21V8.02148Z" fill="#E0E0E0"/>
<path d="M230.322 21.8516L252.016 18.5498C253.833 30.398 245.538 41.6392 233.638 43.4487C221.739 45.2583 210.45 36.9978 208.633 25.1495C206.815 13.3013 215.111 2.06016 227.01 0.250614C228.906 -0.039227 230.83 -0.0783947 232.734 0.133111L230.326 21.8516H230.322Z" fill="#EBEBEB"/>
<path d="M237.36 0.199707L234.724 16.9439L251.229 13.8575C251.229 13.8575 248.802 4.47291 237.356 0.199707H237.36Z" fill="#E0E0E0"/>
<path d="M8.83087 62.4647C8.73646 56.5347 13.4843 51.6309 19.4122 51.533C25.344 51.439 30.2452 56.1861 30.3396 62.1161C30.434 68.0461 25.6862 72.9499 19.7583 73.0478C13.8265 73.1418 8.92527 68.3947 8.83087 62.4647ZM24.7264 62.2101C24.6792 59.3744 22.3388 57.1026 19.5027 57.1496C16.6665 57.1966 14.3969 59.5389 14.4441 62.3746C14.4913 65.2104 16.8318 67.4821 19.6679 67.4351C22.504 67.3881 24.7736 65.0459 24.7264 62.2101Z" fill="#F5F5F5"/>
<path d="M8.83087 62.4647C8.73646 56.5347 13.4843 51.6309 19.4122 51.533L19.5027 57.1457C16.6665 57.1927 14.3969 59.5349 14.4441 62.3707C14.4913 65.2064 16.8318 67.4781 19.6679 67.4311L19.7583 73.0439C13.8265 73.1379 8.92527 68.3908 8.83087 62.4608V62.4647Z" fill="#E0E0E0"/>
<path d="M18.4485 50.6713C25.3873 50.5617 30.9218 55.9198 31.032 62.8603L24.4668 62.9661C24.4118 59.6486 21.8785 57.557 18.5625 57.6119L18.4524 50.6713H18.4485Z" fill="#EBEBEB"/>
<path d="M78.7068 100.242H65.0338V116.426H78.7068V100.242Z" fill="#F5F5F5"/>
<path d="M65.5097 99.1844H3.7251V117.441H65.5097V99.1844Z" fill="#E0E0E0"/>
<path d="M79.1199 100.72H63.8498V99.1844H79.1199C79.5447 99.1844 79.8909 99.5291 79.8909 99.9521C79.8909 100.375 79.5447 100.72 79.1199 100.72Z" fill="#E0E0E0"/>
<path d="M79.1199 117.441H63.8498V115.905H79.1199C79.5447 115.905 79.8909 116.25 79.8909 116.673C79.8909 117.096 79.5447 117.441 79.1199 117.441Z" fill="#E0E0E0"/>
<path d="M60.6518 99.1844H53.351V117.441H60.6518V99.1844Z" fill="#EBEBEB"/>
<path d="M16.8986 99.3881H9.59792V117.644H16.8986V99.3881Z" fill="#EBEBEB"/>
<path d="M78.7069 102.917C78.7069 102.96 75.7488 102.999 72.0984 102.999C68.4481 102.999 65.4901 102.964 65.4901 102.917C65.4901 102.87 68.4481 102.835 72.0984 102.835C75.7488 102.835 78.7069 102.87 78.7069 102.917Z" fill="#E0E0E0"/>
<path d="M78.7069 105.346C78.7069 105.389 75.7488 105.428 72.0984 105.428C68.4481 105.428 65.4901 105.393 65.4901 105.346C65.4901 105.299 68.4481 105.263 72.0984 105.263C75.7488 105.263 78.7069 105.299 78.7069 105.346Z" fill="#E0E0E0"/>
<path d="M78.7069 108.33C78.7069 108.373 75.7488 108.412 72.0984 108.412C68.4481 108.412 65.4901 108.377 65.4901 108.33C65.4901 108.283 68.4481 108.248 72.0984 108.248C75.7488 108.248 78.7069 108.283 78.7069 108.33Z" fill="#E0E0E0"/>
<path d="M78.7069 111.319C78.7069 111.362 75.7488 111.401 72.0984 111.401C68.4481 111.401 65.4901 111.366 65.4901 111.319C65.4901 111.272 68.4481 111.236 72.0984 111.236C75.7488 111.236 78.7069 111.272 78.7069 111.319Z" fill="#E0E0E0"/>
<path d="M78.7069 114.307C78.7069 114.35 75.7488 114.389 72.0984 114.389C68.4481 114.389 65.4901 114.354 65.4901 114.307C65.4901 114.26 68.4481 114.225 72.0984 114.225C75.7488 114.225 78.7069 114.26 78.7069 114.307Z" fill="#E0E0E0"/>
<path d="M49.4254 106.689H21.6307V109.975H49.4254V106.689Z" fill="#EBEBEB"/>
<path d="M78.5692 117.801H64.6876V127.663H78.5692V117.801Z" fill="#FAFAFA"/>
<path d="M64.845 117.441H5.77055V128.016H64.845V117.441Z" fill="#F5F5F5"/>
<path d="M64.4122 118.157H79.3323C79.529 118.157 79.6902 117.997 79.6902 117.801C79.6902 117.605 79.529 117.444 79.3323 117.444H64.4122V118.161V118.157Z" fill="#F5F5F5"/>
<path d="M64.4122 127.303H79.525C79.6155 127.303 79.6902 127.377 79.6902 127.467V127.855C79.6902 127.945 79.6155 128.02 79.525 128.02H64.4122V127.303Z" fill="#F5F5F5"/>
<path d="M78.5692 119.673C78.5692 119.716 75.4971 119.755 71.7051 119.755C67.9131 119.755 64.841 119.72 64.841 119.673C64.841 119.626 67.9131 119.591 71.7051 119.591C75.4971 119.591 78.5692 119.626 78.5692 119.673Z" fill="#E0E0E0"/>
<path d="M78.5692 121.537C78.5692 121.581 75.4971 121.62 71.7051 121.62C67.9131 121.62 64.841 121.584 64.841 121.537C64.841 121.49 67.9131 121.455 71.7051 121.455C75.4971 121.455 78.5692 121.49 78.5692 121.537Z" fill="#E0E0E0"/>
<path d="M78.5692 123.402C78.5692 123.445 75.4971 123.484 71.7051 123.484C67.9131 123.484 64.841 123.449 64.841 123.402C64.841 123.355 67.9131 123.32 71.7051 123.32C75.4971 123.32 78.5692 123.355 78.5692 123.402Z" fill="#E0E0E0"/>
<path d="M78.5692 125.27C78.5692 125.313 75.4971 125.352 71.7051 125.352C67.9131 125.352 64.841 125.317 64.841 125.27C64.841 125.223 67.9131 125.188 71.7051 125.188C75.4971 125.188 78.5692 125.223 78.5692 125.27Z" fill="#E0E0E0"/>
<path d="M80.6736 128.956H66.5049V155.688H80.6736V128.956Z" fill="#EBEBEB"/>
<path d="M66.5049 128.016H0V157H66.5049V128.016Z" fill="#E0E0E0"/>
<path d="M81.7829 157H64.6876V155.12H81.7829C82.3061 155.12 82.727 155.539 82.727 156.06C82.727 156.581 82.3061 157 81.7829 157Z" fill="#E0E0E0"/>
<path d="M64.6876 128.016H82.2943C82.5342 128.016 82.727 128.208 82.727 128.447V129.465C82.727 129.704 82.5342 129.896 82.2943 129.896H64.6876V128.016Z" fill="#E0E0E0"/>
<path d="M80.6736 132.54C80.6736 132.583 77.5032 132.622 73.5893 132.622C69.6754 132.622 66.5049 132.587 66.5049 132.54C66.5049 132.493 69.6754 132.457 73.5893 132.457C77.5032 132.457 80.6736 132.493 80.6736 132.54Z" fill="#E0E0E0"/>
<path d="M80.6736 135.971C80.6736 136.014 77.5032 136.053 73.5893 136.053C69.6754 136.053 66.5049 136.018 66.5049 135.971C66.5049 135.924 69.6754 135.889 73.5893 135.889C77.5032 135.889 80.6736 135.924 80.6736 135.971Z" fill="#E0E0E0"/>
<path d="M80.6736 139.398C80.6736 139.441 77.5032 139.48 73.5893 139.48C69.6754 139.48 66.5049 139.445 66.5049 139.398C66.5049 139.351 69.6754 139.316 73.5893 139.316C77.5032 139.316 80.6736 139.351 80.6736 139.398Z" fill="#E0E0E0"/>
<path d="M80.6736 142.825C80.6736 142.868 77.5032 142.907 73.5893 142.907C69.6754 142.907 66.5049 142.872 66.5049 142.825C66.5049 142.778 69.6754 142.743 73.5893 142.743C77.5032 142.743 80.6736 142.778 80.6736 142.825Z" fill="#E0E0E0"/>
<path d="M80.6736 146.252C80.6736 146.295 77.5032 146.335 73.5893 146.335C69.6754 146.335 66.5049 146.299 66.5049 146.252C66.5049 146.205 69.6754 146.17 73.5893 146.17C77.5032 146.17 80.6736 146.205 80.6736 146.252Z" fill="#E0E0E0"/>
<path d="M80.6736 149.683C80.6736 149.727 77.5032 149.766 73.5893 149.766C69.6754 149.766 66.5049 149.73 66.5049 149.683C66.5049 149.636 69.6754 149.601 73.5893 149.601C77.5032 149.601 80.6736 149.636 80.6736 149.683Z" fill="#E0E0E0"/>
<path d="M80.6736 153.111C80.6736 153.154 77.5032 153.193 73.5893 153.193C69.6754 153.193 66.5049 153.158 66.5049 153.111C66.5049 153.064 69.6754 153.028 73.5893 153.028C77.5032 153.028 80.6736 153.064 80.6736 153.111Z" fill="#E0E0E0"/>
<path d="M22.7557 144.094V145.708C22.7557 147.651 21.7802 148.759 19.8999 148.759C18.0197 148.759 17.0442 147.651 17.0442 145.708V139.394C17.0442 137.451 18.0197 136.343 19.8999 136.343C21.7802 136.343 22.7557 137.451 22.7557 139.394V140.573H20.9463V139.273C20.9463 138.407 20.5647 138.078 19.955 138.078C19.3453 138.078 18.9638 138.407 18.9638 139.273V145.829C18.9638 146.695 19.3453 147.008 19.955 147.008C20.5647 147.008 20.9463 146.695 20.9463 145.829V144.094H22.7557Z" fill="#EBEBEB"/>
<path d="M23.7666 139.394C23.7666 137.451 24.7933 136.343 26.6736 136.343C28.5538 136.343 29.5805 137.451 29.5805 139.394V145.708C29.5805 147.651 28.5538 148.759 26.6736 148.759C24.7933 148.759 23.7666 147.651 23.7666 145.708V139.394ZM25.6823 145.829C25.6823 146.695 26.0639 147.024 26.6736 147.024C27.2833 147.024 27.6648 146.695 27.6648 145.829V139.273C27.6648 138.407 27.2833 138.078 26.6736 138.078C26.0639 138.078 25.6823 138.407 25.6823 139.273V145.829Z" fill="#EBEBEB"/>
<path d="M30.8156 136.484H32.7313V146.887H35.8821V148.622H30.8156V136.484Z" fill="#EBEBEB"/>
<path d="M36.5626 139.394C36.5626 137.451 37.5892 136.343 39.4695 136.343C41.3497 136.343 42.3764 137.451 42.3764 139.394V145.708C42.3764 147.651 41.3497 148.759 39.4695 148.759C37.5892 148.759 36.5626 147.651 36.5626 145.708V139.394ZM38.4782 145.829C38.4782 146.695 38.8598 147.024 39.4695 147.024C40.0792 147.024 40.4607 146.695 40.4607 145.829V139.273C40.4607 138.407 40.0792 138.078 39.4695 138.078C38.8598 138.078 38.4782 138.407 38.4782 139.273V145.829Z" fill="#EBEBEB"/>
<path d="M45.4446 136.484V145.849C45.4446 146.715 45.8261 147.028 46.4358 147.028C47.0455 147.028 47.4271 146.715 47.4271 145.849V136.484H49.2365V145.727C49.2365 147.67 48.261 148.779 46.3808 148.779C44.5005 148.779 43.525 147.67 43.525 145.727V136.484H45.4406H45.4446Z" fill="#EBEBEB"/>
<path d="M54.5508 148.622C54.4446 148.309 54.3777 148.121 54.3777 147.13V145.222C54.3777 144.094 53.9962 143.679 53.1229 143.679H52.4621V148.622H50.5464V136.484H53.4376C55.424 136.484 56.2776 137.404 56.2776 139.277V140.228C56.2776 141.478 55.8764 142.292 55.0228 142.692C55.9826 143.091 56.2934 144.008 56.2934 145.277V147.149C56.2934 147.741 56.3091 148.172 56.5018 148.622H54.5508ZM52.4621 138.219V141.948H53.2094C53.9254 141.948 54.358 141.634 54.358 140.663V139.468C54.358 138.603 54.063 138.219 53.3825 138.219H52.4581H52.4621Z" fill="#EBEBEB"/>
<path d="M22.3427 121.608H20.9463L21.021 121.248H24.2269L24.1482 121.608H22.7557L22.0359 125.188H21.6228L22.3427 121.608Z" fill="#E0E0E0"/>
<path d="M26.9174 122.227L24.7461 125.572C24.3803 126.136 24.101 126.308 23.6722 126.308C23.3969 126.308 23.1137 126.214 22.9642 126.042L23.1805 125.748C23.3104 125.881 23.4795 125.963 23.7076 125.963C23.9633 125.963 24.16 125.846 24.3921 125.486L24.6006 125.172L23.8611 122.227H24.2662L24.8838 124.749L26.5084 122.227H26.9214H26.9174Z" fill="#E0E0E0"/>
<path d="M30.2216 123.453C30.2216 124.471 29.5097 125.215 28.5381 125.215C27.9716 125.215 27.5783 124.984 27.4052 124.569L27.0669 126.281H26.6657L27.476 122.227H27.8615L27.7671 122.701C28.0503 122.387 28.4476 122.207 28.9275 122.207C29.6906 122.207 30.2295 122.681 30.2295 123.457L30.2216 123.453ZM29.8165 123.476C29.8165 122.897 29.4585 122.552 28.837 122.552C28.0975 122.552 27.5547 123.132 27.5547 123.942C27.5547 124.522 27.9126 124.859 28.5341 124.859C29.2737 124.859 29.8165 124.279 29.8165 123.472V123.476Z" fill="#E0E0E0"/>
<path d="M30.6897 123.962C30.6897 122.955 31.4096 122.207 32.4087 122.207C33.2348 122.207 33.7619 122.693 33.7619 123.457C33.7619 124.471 33.042 125.219 32.0429 125.219C31.2168 125.219 30.6897 124.726 30.6897 123.966V123.962ZM33.3606 123.476C33.3606 122.897 33.0027 122.552 32.3812 122.552C31.6417 122.552 31.091 123.136 31.091 123.942C31.091 124.522 31.4489 124.859 32.0704 124.859C32.8099 124.859 33.3606 124.279 33.3606 123.472V123.476Z" fill="#E0E0E0"/>
<path d="M37.6089 122.227L37.0897 124.828C36.8812 125.873 36.3265 126.308 35.3589 126.308C34.8003 126.308 34.3401 126.151 34.0372 125.862L34.2732 125.556C34.5092 125.799 34.9105 125.952 35.3864 125.952C36.1377 125.952 36.535 125.607 36.6766 124.894L36.7435 124.565C36.4603 124.882 36.0591 125.074 35.5556 125.074C34.7688 125.074 34.2417 124.62 34.2417 123.88C34.2417 122.928 34.9498 122.203 35.9371 122.203C36.4839 122.203 36.9284 122.427 37.0975 122.877L37.2234 122.223H37.6089V122.227ZM36.9323 123.414C36.9323 122.873 36.5665 122.552 35.9489 122.552C35.1976 122.552 34.6548 123.104 34.6548 123.856C34.6548 124.397 35.0167 124.718 35.6382 124.718C36.3855 124.718 36.9323 124.166 36.9323 123.41V123.414Z" fill="#E0E0E0"/>
<path d="M40.2326 122.203L40.1578 122.591C40.1185 122.591 40.091 122.583 40.0438 122.583C39.4105 122.583 38.9856 122.944 38.8401 123.68L38.5411 125.184H38.1399L38.73 122.223H39.1155L39.0132 122.763C39.2807 122.376 39.6701 122.199 40.2365 122.199L40.2326 122.203Z" fill="#E0E0E0"/>
<path d="M43.643 122.227L43.049 125.188H42.6635L42.7579 124.722C42.4747 125.031 42.0814 125.215 41.5975 125.215C40.8344 125.215 40.3034 124.741 40.3034 123.962C40.3034 122.948 41.0154 122.207 41.983 122.207C42.5495 122.207 42.9428 122.438 43.112 122.85L43.2378 122.231H43.6391L43.643 122.227ZM42.9743 123.476C42.9743 122.897 42.6163 122.552 41.9948 122.552C41.2553 122.552 40.7046 123.136 40.7046 123.942C40.7046 124.522 41.0626 124.859 41.6841 124.859C42.4236 124.859 42.9743 124.279 42.9743 123.472V123.476Z" fill="#E0E0E0"/>
<path d="M47.5018 123.453C47.5018 124.471 46.7899 125.215 45.8183 125.215C45.2518 125.215 44.8585 124.984 44.6854 124.569L44.3471 126.281H43.9459L44.7562 122.227H45.1417L45.0473 122.701C45.3305 122.387 45.7278 122.207 46.2077 122.207C46.9708 122.207 47.5097 122.681 47.5097 123.457L47.5018 123.453ZM47.0967 123.476C47.0967 122.897 46.7387 122.552 46.1172 122.552C45.3777 122.552 44.8349 123.132 44.8349 123.942C44.8349 124.522 45.1928 124.859 45.8143 124.859C46.5538 124.859 47.0967 124.279 47.0967 123.472V123.476Z" fill="#E0E0E0"/>
<path d="M51.101 123.167C51.101 123.273 51.0892 123.386 51.0656 123.504L50.7274 125.188H50.3261L50.6644 123.5C50.6802 123.406 50.6919 123.316 50.6919 123.229C50.6919 122.806 50.4363 122.564 49.9249 122.564C49.2916 122.564 48.855 122.908 48.7134 123.598L48.3987 125.184H47.9975L48.8353 121.005H49.2365L48.9022 122.665C49.1854 122.344 49.5827 122.199 50.039 122.199C50.7116 122.199 51.101 122.56 51.101 123.163V123.167Z" fill="#E0E0E0"/>
<path d="M54.8615 122.227L52.6902 125.572C52.3244 126.136 52.0451 126.308 51.6163 126.308C51.341 126.308 51.0578 126.214 50.9083 126.042L51.1246 125.748C51.2545 125.881 51.4236 125.963 51.6517 125.963C51.9074 125.963 52.1041 125.846 52.3362 125.486L52.5447 125.172L51.8051 122.227H52.2103L52.8279 124.749L54.4524 122.227H54.8655H54.8615Z" fill="#E0E0E0"/>
<path d="M63.8222 0.501353H3.48514L13.3151 7.5633V21.4561C13.3151 23.0581 14.6211 24.3584 16.2299 24.3584H63.8222C65.431 24.3584 66.737 23.0581 66.737 21.4561V3.39977C66.737 1.79781 65.431 0.497437 63.8222 0.497437V0.501353Z" fill="#F5F5F5"/>
<path d="M61.3047 10.3207C61.3047 10.3795 52.2064 10.4265 40.98 10.4265C29.7535 10.4265 20.6552 10.3795 20.6552 10.3207C20.6552 10.262 29.7535 10.215 40.98 10.215C52.2064 10.215 61.3047 10.262 61.3047 10.3207Z" fill="#E0E0E0"/>
<path d="M61.3047 15.6553C61.3047 15.7141 52.2064 15.7611 40.98 15.7611C29.7535 15.7611 20.6552 15.7141 20.6552 15.6553C20.6552 15.5966 29.7535 15.5496 40.98 15.5496C52.2064 15.5496 61.3047 15.5966 61.3047 15.6553Z" fill="#E0E0E0"/>
<path d="M219.855 33.7861H48.3829C45.2177 33.7861 42.6517 36.3411 42.6517 39.4929V148.536C42.6517 151.688 45.2177 154.243 48.3829 154.243H219.855C223.021 154.243 225.586 151.688 225.586 148.536V39.4929C225.586 36.3411 223.021 33.7861 219.855 33.7861Z" fill="#455A64"/>
<path d="M36.6648 146.46H234.858V150.028C234.858 153.874 231.723 157 227.856 157H43.6666C39.8038 157 36.6648 153.878 36.6648 150.028V146.46Z" fill="#455A64"/>
<path d="M116.088 145.332L118.546 149.225H153.154L155.435 145.332H116.088Z" fill="#263238"/>
<path d="M224.013 145.332C224.013 145.399 183.411 145.449 133.336 145.449C83.2619 145.449 42.6517 145.399 42.6517 145.332C42.6517 145.265 83.2462 145.214 133.336 145.214C183.426 145.214 224.013 145.265 224.013 145.332Z" fill="#263238"/>
<path d="M49.1775 40.7109H218.341C219.053 40.7109 219.627 41.2867 219.627 41.9917V140.863C219.627 141.572 219.049 142.144 218.341 142.144H49.1775C48.4656 142.144 47.8913 141.568 47.8913 140.863V41.9917C47.8913 41.2828 48.4695 40.7109 49.1775 40.7109Z" fill="#EBEBEB"/>
<path d="M219.45 142.296H47.7064L47.8912 48.2938H219.45V142.296Z" fill="white"/>
<path d="M61.9774 44.6278C61.9774 45.3838 61.3637 45.9948 60.6046 45.9948C59.8454 45.9948 59.2317 45.3838 59.2317 44.6278C59.2317 43.8719 59.8454 43.2609 60.6046 43.2609C61.3637 43.2609 61.9774 43.8719 61.9774 44.6278Z" fill="#263238"/>
<path d="M53.6657 44.6278C53.6657 45.3838 53.0521 45.9948 52.2929 45.9948C51.5337 45.9948 50.9201 45.3838 50.9201 44.6278C50.9201 43.8719 51.5337 43.2609 52.2929 43.2609C53.0521 43.2609 53.6657 43.8719 53.6657 44.6278Z" fill="#263238"/>
<path d="M57.6544 44.6278C57.6544 45.3838 57.0407 45.9948 56.2816 45.9948C55.5224 45.9948 54.9087 45.3838 54.9087 44.6278C54.9087 43.8719 55.5224 43.2609 56.2816 43.2609C57.0407 43.2609 57.6544 43.8719 57.6544 44.6278Z" fill="#263238"/>
<path d="M219.631 133.217H47.7064V142.296H219.631V133.217Z" fill="#263238"/>
<path d="M54.2046 138.807V139.096H52.8357V138.865L53.5753 138.168C53.7562 137.996 53.7877 137.89 53.7877 137.784C53.7877 137.616 53.6697 137.518 53.4415 137.518C53.2606 137.518 53.1111 137.581 53.0049 137.71L52.7649 137.526C52.9065 137.334 53.1662 137.22 53.469 137.22C53.8742 137.22 54.1338 137.424 54.1338 137.753C54.1338 137.933 54.0827 138.098 53.827 138.337L53.3314 138.807H54.2086H54.2046Z" fill="white"/>
<path d="M54.3895 137.89C54.3895 137.757 54.4879 137.671 54.6059 137.671C54.7239 137.671 54.8222 137.757 54.8222 137.89C54.8222 138.023 54.7239 138.109 54.6059 138.109C54.4879 138.109 54.3895 138.015 54.3895 137.89ZM54.3895 138.897C54.3895 138.764 54.4879 138.677 54.6059 138.677C54.7239 138.677 54.8222 138.764 54.8222 138.897C54.8222 139.03 54.7239 139.116 54.6059 139.116C54.4879 139.116 54.3895 139.022 54.3895 138.897Z" fill="white"/>
<path d="M55.6876 137.248V139.096H55.3414V137.534H54.9481V137.244H55.6837L55.6876 137.248Z" fill="white"/>
<path d="M57.7134 138.677H57.383V139.097H57.0486V138.677H56.0298V138.439L56.9463 137.248H57.3161L56.4546 138.388H57.0643V138.015H57.3869V138.388H57.7173V138.677H57.7134Z" fill="white"/>
<path d="M201.662 137.937H60.7462V138.576H201.662V137.937Z" fill="white"/>
<path d="M104.676 137.248H60.64V138.956H104.676V137.248Z" fill="#196BC1"/>
<path d="M106.1 138.258C106.1 139.437 105.14 140.393 103.956 140.393C102.772 140.393 101.813 139.437 101.813 138.258C101.813 137.079 102.772 136.124 103.956 136.124C105.14 136.124 106.1 137.079 106.1 138.258Z" fill="#196BC1"/>
<path d="M205.211 138.239C205.211 138.607 204.912 138.838 204.53 138.838C204.023 138.838 203.728 138.513 203.728 137.917C203.728 137.283 204.097 136.934 204.636 136.934C204.821 136.934 204.998 136.974 205.124 137.052L204.998 137.31C204.896 137.244 204.774 137.22 204.644 137.22C204.294 137.22 204.074 137.436 204.074 137.859C204.184 137.733 204.365 137.667 204.569 137.667C204.935 137.667 205.211 137.89 205.211 138.235V138.239ZM204.876 138.254C204.876 138.062 204.731 137.941 204.506 137.941C204.282 137.941 204.129 138.074 204.129 138.258C204.129 138.442 204.266 138.572 204.514 138.572C204.731 138.572 204.876 138.45 204.876 138.258V138.254Z" fill="white"/>
<path d="M205.38 137.604C205.38 137.471 205.478 137.385 205.596 137.385C205.714 137.385 205.812 137.471 205.812 137.604C205.812 137.737 205.714 137.823 205.596 137.823C205.478 137.823 205.38 137.729 205.38 137.604ZM205.38 138.611C205.38 138.478 205.478 138.391 205.596 138.391C205.714 138.391 205.812 138.478 205.812 138.611C205.812 138.744 205.714 138.83 205.596 138.83C205.478 138.83 205.38 138.736 205.38 138.611Z" fill="white"/>
<path d="M206.037 137.886C206.037 137.279 206.371 136.934 206.812 136.934C207.252 136.934 207.59 137.279 207.59 137.886C207.59 138.493 207.256 138.838 206.812 138.838C206.367 138.838 206.037 138.493 206.037 137.886ZM207.24 137.886C207.24 137.44 207.067 137.232 206.812 137.232C206.556 137.232 206.383 137.44 206.383 137.886C206.383 138.333 206.56 138.54 206.812 138.54C207.063 138.54 207.24 138.333 207.24 137.886Z" fill="white"/>
<path d="M207.819 137.886C207.819 137.279 208.153 136.934 208.593 136.934C209.034 136.934 209.372 137.279 209.372 137.886C209.372 138.493 209.038 138.838 208.593 138.838C208.149 138.838 207.819 138.493 207.819 137.886ZM209.022 137.886C209.022 137.44 208.849 137.232 208.593 137.232C208.338 137.232 208.165 137.44 208.165 137.886C208.165 138.333 208.342 138.54 208.593 138.54C208.845 138.54 209.022 138.333 209.022 137.886Z" fill="white"/>
<path d="M212.374 137.773H211.732V135.928H213.577V136.566H212.374V137.773Z" fill="white"/>
<path d="M213.581 140.177H211.729V138.337H212.37V139.539H213.581V140.177Z" fill="white"/>
<path d="M216.531 140.177H214.683V139.539H215.886V138.333H216.531V140.177Z" fill="white"/>
<path d="M216.531 137.769H215.89V136.566H214.679V135.928H216.531V137.769Z" fill="white"/>
<path d="M71.2606 53.8831H61.1356L56.077 62.6096L61.1356 71.3401H71.2606L76.3192 62.6096L71.2606 53.8831Z" fill="#EBEBEB"/>
<path d="M61.9616 64.3174C61.5093 63.8199 61.053 63.3147 60.7226 62.7271C60.3921 62.1396 60.1955 61.4581 60.3056 60.7923C60.3685 60.4045 60.5337 60.0363 60.5613 59.6446C60.5967 59.1041 60.3685 58.5401 60.5613 58.0348C60.8602 57.2437 61.9302 57.1222 62.5792 56.5778C63.0827 56.1509 63.3305 55.4615 63.8851 55.1051C64.369 54.7918 64.9944 54.7996 65.5648 54.8818C66.1351 54.9641 66.7134 55.1051 67.2838 55.0307C67.6928 54.9758 68.0744 54.8113 68.4756 54.7134C68.8769 54.6155 69.3213 54.5881 69.6754 54.7957C70.0294 55.0033 70.23 55.5046 69.9979 55.8415C70.6627 55.5359 71.5045 56.053 71.6854 56.7541C71.8664 57.4591 71.5045 58.2189 70.942 58.685C70.3795 59.1511 69.6518 59.3665 68.9359 59.4997C66.9061 59.8796 64.6994 59.6642 62.949 58.5714" fill="#263238"/>
<path d="M71.3471 66.4755C71.2803 65.2261 70.9262 62.6645 70.584 60.3497C70.2143 57.8586 67.9839 56.0725 65.4625 56.241L65.2108 56.2566C62.5202 56.5935 61.3047 59.0571 61.7178 61.7284L62.5084 71.3441H69.0775C69.0775 71.3441 68.9241 69.6559 68.9201 69.6403C68.9201 69.6403 71.4888 69.0645 71.3471 66.4794V66.4755Z" fill="#FFBE9D"/>
<path d="M68.9201 69.5972C68.9201 69.5972 67.2877 69.84 65.4704 68.8647C65.4704 68.8647 66.3948 70.6704 68.9713 70.2669L68.9201 69.5972Z" fill="#EB996E"/>
<path d="M69.7462 62.5666C69.7658 62.7624 69.6164 62.9386 69.4118 62.9621C69.2073 62.9856 69.0263 62.8486 69.0067 62.6566C68.987 62.4608 69.1365 62.2845 69.3371 62.261C69.5416 62.2375 69.7226 62.3746 69.7422 62.5705L69.7462 62.5666Z" fill="#263238"/>
<path d="M70.112 61.65C70.0687 61.7009 69.7737 61.5129 69.3764 61.5404C68.9791 61.5639 68.6998 61.7871 68.6526 61.7401C68.629 61.7205 68.6723 61.6304 68.7903 61.5286C68.9083 61.4268 69.1168 61.3249 69.3646 61.3093C69.6124 61.2936 69.8288 61.3719 69.9547 61.4581C70.0845 61.5443 70.1317 61.6265 70.1081 61.65H70.112Z" fill="#263238"/>
<path d="M65.9778 62.8329C65.9975 63.0287 65.848 63.205 65.6435 63.2285C65.4389 63.252 65.258 63.1149 65.2383 62.923C65.2186 62.7272 65.3681 62.5509 65.5687 62.5274C65.7733 62.5039 65.9542 62.641 65.9739 62.8368L65.9778 62.8329Z" fill="#263238"/>
<path d="M66.1942 61.983C66.1509 62.0339 65.8559 61.8459 65.4586 61.8734C65.0613 61.8969 64.782 62.1201 64.7348 62.0731C64.7112 62.0535 64.7545 61.9634 64.8764 61.8616C64.9944 61.7598 65.2029 61.6579 65.4507 61.6423C65.6985 61.6266 65.9149 61.7049 66.0407 61.7911C66.1706 61.8773 66.2178 61.9595 66.1942 61.983Z" fill="#263238"/>
<path d="M67.8384 64.8344C67.8384 64.8109 68.0783 64.7521 68.4796 64.6738C68.5818 64.6581 68.6762 64.6307 68.688 64.5602C68.7077 64.4858 68.6566 64.38 68.6015 64.2625C68.4874 64.0236 68.3734 63.7729 68.2475 63.5105C67.7558 62.4373 67.39 61.556 67.4332 61.5365C67.4765 61.5169 67.9131 62.3707 68.4048 63.4439C68.5228 63.7103 68.6369 63.9609 68.7471 64.2038C68.7943 64.3174 68.869 64.4427 68.8257 64.5994C68.8021 64.6777 68.7313 64.7365 68.6684 64.76C68.6054 64.7835 68.5464 64.7874 68.4953 64.7952C68.0941 64.8422 67.8423 64.8618 67.8384 64.8383V64.8344Z" fill="#263238"/>
<path d="M66.1902 60.4202C66.1588 60.5298 65.7575 60.5063 65.2934 60.5925C64.8253 60.6708 64.4595 60.8314 64.3886 60.7413C64.3572 60.6982 64.4162 60.5925 64.5617 60.475C64.7073 60.3614 64.9393 60.2439 65.2186 60.1969C65.4979 60.146 65.7575 60.1734 65.9345 60.2321C66.1115 60.2909 66.202 60.3692 66.1902 60.4202Z" fill="#263238"/>
<path d="M69.8878 60.5103C69.8248 60.6043 69.5416 60.5299 69.2112 60.5455C68.8808 60.5534 68.6054 60.6474 68.5346 60.5573C68.5032 60.5142 68.5425 60.4202 68.6566 60.3262C68.7706 60.2322 68.9673 60.1499 69.1955 60.1421C69.4236 60.1343 69.6242 60.2009 69.7462 60.287C69.8681 60.3732 69.9153 60.4633 69.8839 60.5103H69.8878Z" fill="#263238"/>
<path d="M62.06 63.6241C62.0128 63.6084 60.2387 63.2167 60.4157 64.9832C60.5927 66.7457 62.5123 66.1739 62.5084 66.123C62.5084 66.0721 62.06 63.628 62.06 63.628V63.6241Z" fill="#FFBE9D"/>
<path d="M61.7217 65.5395C61.7217 65.5395 61.6942 65.563 61.643 65.5943C61.5958 65.6217 61.5093 65.6452 61.4109 65.6217C61.2182 65.5708 61.0294 65.2927 60.99 64.9755C60.9704 64.8149 60.99 64.6582 61.0333 64.5289C61.0726 64.3958 61.1513 64.2979 61.2418 64.2704C61.3323 64.2391 61.407 64.29 61.4306 64.337C61.4581 64.384 61.4503 64.4193 61.4621 64.4232C61.466 64.4271 61.4975 64.3919 61.4739 64.3174C61.4621 64.2822 61.4385 64.243 61.3913 64.2156C61.3441 64.1843 61.2811 64.1725 61.2143 64.1882C61.0805 64.2117 60.9664 64.3488 60.9192 64.4937C60.8642 64.6386 60.8366 64.8149 60.8602 64.995C60.9074 65.3475 61.1238 65.6648 61.3873 65.7118C61.5132 65.7314 61.6155 65.6844 61.6666 65.6374C61.7178 65.5865 61.7217 65.5473 61.7177 65.5473L61.7217 65.5395Z" fill="#EB996E"/>
<path d="M70.4542 57.933C70.3323 58.6341 68.9044 59.2765 67.7165 59.2451C66.6229 59.2138 66.084 58.6733 65.2894 58.2894C64.9538 58.1276 64.5591 58.0832 64.1054 58.1563C63.5547 58.2464 63.2676 58.8926 62.9568 59.3548C63.5469 60.6356 63.3069 62.124 63.0591 63.5105C63.0316 63.6633 62.9962 63.8278 62.8782 63.9335C62.6776 64.1098 62.355 64.004 62.1623 63.8238C61.8476 63.5379 61.706 63.1149 61.6037 62.7036C61.3677 61.7675 61.2811 60.7883 61.4267 59.8366C61.5762 58.8848 61.9695 57.9565 62.6264 57.2476C63.4446 56.3585 64.6365 55.8454 65.848 55.7827C67.0556 55.72 68.2711 56.0921 69.282 56.7541C69.7501 57.0596 70.1907 57.4395 70.4542 57.933Z" fill="#263238"/>
<path d="M68.102 65.7274C67.7991 65.5864 67.5001 65.4493 67.1972 65.3083C67.1461 65.2848 67.091 65.2613 67.032 65.2652C66.9691 65.273 66.9179 65.32 66.8747 65.3709C66.6662 65.6216 66.6111 66.0055 66.7763 66.2914C66.9376 66.5773 67.3192 66.7262 67.6221 66.6008C67.9407 66.4676 68.098 66.0995 68.1216 65.7548L68.098 65.7274H68.102Z" fill="#EB996E"/>
<path d="M67.6535 66.6674C67.6535 66.6674 67.4647 66.8123 67.1225 66.7144C66.9573 66.6635 66.7724 66.5382 66.6544 66.3345C66.5364 66.1347 66.4931 65.8527 66.5954 65.5981C66.6426 65.4728 66.7213 65.3592 66.8157 65.273C66.8629 65.2299 66.9101 65.1908 66.9691 65.1594C67.0281 65.1164 67.15 65.1124 67.2051 65.1477C67.4096 65.2613 67.5512 65.3592 67.6889 65.4493C67.9525 65.6255 68.1098 65.743 68.0941 65.7705C68.0783 65.794 67.8974 65.7195 67.6142 65.5746C67.449 65.4885 67.2916 65.4062 67.1343 65.3239C67.0949 65.3122 67.0989 65.3122 67.0635 65.3318C67.0281 65.3553 66.9848 65.3866 66.9533 65.4219C66.8825 65.4924 66.8235 65.5785 66.7881 65.6765C66.7095 65.8723 66.737 66.0877 66.8235 66.2522C66.9101 66.4167 67.0438 66.5264 67.1776 66.5852C67.449 66.7027 67.6496 66.64 67.6574 66.6713L67.6535 66.6674Z" fill="#263238"/>
<path d="M67.3664 62.6096C67.3467 62.6096 67.3506 62.4451 67.268 62.171C67.1893 61.9007 67.0005 61.5051 66.5914 61.2035C66.1941 60.9019 65.5451 60.7335 64.9197 60.9685C64.2982 61.1839 63.7632 61.842 63.7711 62.6096C63.7632 63.3773 64.2982 64.0353 64.9197 64.2508C65.5451 64.4858 66.1941 64.3174 66.5914 64.0158C67.0005 63.7142 67.1933 63.3186 67.268 63.0483C67.3467 62.7741 67.3428 62.6057 67.3664 62.6096C67.3742 62.6096 67.3782 62.6488 67.3821 62.7271C67.386 62.8055 67.3821 62.923 67.3467 63.0679C67.2877 63.3577 67.1107 63.7886 66.678 64.1293C66.261 64.4701 65.549 64.6738 64.8528 64.427C64.1605 64.1999 63.5547 63.4674 63.5626 62.6096C63.5547 61.7519 64.1605 61.0194 64.8528 60.7923C65.553 60.5416 66.261 60.7453 66.678 61.0899C67.1107 61.4307 67.2877 61.8655 67.3467 62.1514C67.3782 62.2963 67.386 62.4138 67.3821 62.4921C67.3821 62.5705 67.3742 62.6096 67.3664 62.6096Z" fill="#263238"/>
<path d="M71.7838 62.4374C71.7641 62.4374 71.7641 62.2768 71.6894 62.0105C71.6146 61.748 71.4297 61.3642 71.0285 61.0704C70.643 60.7767 70.0097 60.6161 69.4 60.8433C68.7942 61.0509 68.275 61.6932 68.2829 62.4413C68.275 63.1894 68.7982 63.8279 69.4 64.0394C70.0097 64.2665 70.643 64.1059 71.0285 63.8122C71.4297 63.5184 71.6146 63.1346 71.6894 62.8722C71.768 62.6019 71.7641 62.4413 71.7838 62.4452C71.7916 62.4452 71.7956 62.4844 71.7995 62.5627C71.8034 62.6372 71.7995 62.7507 71.768 62.8957C71.713 63.1777 71.5399 63.5968 71.119 63.9336C70.7138 64.2665 70.0215 64.4663 69.3371 64.2234C68.6605 64.0002 68.0705 63.2873 68.0783 62.4491C68.0705 61.611 68.6605 60.8981 69.3371 60.6748C70.0176 60.432 70.7099 60.6318 71.119 60.9647C71.5399 61.2976 71.713 61.7206 71.768 62.0026C71.7995 62.1436 71.8034 62.2572 71.7995 62.3356C71.7995 62.41 71.7916 62.4531 71.7838 62.4531V62.4374Z" fill="#263238"/>
<path d="M68.1806 62.03C68.1413 62.0691 67.9643 61.9555 67.7282 61.9634C67.4922 61.9634 67.3231 62.0848 67.2798 62.0456C67.2248 62.0182 67.39 61.7636 67.7243 61.7558C68.0587 61.7519 68.2317 61.9986 68.1806 62.026V62.03Z" fill="#263238"/>
<path d="M63.779 62.3472C63.8144 62.3942 63.4682 62.7036 63.0119 63.0444C62.5556 63.3852 62.1544 63.6241 62.1229 63.5771C62.0875 63.5301 62.4337 63.2207 62.89 62.8799C63.3463 62.5391 63.7475 62.3002 63.779 62.3472Z" fill="#263238"/>
<path d="M100.29 62.5235C100.29 62.5783 95.7392 62.6253 90.126 62.6253C84.5128 62.6253 79.9617 62.5783 79.9617 62.5235C79.9617 62.4686 84.5128 62.4216 90.126 62.4216C95.7392 62.4216 100.29 62.4686 100.29 62.5235Z" fill="#263238"/>
<path d="M90.8891 64.6386C90.8891 64.6934 88.4739 64.7404 85.4923 64.7404C82.5106 64.7404 80.0954 64.6934 80.0954 64.6386C80.0954 64.5837 82.5106 64.5367 85.4923 64.5367C88.4739 64.5367 90.8891 64.5837 90.8891 64.6386Z" fill="#263238"/>
<path d="M161.182 78.171C161.182 78.171 166.583 80.7913 168.483 87.5595C170.383 94.3277 176.189 111.953 176.189 111.953C176.189 111.953 179.509 115.843 179.867 118.721C180.221 121.6 179.513 128.568 178.443 129.869C177.377 131.169 175.854 130.953 175.854 130.953L161.878 129.634L156.375 92.9412L161.182 78.171Z" fill="#196BC1"/>
<path d="M114.97 77.5287C114.97 77.5287 104.979 80.6504 102.489 83.3647L110.671 121.267L110.541 133.225H157.917C157.917 132.634 158.342 93.5209 158.342 93.5209L161.186 78.171L144.346 75.2178L141.026 72.621L122.291 73.5649L119.447 76.3967L114.974 77.5248L114.97 77.5287Z" fill="#196BC1"/>
<g opacity="0.3">
<path d="M118.766 110.41C118.621 110.089 118.412 109.74 118.066 109.67C117.496 109.552 117.114 110.226 116.922 110.77C115.383 115.11 113.346 119.101 110.699 122.869L110.577 128.69C113.338 126.375 116.06 123.895 117.822 120.758C119.585 117.621 120.257 113.684 118.77 110.41H118.766Z" fill="black"/>
</g>
<path d="M102.485 83.3685C102.485 83.3685 99.1929 87.8376 97.824 90.7556C96.4551 93.6736 85.1264 118.177 84.4459 120.707C83.7615 123.237 82.0032 131.208 87.1798 133.057H97.824L108.508 111.542L109.054 86.5724L102.481 83.3685H102.485Z" fill="#196BC1"/>
<path d="M98.5085 117.515C98.5085 117.515 98.2725 117.307 97.7808 117.029C97.293 116.755 96.5299 116.438 95.5465 116.223C95.0548 116.117 94.508 116.031 93.918 115.995C93.328 115.96 92.6947 115.968 92.0496 116.117C90.7593 116.403 89.477 117.217 88.4661 118.357C87.4394 119.497 86.81 120.844 86.4363 122.113C86.0587 123.386 85.8974 124.581 85.7952 125.58C85.6968 126.582 85.6575 127.397 85.6221 127.961C85.6064 128.224 85.5906 128.439 85.5828 128.611C85.571 128.76 85.5631 128.838 85.5552 128.838C85.5474 128.838 85.5434 128.76 85.5434 128.611C85.5434 128.439 85.5434 128.224 85.5434 127.961C85.5552 127.397 85.571 126.578 85.6496 125.568C85.7322 124.561 85.8817 123.355 86.2515 122.058C86.6173 120.77 87.2585 119.387 88.3087 118.22C89.3433 117.053 90.6649 116.219 92.0063 115.933C92.675 115.784 93.328 115.78 93.9259 115.827C94.5238 115.87 95.0784 115.964 95.574 116.081C96.5692 116.316 97.3323 116.657 97.8162 116.959C98.0561 117.112 98.2331 117.249 98.3433 117.351C98.4534 117.452 98.5085 117.511 98.5006 117.515H98.5085Z" fill="#263238"/>
<path d="M93.4617 113.23C93.4617 113.23 93.5876 113.195 93.8197 113.171C94.0517 113.144 94.39 113.136 94.807 113.16C95.2239 113.179 95.7196 113.25 96.2585 113.375C96.7934 113.508 97.3756 113.704 97.9538 113.974C98.5281 114.252 99.0474 114.577 99.4879 114.91C99.9246 115.251 100.29 115.588 100.57 115.901C100.849 116.211 101.057 116.477 101.179 116.673C101.305 116.869 101.372 116.978 101.36 116.986C101.329 117.01 101.042 116.583 100.463 115.999C100.176 115.705 99.8066 115.384 99.3739 115.063C98.9333 114.746 98.4259 114.432 97.8634 114.162C97.2969 113.896 96.7344 113.704 96.2113 113.563C95.6842 113.43 95.2043 113.348 94.7952 113.312C93.977 113.234 93.4656 113.277 93.4617 113.238V113.23Z" fill="#263238"/>
<path d="M103.083 112.051C103.083 112.051 102.906 112.051 102.592 112.012C102.277 111.973 101.821 111.926 101.258 111.883C100.133 111.796 98.5675 111.777 96.8524 111.981C95.1413 112.188 93.623 112.576 92.5491 112.921C92.0102 113.093 91.5775 113.246 91.2825 113.359C90.9875 113.469 90.8183 113.524 90.8144 113.512C90.8105 113.5 90.9639 113.418 91.255 113.285C91.5421 113.148 91.9669 112.975 92.5058 112.783C93.5758 112.4 95.102 111.984 96.8328 111.777C98.5596 111.573 100.145 111.616 101.274 111.738C101.84 111.796 102.297 111.867 102.607 111.93C102.918 111.992 103.091 112.031 103.087 112.047L103.083 112.051Z" fill="#263238"/>
<path d="M133.407 91.1159C133.407 91.1159 133.368 91.0767 133.297 90.9867C133.222 90.8848 133.124 90.7556 133.006 90.5989C132.746 90.2385 132.384 89.7411 131.936 89.1223C131.016 87.8297 129.737 86.0319 128.227 83.913L128.392 83.8895C127.818 85.5658 127.184 87.4185 126.519 89.3651L126.476 89.4865L126.37 89.416C126.299 89.3729 126.224 89.322 126.15 89.275C125.269 88.7188 124.49 88.0491 123.833 87.3245C123.176 86.5959 122.629 85.8204 122.177 85.0449C121.272 83.4899 120.725 81.9585 120.356 80.662C119.986 79.3617 119.793 78.2806 119.667 77.5404C119.604 77.1839 119.557 76.9019 119.518 76.6865C119.498 76.5886 119.478 76.5181 119.467 76.4672C119.447 76.4241 119.439 76.3967 119.443 76.3967C119.486 76.3771 119.6 76.7883 119.746 77.5286C119.899 78.265 120.112 79.3382 120.497 80.6268C120.883 81.9115 121.437 83.4273 122.342 84.9548C122.794 85.7186 123.333 86.4784 123.982 87.1952C124.635 87.9041 125.398 88.5622 126.26 89.1066C126.335 89.1536 126.409 89.2006 126.476 89.2437L126.327 89.2985C126.999 87.3519 127.637 85.5032 128.215 83.8307L128.274 83.6544L128.38 83.8072C129.863 85.9418 131.122 87.7553 132.026 89.0596C132.459 89.6902 132.801 90.1994 133.053 90.5676C133.163 90.7321 133.25 90.8652 133.321 90.971C133.38 91.065 133.407 91.112 133.403 91.1159H133.407Z" fill="#263238"/>
<g opacity="0.3">
<path d="M145.739 109.208C145.298 113.59 146.27 118.103 148.477 121.917C150.679 125.736 153.913 129.136 157.937 130.965C158.067 127.076 157.878 122.493 158.008 118.604L145.739 109.208Z" fill="black"/>
</g>
<path d="M145.294 104.088C145.294 104.088 143.575 104.562 144.866 108.076C146.156 111.585 146.585 111.373 147.446 114.66C148.308 117.942 149.311 120.942 150.817 122.799C152.324 124.655 157.917 128.439 157.917 128.439L162.936 123.727C162.936 123.727 162.11 120.214 162.307 117.828C162.504 115.443 163.007 109.587 162.936 108.589C162.866 107.59 161.788 105.161 161.788 105.161V103.501L159.207 95.5928C159.207 95.5928 157.772 94.9504 157.272 97.2339L156.411 94.8094C156.411 94.8094 155.05 94.594 154.692 97.3788C154.334 100.164 154.979 104.018 154.979 104.018L154.263 108.875L153.189 112.157L152.257 112.298C152.257 112.298 150.853 111.918 150.085 109.286C149.318 106.658 147.238 103.516 145.302 104.088H145.294Z" fill="#FFBE9D"/>
<path d="M161.253 116.504C161.253 116.504 161.241 116.442 161.229 116.324C161.221 116.187 161.21 116.015 161.194 115.799C161.166 115.322 161.131 114.66 161.088 113.833C161.009 112.129 160.903 109.756 160.777 106.987L160.801 107.045C160.568 106.771 160.159 106.689 159.786 106.783C159.404 106.873 159.066 107.108 158.853 107.461C158.417 108.162 158.389 109.078 158.256 109.963C157.984 111.965 157.724 113.868 157.488 115.608C157.37 116.473 157.245 117.3 157.071 118.063C156.906 118.827 156.674 119.524 156.45 120.147C156.23 120.77 156.033 121.334 155.911 121.843C155.789 122.352 155.738 122.799 155.75 123.167C155.766 123.903 155.982 124.279 155.946 124.287C155.939 124.287 155.899 124.197 155.825 124.013C155.766 123.825 155.683 123.543 155.667 123.171C155.644 122.799 155.683 122.337 155.797 121.82C155.911 121.303 156.1 120.731 156.312 120.104C156.529 119.477 156.749 118.792 156.906 118.032C157.068 117.276 157.186 116.454 157.3 115.588C157.532 113.849 157.783 111.945 158.051 109.944C158.114 109.497 158.161 109.059 158.24 108.616C158.318 108.177 158.44 107.739 158.684 107.363C158.912 106.979 159.314 106.697 159.738 106.599C160.159 106.493 160.659 106.587 160.946 106.932L160.966 106.959V106.991C161.064 109.76 161.143 112.133 161.202 113.841C161.221 114.668 161.241 115.329 161.253 115.811C161.253 116.027 161.257 116.199 161.257 116.336C161.257 116.454 161.257 116.516 161.249 116.516L161.253 116.504Z" fill="#EB996E"/>
<path d="M158.507 107.508C158.507 107.508 158.417 107.355 158.295 107.061C158.177 106.767 158.019 106.333 157.874 105.78C157.728 105.232 157.591 104.562 157.512 103.814C157.473 103.438 157.445 103.039 157.492 102.623C157.536 102.208 157.658 101.77 157.925 101.401C158.153 101.08 158.476 100.822 158.842 100.716L158.92 100.692L158.96 100.763C159.687 102.04 160.317 103.168 160.761 103.979C160.966 104.358 161.135 104.676 161.276 104.938C161.394 105.165 161.454 105.291 161.442 105.299C161.43 105.306 161.351 105.189 161.214 104.973C161.06 104.723 160.871 104.413 160.647 104.045C160.171 103.25 159.518 102.138 158.783 100.865L158.901 100.912C158.586 101.006 158.299 101.229 158.094 101.523C157.854 101.86 157.736 102.259 157.693 102.651C157.65 103.046 157.669 103.434 157.701 103.802C157.768 104.543 157.886 105.205 158.016 105.753C158.141 106.301 158.275 106.74 158.37 107.041C158.464 107.343 158.519 107.508 158.507 107.515V107.508Z" fill="#EB996E"/>
<path d="M157.308 108.15C157.308 108.15 157.276 107.989 157.26 107.696C157.249 107.359 157.229 106.944 157.209 106.454C157.174 105.404 157.142 103.955 157.119 102.353C157.107 100.751 157.044 99.2981 157.182 98.2445C157.249 97.7196 157.355 97.3005 157.449 97.0224C157.544 96.7404 157.622 96.5955 157.634 96.6033C157.669 96.6151 157.414 97.2222 157.323 98.264C157.225 99.302 157.308 100.751 157.323 102.353C157.347 103.955 157.355 105.404 157.355 106.454C157.351 106.944 157.343 107.359 157.339 107.7C157.331 107.993 157.319 108.154 157.308 108.158V108.15Z" fill="#EB996E"/>
<path d="M153.063 121.314C153.036 121.291 153.346 120.923 153.736 120.253C153.933 119.92 154.133 119.505 154.318 119.035C154.495 118.557 154.656 118.02 154.766 117.445C154.869 116.865 154.904 116.309 154.904 115.799C154.896 115.29 154.853 114.832 154.786 114.456C154.656 113.696 154.491 113.242 154.526 113.23C154.538 113.226 154.589 113.336 154.668 113.54C154.751 113.743 154.841 114.049 154.928 114.429C155.014 114.812 155.073 115.279 155.093 115.796C155.105 116.317 155.069 116.888 154.967 117.48C154.857 118.071 154.688 118.62 154.495 119.101C154.294 119.579 154.074 119.998 153.858 120.327C153.645 120.656 153.453 120.911 153.303 121.071C153.158 121.236 153.071 121.322 153.059 121.31L153.063 121.314Z" fill="#EB996E"/>
<path d="M161.874 118.858L166.229 120.362C166.229 120.362 170.387 118.22 173.254 120.362C176.122 122.505 178.612 128.149 177.825 130.432C177.825 130.432 175.846 132.865 174.34 133.221C172.833 133.578 166.98 132.168 164.545 131.655C162.103 131.141 157.909 128.427 157.909 128.427L161.87 118.854L161.874 118.858Z" fill="#FFBE9D"/>
<path d="M162.409 125.251C162.409 125.251 162.378 125.114 162.362 124.867C162.346 124.573 162.323 124.224 162.299 123.821C162.252 122.936 162.193 121.714 162.173 120.359C162.154 119.003 162.193 117.777 162.276 116.892C162.315 116.45 162.362 116.093 162.405 115.846C162.449 115.6 162.48 115.467 162.496 115.47C162.527 115.474 162.46 116.019 162.417 116.9C162.374 117.781 162.358 119.003 162.378 120.355C162.401 121.679 162.425 122.877 162.441 123.817C162.445 124.26 162.441 124.62 162.441 124.867C162.433 125.114 162.421 125.251 162.409 125.251Z" fill="#EB996E"/>
<path d="M176.771 120.194C176.739 120.225 176.291 119.607 175.323 118.894C174.367 118.181 172.818 117.421 170.985 117.319C169.148 117.221 167.523 117.805 166.496 118.408C165.454 119.011 164.943 119.575 164.915 119.54C164.907 119.532 165.029 119.387 165.273 119.152C165.517 118.917 165.902 118.604 166.422 118.283C167.448 117.636 169.108 117.014 170.996 117.115C172.884 117.221 174.466 118.024 175.414 118.776C175.894 119.152 176.244 119.509 176.46 119.767C176.68 120.026 176.783 120.186 176.775 120.19L176.771 120.194Z" fill="#263238"/>
<path d="M176.212 116.579C176.185 116.622 175.603 116.034 174.399 115.584C173.215 115.122 171.378 114.91 169.494 115.439C168.554 115.701 167.692 116.074 166.957 116.489C166.221 116.908 165.607 117.366 165.12 117.781C164.632 118.196 164.258 118.561 164.002 118.811C163.747 119.066 163.605 119.203 163.593 119.195C163.586 119.187 163.707 119.031 163.947 118.757C164.187 118.486 164.545 118.106 165.029 117.672C165.509 117.237 166.123 116.759 166.866 116.324C167.61 115.893 168.483 115.506 169.443 115.239C171.374 114.699 173.258 114.942 174.454 115.447C175.06 115.694 175.508 115.98 175.795 116.199C175.945 116.305 176.043 116.406 176.114 116.469C176.185 116.536 176.22 116.571 176.212 116.575V116.579Z" fill="#263238"/>
<path d="M176.248 113.445C176.236 113.485 175.477 113.254 174.21 113.085C173.577 112.995 172.818 112.944 171.976 112.944C171.134 112.956 170.21 113.026 169.25 113.187C168.294 113.359 167.401 113.61 166.603 113.884C165.812 114.17 165.116 114.476 164.553 114.777C163.424 115.369 162.787 115.843 162.763 115.811C162.756 115.799 162.909 115.678 163.2 115.463C163.342 115.353 163.523 115.228 163.739 115.094C163.955 114.961 164.199 114.797 164.482 114.652C165.041 114.335 165.741 114.013 166.536 113.712C167.338 113.426 168.243 113.167 169.211 112.991C170.182 112.827 171.118 112.76 171.972 112.76C172.825 112.772 173.593 112.838 174.226 112.948C174.544 112.987 174.828 113.062 175.079 113.113C175.331 113.163 175.544 113.222 175.713 113.273C176.059 113.375 176.244 113.438 176.24 113.449L176.248 113.445Z" fill="#263238"/>
<path d="M142.879 75.0885C142.879 75.0885 143.08 75.4645 143.182 76.24C143.288 77.0116 143.273 78.171 143.017 79.6045C142.887 80.3213 142.714 81.1086 142.454 81.9507C142.183 82.7928 141.774 83.6545 141.31 84.5553C140.373 86.3571 139.189 88.3194 137.825 90.4148L137.663 90.6616V90.3678C137.663 88.9852 137.659 87.5321 137.655 86.0202L137.809 86.0946C136.637 87.0347 135.405 88.0256 134.135 89.0479L134.166 89.0009C133.317 91.6878 132.754 94.6802 132.534 97.794C132.176 102.561 132.463 107.12 132.691 111.256C132.884 115.396 133.01 119.129 133.14 122.258C133.266 125.392 133.38 127.922 133.474 129.673C133.525 130.538 133.564 131.216 133.592 131.686C133.608 131.909 133.62 132.081 133.627 132.211C133.635 132.328 133.631 132.391 133.631 132.391C133.631 132.391 133.62 132.332 133.604 132.215C133.592 132.089 133.572 131.913 133.549 131.694C133.505 131.235 133.45 130.554 133.391 129.681C133.273 127.93 133.136 125.399 132.994 122.266C132.852 119.133 132.687 115.404 132.498 111.268C132.262 107.136 131.967 102.565 132.325 97.7823C132.55 94.6567 133.112 91.6486 133.974 88.946L133.981 88.9186L134.005 88.899C135.276 87.8807 136.511 86.8937 137.683 85.9536L137.836 85.8322V86.0281C137.836 87.536 137.832 88.9891 137.828 90.3757L137.667 90.3287C140.37 86.1573 142.568 82.5304 142.907 79.5967C143.178 78.1749 143.21 77.0273 143.119 76.2557C143.08 75.8679 143.005 75.582 142.958 75.3862C142.895 75.1943 142.871 75.0963 142.871 75.0963L142.879 75.0885Z" fill="#263238"/>
<path d="M135.822 125.615H135.681C135.11 125.627 134.603 126.144 134.603 126.712C134.603 127.28 135.106 127.8 135.673 127.82C136.243 127.84 136.782 127.354 136.818 126.79C136.857 126.226 136.385 125.674 135.818 125.619L135.822 125.615Z" fill="white"/>
<path d="M135.822 110.52H135.681C135.11 110.531 134.603 111.048 134.603 111.616C134.603 112.184 135.106 112.705 135.673 112.725C136.243 112.744 136.782 112.259 136.818 111.695C136.857 111.131 136.385 110.578 135.818 110.524L135.822 110.52Z" fill="white"/>
<path d="M135.677 97.0146C136.247 97.0342 136.786 96.5485 136.821 95.9845C136.861 95.4205 136.389 94.8682 135.822 94.8134H135.681C135.11 94.8251 134.603 95.3421 134.603 95.91C134.603 96.478 135.106 96.9989 135.673 97.0185L135.677 97.0146Z" fill="white"/>
<path d="M118.692 57.4003C117.311 55.8806 115.922 54.3413 114.915 52.5553C113.908 50.7692 113.311 48.6816 113.645 46.6605C113.838 45.4777 114.345 44.3536 114.424 43.155C114.534 41.51 113.842 39.7905 114.424 38.2512C115.34 35.8424 118.597 35.4703 120.572 33.8057C122.11 32.5092 122.857 30.4059 124.553 29.3131C126.032 28.3614 127.932 28.3809 129.674 28.6277C131.417 28.8745 133.171 29.3131 134.918 29.0781C136.161 28.9097 137.333 28.4123 138.552 28.1107C139.772 27.8091 141.129 27.7308 142.214 28.3575C143.3 28.9841 143.91 30.5195 143.198 31.5496C145.22 30.6213 147.788 32.192 148.343 34.3384C148.898 36.4848 147.788 38.8074 146.073 40.2214C144.358 41.6392 142.144 42.2973 139.957 42.7085C133.761 43.8718 127.043 43.2138 121.705 39.8767" fill="#263238"/>
<path d="M140.472 78.1397C140.169 75.8053 139.921 73.8586 139.905 73.6158C139.905 73.6158 147.741 71.8611 147.308 63.9727C147.1 60.1617 146.026 52.3399 144.976 45.2779C143.847 37.695 137.046 32.2507 129.363 32.7599L128.6 32.8108C120.395 33.837 116.689 41.3533 117.948 49.4884L122.373 76.7766C122.373 76.7766 124.262 82.8124 128.305 83.8581L133.403 91.112L134.245 87.9903L138.045 84.6963C138.045 84.6963 138.918 83.7563 139.917 81.9193C140.735 80.4153 140.562 78.8721 140.464 78.1397H140.472Z" fill="#FFBE9D"/>
<path d="M139.909 73.4983C139.909 73.4983 134.933 74.2386 129.391 71.2657C129.391 71.2657 132.211 76.7767 140.063 75.5389L139.905 73.4983H139.909Z" fill="#EB996E"/>
<path d="M142.431 52.0578C142.494 52.6493 142.037 53.1898 141.416 53.2681C140.794 53.3425 140.244 52.9234 140.181 52.332C140.122 51.7406 140.574 51.1961 141.192 51.1217C141.813 51.0473 142.364 51.4664 142.427 52.0617L142.431 52.0578Z" fill="#263238"/>
<path d="M143.536 49.2613C143.406 49.4179 142.505 48.8422 141.29 48.9283C140.075 48.9949 139.221 49.6764 139.079 49.5393C139.009 49.4767 139.134 49.2025 139.504 48.897C139.87 48.5915 140.503 48.2742 141.262 48.2272C142.022 48.1802 142.679 48.4152 143.064 48.6777C143.457 48.9401 143.603 49.1947 143.536 49.2652V49.2613Z" fill="#263238"/>
<path d="M130.937 52.8764C131 53.4679 130.543 54.0084 129.922 54.0867C129.3 54.1611 128.75 53.742 128.687 53.1506C128.628 52.5592 129.08 52.0147 129.698 51.9403C130.319 51.8659 130.87 52.285 130.933 52.8803L130.937 52.8764Z" fill="#263238"/>
<path d="M131.594 50.2836C131.464 50.4403 130.563 49.8645 129.348 49.9507C128.132 50.0173 127.279 50.6988 127.137 50.5617C127.066 50.499 127.192 50.2248 127.562 49.9193C127.924 49.6138 128.561 49.2966 129.316 49.2496C130.075 49.2026 130.732 49.4376 131.118 49.7C131.511 49.9624 131.657 50.217 131.59 50.2875L131.594 50.2836Z" fill="#263238"/>
<path d="M136.609 58.9749C136.597 58.9083 137.345 58.7242 138.56 58.4892C138.867 58.4383 139.158 58.3561 139.197 58.1406C139.256 57.9135 139.103 57.5884 138.93 57.2359C138.588 56.5073 138.23 55.7436 137.852 54.9406C136.349 51.6701 135.24 48.9754 135.374 48.9166C135.508 48.8579 136.829 51.4586 138.332 54.7291C138.694 55.536 139.04 56.3037 139.37 57.04C139.512 57.3847 139.74 57.7685 139.614 58.2425C139.547 58.4775 139.331 58.6616 139.134 58.7281C138.938 58.8026 138.765 58.8182 138.611 58.8378C137.384 58.9867 136.617 59.0415 136.609 58.9749Z" fill="#263238"/>
<path d="M131.586 45.513C131.488 45.8498 130.264 45.7754 128.848 46.0417C127.428 46.2807 126.303 46.7742 126.095 46.4883C126 46.3512 126.181 46.03 126.626 45.6775C127.066 45.3289 127.782 44.9764 128.632 44.8236C129.481 44.6748 130.276 44.757 130.811 44.9333C131.35 45.1096 131.629 45.3485 131.59 45.5091L131.586 45.513Z" fill="#263238"/>
<path d="M142.852 45.7831C142.655 46.073 141.797 45.8419 140.79 45.8967C139.78 45.9163 138.942 46.2062 138.725 45.932C138.631 45.7988 138.745 45.5129 139.103 45.227C139.453 44.945 140.055 44.6904 140.747 44.6629C141.439 44.6394 142.057 44.847 142.427 45.1055C142.8 45.3641 142.938 45.6382 142.852 45.7792V45.7831Z" fill="#263238"/>
<path d="M118.987 55.2853C118.849 55.2344 113.44 54.0437 113.975 59.4253C114.51 64.803 120.363 63.0522 120.359 62.8956C120.352 62.7389 118.991 55.2892 118.991 55.2892L118.987 55.2853Z" fill="#FFBE9D"/>
<path d="M117.964 61.1291C117.94 61.1134 117.877 61.2035 117.724 61.2936C117.575 61.3797 117.315 61.4542 117.024 61.3758C116.434 61.2231 115.863 60.3692 115.741 59.4018C115.679 58.9122 115.738 58.4382 115.871 58.0348C115.997 57.6236 116.225 57.3259 116.509 57.2475C116.788 57.1535 117.008 57.3063 117.091 57.4512C117.177 57.5961 117.154 57.7058 117.185 57.7097C117.201 57.7215 117.291 57.6079 117.228 57.3885C117.197 57.2828 117.118 57.1653 116.981 57.0713C116.839 56.9773 116.646 56.946 116.446 56.9851C116.033 57.0556 115.694 57.4747 115.545 57.9173C115.372 58.3638 115.297 58.9004 115.368 59.4488C115.509 60.5298 116.166 61.4894 116.973 61.6343C117.362 61.697 117.669 61.5521 117.818 61.4072C117.972 61.2583 117.988 61.133 117.968 61.1251L117.964 61.1291Z" fill="#EB996E"/>
<path d="M144.578 37.9301C144.209 40.0726 139.846 42.031 136.231 41.9291C132.9 41.8312 131.252 40.1862 128.828 39.0151C127.806 38.5215 126.602 38.3871 125.217 38.6116C123.534 38.8858 122.665 40.8599 121.72 42.2738C123.518 46.1788 122.79 50.7184 122.031 54.9485C121.949 55.4146 121.842 55.9199 121.484 56.2332C120.879 56.7659 119.891 56.4486 119.297 55.9042C118.342 55.0307 117.905 53.7382 117.594 52.4888C116.882 49.6373 116.607 46.6488 117.059 43.7426C117.512 40.8364 118.719 38.0163 120.713 35.8464C123.203 33.136 126.846 31.5732 130.532 31.3852C134.217 31.1972 137.919 32.333 141.003 34.3463C142.435 35.2785 143.772 36.4339 144.582 37.9379" fill="#263238"/>
<path d="M137.408 61.697C136.491 61.2701 135.571 60.8432 134.654 60.4202C134.497 60.3457 134.328 60.2713 134.154 60.2948C133.958 60.3222 133.804 60.4672 133.679 60.616C133.041 61.3876 132.88 62.547 133.372 63.4165C133.867 64.286 135.028 64.7443 135.956 64.3604C136.932 63.957 137.408 62.829 137.482 61.7793L137.408 61.6931V61.697Z" fill="#EB996E"/>
<path d="M136.043 64.5563C136.05 64.5798 135.917 64.6582 135.641 64.7169C135.37 64.7678 134.945 64.7913 134.457 64.6308C133.974 64.478 133.427 64.102 133.089 63.4988C132.746 62.9113 132.62 62.0849 132.919 61.3368C133.061 60.9647 133.285 60.6356 133.557 60.3771C133.694 60.2479 133.84 60.1382 134.005 60.0403C134.092 59.9933 134.198 59.9463 134.324 59.9385C134.446 59.9306 134.556 59.962 134.642 60.0011C134.823 60.0795 134.937 60.1656 135.071 60.244C135.201 60.3223 135.323 60.4006 135.445 60.4751C135.681 60.6239 135.905 60.761 136.113 60.8942C136.932 61.4112 137.419 61.7519 137.392 61.8028C137.364 61.8498 136.821 61.5953 135.968 61.1448C135.752 61.0273 135.519 60.902 135.272 60.7688C135.146 60.6983 135.016 60.6278 134.886 60.5573C134.756 60.4868 134.611 60.3967 134.497 60.3536C134.371 60.3106 134.316 60.3145 134.194 60.3811C134.072 60.4555 133.942 60.5573 133.832 60.667C133.604 60.8902 133.419 61.1683 133.297 61.4856C133.045 62.1162 133.136 62.8016 133.415 63.3226C133.69 63.8474 134.135 64.1921 134.552 64.3644C134.973 64.5407 135.358 64.5642 135.618 64.5642C135.881 64.5563 136.027 64.5328 136.039 64.5642L136.043 64.5563Z" fill="#263238"/>
<path d="M135.173 52.1911C135.142 52.1911 135.177 51.6897 134.957 50.828C134.741 49.9859 134.174 48.7443 132.9 47.7808C132.266 47.3108 131.472 46.9152 130.555 46.7546C129.647 46.6018 128.616 46.6293 127.641 47.0014C127.149 47.1737 126.673 47.4283 126.24 47.7534C125.8 48.0706 125.398 48.4662 125.068 48.9245C124.387 49.8293 124.002 50.9886 123.99 52.1832C124.002 53.3779 124.384 54.5411 125.068 55.4459C125.398 55.9042 125.8 56.2998 126.24 56.621C126.677 56.946 127.149 57.2045 127.641 57.373C128.616 57.7451 129.647 57.7725 130.555 57.6197C131.472 57.4591 132.266 57.0635 132.9 56.5935C134.174 55.6339 134.741 54.3923 134.957 53.5463C135.177 52.6846 135.142 52.1832 135.173 52.1832C135.173 52.1832 135.177 52.2146 135.177 52.2733C135.177 52.3478 135.177 52.4339 135.177 52.5397C135.177 52.6572 135.173 52.8021 135.142 52.9744C135.118 53.1468 135.099 53.3426 135.036 53.562C134.945 54.0006 134.745 54.5216 134.426 55.0777C134.103 55.63 133.635 56.2097 132.99 56.7032C132.349 57.1928 131.535 57.608 130.591 57.7803C129.654 57.9448 128.592 57.9213 127.582 57.5453C127.07 57.373 126.578 57.1066 126.126 56.7698C125.67 56.4408 125.253 56.0334 124.911 55.5595C124.203 54.6234 123.801 53.4209 123.79 52.1793C123.801 50.9377 124.203 49.7353 124.911 48.7992C125.253 48.3252 125.67 47.9179 126.126 47.5889C126.578 47.2559 127.07 46.9896 127.582 46.8173C128.592 46.4373 129.654 46.4138 130.591 46.5823C131.535 46.7546 132.349 47.1737 132.99 47.6594C133.635 48.1529 134.103 48.7326 134.426 49.2848C134.745 49.841 134.945 50.3619 135.036 50.8006C135.099 51.016 135.118 51.2158 135.142 51.3881C135.169 51.5605 135.177 51.7054 135.177 51.8229C135.177 51.9287 135.177 52.0187 135.177 52.0892C135.177 52.148 135.177 52.1793 135.173 52.1793V52.1911Z" fill="#263238"/>
<path d="M148.642 51.6662C148.61 51.6662 148.642 51.1766 148.429 50.3384C148.217 49.5159 147.666 48.3056 146.423 47.3734C145.81 46.9151 145.035 46.5274 144.142 46.3746C143.257 46.2258 142.254 46.2532 141.302 46.6175C140.822 46.782 140.362 47.0327 139.937 47.3499C139.508 47.6593 139.119 48.0471 138.796 48.4936C138.131 49.3749 137.758 50.5029 137.746 51.6701C137.758 52.8373 138.131 53.9653 138.792 54.8466C139.115 55.2931 139.504 55.677 139.933 55.9903C140.358 56.3076 140.818 56.5583 141.298 56.7228C142.25 57.0831 143.249 57.1144 144.138 56.9617C145.031 56.805 145.806 56.4172 146.419 55.9629C147.662 55.0268 148.213 53.8204 148.422 52.9979C148.634 52.1597 148.603 51.6701 148.634 51.6701C148.642 51.6701 148.642 51.7915 148.634 52.0187C148.634 52.1323 148.63 52.2772 148.603 52.4417C148.579 52.6101 148.559 52.8021 148.5 53.0136C148.308 53.8518 147.769 55.1012 146.506 56.0765C145.88 56.5543 145.086 56.9617 144.165 57.1262C143.253 57.2868 142.218 57.2633 141.231 56.8951C140.735 56.7267 140.255 56.4682 139.815 56.1392C139.37 55.818 138.965 55.4224 138.631 54.9602C137.939 54.0476 137.549 52.8765 137.541 51.6662C137.553 50.4559 137.943 49.2848 138.635 48.3722C138.969 47.91 139.374 47.5105 139.819 47.1932C140.259 46.8681 140.739 46.6096 141.235 46.4412C142.222 46.073 143.257 46.0495 144.169 46.2101C145.09 46.3786 145.884 46.7859 146.51 47.2598C147.773 48.2351 148.311 49.4806 148.504 50.3227C148.563 50.5342 148.587 50.7262 148.606 50.8946C148.634 51.0591 148.642 51.204 148.638 51.3176C148.642 51.5487 148.642 51.6662 148.638 51.6662H148.642Z" fill="#263238"/>
<path d="M137.651 50.4246C137.628 50.4481 137.498 50.3384 137.262 50.2248C137.026 50.1112 136.672 50.0016 136.271 50.0094C135.873 50.0133 135.519 50.1387 135.287 50.2601C135.051 50.3815 134.929 50.4951 134.906 50.4755C134.886 50.4598 134.977 50.3032 135.213 50.1386C135.445 49.9741 135.822 49.8136 136.267 49.8057C136.707 49.7979 137.093 49.9428 137.333 50.0995C137.573 50.2562 137.671 50.4089 137.651 50.4246Z" fill="#263238"/>
<path d="M124.23 51.3959C124.265 51.4429 123.16 52.3203 121.764 53.3543C120.367 54.3923 119.211 55.1952 119.175 55.1521C119.14 55.1051 120.245 54.2317 121.642 53.1937C123.038 52.1558 124.195 51.3529 124.23 51.3959Z" fill="#263238"/>
<g opacity="0.3">
<path d="M119.577 76.8862C119.03 82.2013 121.06 87.814 125.339 91.0336C125.674 91.2882 126.099 91.535 126.492 91.394C126.767 91.2961 126.944 91.0336 127.09 90.779C128.309 88.6757 128.718 86.3531 128.368 83.9482C127.692 85.7264 127.109 87.4694 126.425 89.3298C122.696 87.0738 120.367 82.2796 119.577 76.8823V76.8862Z" fill="black"/>
</g>
<path opacity="0.3" d="M134.072 88.9735L137.215 87.8298L137.734 93.1214C137.734 93.1214 141.125 86.9681 142.529 84.1598C143.933 81.3514 143.21 76.3967 143.21 76.3967C143.21 76.3967 143.713 80.713 140.314 86.2161L137.75 90.3679V86.0202L134.072 88.9696V88.9735Z" fill="black"/>
<g opacity="0.3">
<path d="M97.5211 115.866C96.1208 115.208 94.508 115.118 92.97 115.298C91.3454 115.486 89.713 115.984 88.4385 117.006C87.164 118.028 86.3026 119.642 86.4599 121.263L86.6173 121.287C87.7147 118.334 89.8939 116.183 92.7064 115.921C95.5189 115.662 98.2606 116.908 100.192 118.96C100.003 117.429 98.9215 116.528 97.5211 115.866Z" fill="black"/>
</g>
<g opacity="0.3">
<path d="M176.975 118.886C175.921 117.754 174.442 117.068 172.916 116.802C170.237 116.336 167.362 117.166 165.344 118.984L165.942 118.498C167.464 117.609 169.218 117.084 170.985 117.135C172.747 117.186 174.513 117.836 175.791 119.046C176.968 120.159 177.672 121.667 178.344 123.136C178.608 121.616 178.026 120.014 176.971 118.882L176.975 118.886Z" fill="black"/>
</g>
<path d="M156.721 94.312C156.721 94.312 156.761 94.1553 156.863 93.8851C156.985 93.5756 157.134 93.1957 157.311 92.7453C157.693 91.7857 158.212 90.4579 158.767 88.9852C159.318 87.5086 159.794 86.1651 160.136 85.1898C160.297 84.7355 160.435 84.3516 160.545 84.0383C160.643 83.768 160.706 83.6192 160.718 83.6231C160.73 83.627 160.694 83.7837 160.62 84.0618C160.545 84.3399 160.427 84.7433 160.273 85.2368C159.967 86.2239 159.51 87.5791 158.96 89.0557C158.409 90.5323 157.862 91.8523 157.449 92.8001C157.241 93.2741 157.068 93.654 156.942 93.9164C156.816 94.1788 156.741 94.3198 156.729 94.312H156.721Z" fill="#263238"/>
<path d="M107.131 94.6959C107.076 94.7076 106.647 92.8432 106.175 90.5323C105.703 88.2214 105.365 86.3414 105.42 86.3296C105.475 86.3179 105.904 88.1823 106.376 90.4932C106.848 92.8041 107.186 94.6841 107.131 94.6959Z" fill="#263238"/>
<path d="M106.387 117.997C106.513 118.059 104.948 105.792 104.948 105.792C104.948 105.792 105.935 96.482 106.49 96.0511L106.505 92.765C106.505 92.765 108.036 91.8406 108.445 93.3329C108.445 93.3329 109.802 92.1618 110.038 94.9505C110.274 97.7393 110.325 100.595 110.325 100.595L113.342 108.107L113.838 108.358C113.838 108.358 114.487 102.471 114.864 101.605C115.242 100.74 115.502 98.6323 116.929 98.9496C118.361 99.2668 118.479 100.446 118.224 102.365C117.968 104.284 117.645 106.27 117.767 107.508C117.889 108.745 118.452 111.479 118.279 113.645C118.106 115.811 116.914 118.103 115.659 119.708C114.408 121.314 112.016 124.636 110.714 125.638C110.262 125.987 106.391 117.993 106.391 117.993L106.387 117.997Z" fill="#FFBE9D"/>
<path d="M107.914 108.013C107.914 108.013 107.902 107.825 107.922 107.488C107.949 107.112 107.981 106.634 108.02 106.062C108.11 104.86 108.252 103.199 108.421 101.366C108.508 100.453 108.59 99.5801 108.665 98.7849C108.704 98.3894 108.728 98.0173 108.677 97.6765C108.63 97.3357 108.496 97.042 108.299 96.8305C107.902 96.3996 107.387 96.29 107.068 96.2939C106.734 96.2939 106.561 96.38 106.553 96.3605C106.553 96.3526 106.592 96.333 106.675 96.2978C106.761 96.2665 106.891 96.2273 107.064 96.2155C107.402 96.192 107.953 96.2782 108.405 96.7365C108.63 96.9636 108.787 97.2927 108.842 97.653C108.905 98.0173 108.881 98.405 108.85 98.8045C108.779 99.6036 108.7 100.473 108.622 101.39C108.453 103.223 108.287 104.879 108.161 106.078C108.095 106.646 108.04 107.124 107.996 107.496C107.953 107.829 107.922 108.017 107.91 108.013H107.914Z" fill="#EB996E"/>
<path d="M109.534 102.996C109.562 103.019 109.227 103.313 108.999 103.963C108.755 104.601 108.669 105.565 108.496 106.611C108.335 107.66 108.173 108.608 108.051 109.29C107.925 109.975 107.835 110.394 107.807 110.39C107.78 110.387 107.819 109.956 107.91 109.266C107.996 108.577 108.134 107.625 108.295 106.576C108.464 105.534 108.574 104.566 108.866 103.904C109.003 103.575 109.168 103.336 109.302 103.188C109.436 103.039 109.53 102.98 109.534 102.988V102.996Z" fill="#EB996E"/>
<path d="M108.425 93.1683C108.425 93.1683 108.476 93.3015 108.531 93.5561C108.586 93.8068 108.653 94.171 108.728 94.6254C108.877 95.5302 109.043 96.7874 109.149 98.1857C109.251 99.584 109.275 100.853 109.259 101.77C109.251 102.228 109.239 102.6 109.22 102.855C109.204 103.109 109.188 103.25 109.172 103.25C109.141 103.25 109.137 102.682 109.113 101.77C109.09 100.853 109.047 99.5918 108.944 98.2014C108.842 96.8109 108.7 95.5537 108.586 94.645C108.472 93.7363 108.397 93.1762 108.425 93.1683Z" fill="#EB996E"/>
<path d="M117.13 104.672C117.161 104.719 116.689 104.934 116.115 104.758C115.537 104.586 115.269 104.143 115.321 104.124C115.368 104.084 115.667 104.417 116.174 104.566C116.678 104.727 117.114 104.617 117.13 104.676V104.672Z" fill="#EB996E"/>
<path d="M106.557 116.469L98.5832 119.806H93.8314C93.8314 119.806 89.1348 121.267 88.411 125.65C87.6872 130.037 87.5849 132.293 89.6501 132.834C91.7152 133.374 97.5487 133.437 100.44 132.481C103.331 131.525 110.903 125.439 110.903 125.439L111.635 121.036L106.553 116.465L106.557 116.469Z" fill="#FFBE9D"/>
<path d="M108.425 121.314C108.425 121.314 108.335 121.252 108.197 121.107C108.055 120.97 107.882 120.742 107.678 120.453C107.284 119.865 106.852 118.976 106.564 117.942C106.265 116.908 106.14 115.94 106.073 115.243C106.014 114.546 106.014 114.111 106.041 114.107C106.073 114.107 106.12 114.534 106.214 115.224C106.317 115.913 106.466 116.865 106.757 117.883C107.04 118.905 107.442 119.779 107.796 120.374C108.154 120.966 108.445 121.287 108.417 121.314H108.425Z" fill="#EB996E"/>
<path d="M111.898 122.709C111.855 122.693 112.213 122.09 112.351 121.009C112.418 120.472 112.41 119.818 112.256 119.117C112.103 118.416 111.769 117.695 111.281 117.021C110.797 116.344 110.25 115.756 109.794 115.188C109.33 114.62 108.96 114.068 108.716 113.567C108.472 113.066 108.358 112.623 108.315 112.313C108.276 112.004 108.291 111.832 108.303 111.832C108.342 111.824 108.331 112.533 108.846 113.5C109.098 113.982 109.475 114.515 109.939 115.067C110.404 115.623 110.954 116.211 111.45 116.9C111.949 117.585 112.3 118.345 112.445 119.07C112.595 119.795 112.583 120.472 112.496 121.02C112.41 121.573 112.256 122 112.13 122.282C112.071 122.423 112.012 122.528 111.969 122.599C111.93 122.669 111.902 122.705 111.898 122.701V122.709Z" fill="#EB996E"/>
<path d="M99.6059 103.591C99.5548 103.618 98.6855 102.04 97.6628 100.07C96.64 98.0995 95.8533 96.4819 95.9005 96.4545C95.9517 96.427 96.821 98.0055 97.8437 99.9756C98.8664 101.946 99.6531 103.563 99.6059 103.591Z" fill="white"/>
<path d="M112.5 89.3025C112.449 89.279 112.988 87.9669 113.7 86.3688C114.416 84.7708 115.037 83.4939 115.088 83.5174C115.14 83.5409 114.601 84.853 113.889 86.4511C113.173 88.0491 112.551 89.326 112.5 89.3025Z" fill="white"/>
<path d="M125.127 98.5773C125.084 98.6126 124.273 97.7117 123.321 96.5641C122.366 95.4165 121.63 94.4569 121.673 94.4217C121.717 94.3864 122.527 95.2873 123.479 96.4349C124.435 97.5825 125.17 98.5421 125.127 98.5773Z" fill="white"/>
<path d="M122.22 111.334C122.173 111.303 122.783 110.386 123.581 109.29C124.38 108.193 125.064 107.331 125.107 107.367C125.154 107.398 124.545 108.315 123.746 109.411C122.948 110.508 122.263 111.37 122.22 111.334Z" fill="white"/>
<path d="M118.31 129.355C118.286 129.367 118.106 129.07 117.85 128.568C117.59 128.067 117.256 127.366 116.922 126.578C116.583 125.787 116.312 125.063 116.127 124.53C115.946 123.997 115.852 123.66 115.879 123.653C115.907 123.645 116.048 123.962 116.265 124.479C116.512 125.067 116.796 125.748 117.11 126.5C117.433 127.248 117.728 127.922 117.984 128.509C118.208 129.023 118.342 129.344 118.314 129.359L118.31 129.355Z" fill="white"/>
<path d="M129.418 121.694C129.407 121.749 128.337 121.588 127.031 121.338C125.721 121.087 124.671 120.836 124.682 120.782C124.694 120.727 125.764 120.887 127.07 121.138C128.38 121.389 129.43 121.639 129.418 121.694Z" fill="white"/>
<path d="M138.037 104.856C137.994 104.817 139.016 103.657 140.314 102.259C141.613 100.865 142.702 99.7642 142.741 99.8034C142.785 99.8425 141.762 101.002 140.464 102.4C139.166 103.795 138.076 104.895 138.037 104.856Z" fill="white"/>
<path d="M146.703 127.311C146.659 127.346 145.389 125.881 143.863 124.036C142.336 122.192 141.137 120.668 141.18 120.633C141.223 120.597 142.494 122.062 144.02 123.907C145.546 125.752 146.746 127.276 146.703 127.311Z" fill="white"/>
<path d="M92.8992 117.742C92.9267 117.797 91.7663 118.385 90.4997 119.352C89.2292 120.312 88.352 121.275 88.3048 121.232C88.2851 121.216 88.4779 120.954 88.8397 120.566C89.1977 120.182 89.7327 119.681 90.3738 119.191C91.015 118.706 91.6444 118.326 92.1125 118.079C92.5806 117.836 92.8874 117.719 92.8992 117.742Z" fill="white"/>
<path d="M96.1405 109.086C96.1877 109.117 95.7746 109.818 95.2161 110.653C94.6575 111.487 94.1697 112.137 94.1225 112.106C94.0753 112.075 94.4884 111.373 95.0469 110.539C95.6055 109.705 96.0933 109.055 96.1405 109.086Z" fill="white"/>
<path d="M103.441 117.586C103.398 117.613 102.985 116.928 102.772 115.976C102.552 115.028 102.627 114.233 102.678 114.237C102.741 114.237 102.761 115.008 102.973 115.929C103.182 116.849 103.496 117.558 103.441 117.582V117.586Z" fill="white"/>
<path d="M104.523 90.5911C104.531 90.6459 103.854 90.7908 103.008 90.9083C102.163 91.0298 101.47 91.0807 101.463 91.0258C101.455 90.971 102.131 90.8261 102.977 90.7086C103.823 90.5872 104.515 90.5362 104.523 90.5911Z" fill="white"/>
<path d="M110.006 80.9049C110.034 80.9558 109.44 81.3357 108.681 81.7548C107.922 82.1739 107.28 82.4755 107.257 82.4246C107.229 82.3737 107.823 81.9938 108.582 81.5747C109.342 81.1556 109.979 80.854 110.006 80.9049Z" fill="white"/>
<path d="M125.43 84.9979C125.387 85.0331 124.706 84.2185 123.911 83.1805C123.117 82.1426 122.511 81.277 122.558 81.2417C122.602 81.2065 123.282 82.0211 124.077 83.0591C124.871 84.097 125.477 84.9626 125.43 84.9979Z" fill="white"/>
<path d="M145.007 94.735C144.968 94.7703 144.252 94.0379 143.591 92.9725C142.922 91.9071 142.58 90.9475 142.627 90.9279C142.682 90.9044 143.107 91.817 143.764 92.8667C144.417 93.9164 145.054 94.6998 145.007 94.739V94.735Z" fill="white"/>
<path d="M152.481 97.187C152.532 97.2105 152.17 98.1192 151.671 99.212C151.171 100.309 150.727 101.178 150.672 101.155C150.62 101.131 150.982 100.222 151.482 99.1297C151.981 98.033 152.426 97.1635 152.481 97.187Z" fill="white"/>
<path d="M153.527 87.0308C153.484 87.066 152.595 86.0751 151.541 84.8139C150.487 83.5527 149.669 82.4991 149.712 82.4638C149.755 82.4286 150.644 83.4195 151.698 84.6807C152.752 85.9419 153.571 86.9955 153.527 87.0308Z" fill="white"/>
<path d="M142.112 78.782C142.057 78.782 141.974 77.9359 141.935 76.8823C141.892 75.8326 141.908 74.9788 141.963 74.9749C142.018 74.9749 142.1 75.8209 142.14 76.8745C142.183 77.9242 142.167 78.778 142.112 78.782Z" fill="white"/>
<path d="M151.419 78.2689C151.427 78.3237 150.337 78.5156 148.992 78.6958C147.643 78.876 146.545 78.9739 146.537 78.919C146.53 78.8642 147.615 78.6723 148.964 78.4921C150.314 78.3119 151.411 78.214 151.419 78.2689Z" fill="white"/>
<path d="M166.075 88.9891C166.024 89.0126 165.371 87.771 164.612 86.216C163.857 84.6611 163.283 83.3764 163.334 83.3529C163.385 83.3294 164.038 84.571 164.797 86.1259C165.552 87.6809 166.127 88.9656 166.075 88.9891Z" fill="white"/>
<path d="M163.605 98.2523C163.55 98.2406 163.703 97.2418 163.947 96.0237C164.191 94.8017 164.435 93.8225 164.49 93.8342C164.545 93.846 164.392 94.8447 164.148 96.0629C163.904 97.281 163.66 98.2641 163.605 98.2523Z" fill="white"/>
<path d="M170.406 105.553C170.351 105.573 169.832 104.225 169.238 102.545C168.648 100.865 168.211 99.4861 168.266 99.4665C168.322 99.4469 168.841 100.794 169.435 102.475C170.025 104.155 170.461 105.534 170.406 105.553Z" fill="white"/>
<path d="M169.458 109.823C169.447 109.873 168.506 109.678 167.472 109.114C166.433 108.557 165.753 107.88 165.792 107.845C165.832 107.798 166.555 108.393 167.57 108.937C168.581 109.486 169.478 109.764 169.458 109.823Z" fill="white"/>
<path d="M178.167 119.563C178.116 119.587 177.801 118.992 177.463 118.236C177.125 117.48 176.893 116.849 176.944 116.826C176.995 116.802 177.31 117.397 177.648 118.153C177.986 118.909 178.218 119.54 178.167 119.563Z" fill="white"/>
<path d="M126.732 133.147C126.677 133.155 126.539 132.375 126.425 131.412C126.311 130.448 126.268 129.661 126.323 129.653C126.378 129.645 126.516 130.425 126.63 131.388C126.744 132.352 126.787 133.139 126.732 133.147Z" fill="white"/>
<path d="M153.453 132.473C153.398 132.461 153.512 131.702 153.708 130.777C153.905 129.853 154.11 129.113 154.165 129.124C154.22 129.136 154.106 129.896 153.909 130.82C153.712 131.745 153.508 132.485 153.453 132.473Z" fill="white"/>
<path d="M158.574 54.8074L162.028 48.7443C160.498 46.2728 159.617 43.3665 159.617 40.2527C159.617 31.295 166.909 24.0333 175.905 24.0333C184.902 24.0333 192.194 31.295 192.194 40.2527C192.194 49.2104 184.902 56.472 175.905 56.472C172.149 56.472 168.691 55.203 165.938 53.0762V53.084L158.574 54.8113V54.8074Z" fill="#FAFAFA"/>
<path d="M158.574 54.8075C158.924 54.7291 161.257 54.1965 165.954 53.1272L166.028 53.1115L165.981 53.0488V53.041L165.906 53.1115C166.835 53.8283 167.948 54.5333 169.258 55.1247C170.568 55.7044 172.07 56.1744 173.726 56.3938C174.552 56.4995 175.418 56.5661 176.307 56.523C176.751 56.4995 177.204 56.4878 177.66 56.4486C178.112 56.382 178.572 56.3115 179.037 56.241C180.881 55.8768 182.766 55.1796 184.528 54.0946C186.286 53.0097 187.915 51.5409 189.221 49.7353C190.523 47.9296 191.51 45.7911 191.974 43.4684C192.43 41.1458 192.395 38.6586 191.781 36.2498C191.164 33.8488 190.011 31.5066 188.288 29.5795L187.624 28.851C187.403 28.6043 187.144 28.4045 186.908 28.1773C186.66 27.9658 186.436 27.723 186.168 27.535L185.385 26.9514C185.134 26.7477 184.854 26.5832 184.575 26.4187C184.3 26.2503 184.024 26.0858 183.749 25.9173C183.458 25.7763 183.171 25.6393 182.884 25.4983C182.593 25.3651 182.313 25.2084 182.01 25.1105C179.642 24.1744 177.121 23.818 174.706 23.9942C172.29 24.1666 169.981 24.8559 168.003 25.9683C166.016 27.0689 164.341 28.5416 163.047 30.1827C161.749 31.8278 160.836 33.6373 160.269 35.4429C159.707 37.2564 159.554 39.0542 159.561 40.7188C159.609 42.3874 159.915 43.9267 160.36 45.274C160.804 46.6253 161.391 47.7886 161.992 48.7639V48.7169C159.813 52.6062 158.747 54.5059 158.578 54.8036C158.751 54.5059 159.841 52.6219 162.075 48.7639L162.091 48.7404L162.075 48.7169C161.481 47.7416 160.907 46.5823 160.47 45.2388C160.037 43.8953 159.738 42.3717 159.699 40.7149C159.699 39.062 159.856 37.2838 160.419 35.4899C160.985 33.7039 161.894 31.9139 163.18 30.2885C164.463 28.6669 166.123 27.2138 168.089 26.1289C170.048 25.0322 172.334 24.3546 174.718 24.1861C177.101 24.0177 179.595 24.3702 181.932 25.2946C182.231 25.3886 182.506 25.5453 182.793 25.6784C183.076 25.8155 183.363 25.9526 183.647 26.0936C183.918 26.2581 184.19 26.4226 184.461 26.5871C184.736 26.7516 185.012 26.9122 185.259 27.1159L186.03 27.6916C186.294 27.8757 186.514 28.1147 186.758 28.3262C186.99 28.5494 187.25 28.7492 187.466 28.992L188.123 29.7127C189.826 31.6163 190.963 33.9311 191.573 36.3007C192.179 38.6782 192.218 41.1379 191.77 43.4332C191.313 45.7284 190.342 47.8474 189.055 49.6295C187.769 51.4195 186.16 52.8765 184.422 53.9497C182.683 55.0307 180.818 55.724 178.993 56.0883C178.533 56.1588 178.077 56.2293 177.632 56.2958C177.18 56.335 176.735 56.3468 176.295 56.3742C175.414 56.4212 174.556 56.3546 173.738 56.2528C172.094 56.0413 170.603 55.5791 169.301 55.0111C167.999 54.4315 166.89 53.7382 165.961 53.0332L165.658 52.8021L165.891 53.1037V53.1115L165.926 53.0332C161.245 54.1651 158.916 54.7252 158.57 54.8114L158.574 54.8075Z" fill="#263238"/>
<path d="M180.303 39.5752C180.303 40.4486 181.015 41.1615 181.896 41.1615C182.777 41.1615 183.489 40.4525 183.489 39.5752C183.489 38.6978 182.777 37.9889 181.896 37.9889C181.015 37.9889 180.303 38.6978 180.303 39.5752Z" fill="#263238"/>
<path d="M173.935 39.5752C173.935 40.4486 174.647 41.1615 175.528 41.1615C176.409 41.1615 177.121 40.4525 177.121 39.5752C177.121 38.6978 176.409 37.9889 175.528 37.9889C174.647 37.9889 173.935 38.6978 173.935 39.5752Z" fill="#263238"/>
<path d="M167.582 38.784C167.141 39.5438 167.405 40.5113 168.164 40.9499C168.927 41.3886 169.899 41.1262 170.339 40.3703C170.78 39.6104 170.516 38.643 169.757 38.2043C168.994 37.7656 168.023 38.028 167.582 38.784Z" fill="#263238"/>
</g>
<defs>
<clipPath id="clip0_17_590">
<rect width="275" height="157" fill="white"/>
</clipPath>
</defs>
</svg>
