<svg width="255" height="135" viewBox="0 0 255 135" fill="none" xmlns="http://www.w3.org/2000/svg">
<g id="Frame" clip-path="url(#clip0_15_251)">
<g id="Background_Complete">
<path id="Vector" d="M231.916 85.1257C232.944 84.5099 234.034 84.0409 235.164 83.7245L235.834 80.5265L241.261 80.4304L242.045 83.6002C243.18 83.877 244.293 84.3065 245.337 84.8884L248.079 83.0973L251.985 86.849L250.282 89.6402C250.901 90.6629 251.372 91.7477 251.69 92.8721L254.904 93.5389L255 98.9404L251.815 99.7202C251.537 100.85 251.105 101.958 250.521 102.997L252.32 105.726L248.551 109.614L245.746 107.919C244.719 108.534 243.628 109.003 242.499 109.32L241.829 112.518L236.401 112.614L235.618 109.444C234.482 109.167 233.37 108.738 232.325 108.156L229.583 109.947L225.677 106.195L227.38 103.404C226.761 102.381 226.29 101.297 225.972 100.172L222.759 99.5055L222.662 94.1039L225.847 93.3242C226.125 92.1941 226.557 91.0867 227.142 90.047L225.342 87.318L229.112 83.4307L231.916 85.1257ZM234.812 92.3241C232.575 94.6293 232.643 98.2963 234.959 100.522C237.276 102.749 240.96 102.681 243.197 100.376C245.428 98.0703 245.366 94.4033 243.055 92.1772C240.739 89.951 237.054 90.0188 234.817 92.3241H234.812Z" fill="#EBEBEB"/>
<path id="Vector_2" d="M59.9406 87.0695C61.7289 85.9959 63.6365 85.1766 65.6008 84.6229L66.7646 79.0462L76.2286 78.8823L77.5912 84.4139C79.5726 84.8998 81.5085 85.6513 83.3309 86.6626L88.1112 83.5437L94.9182 90.0867L91.9547 94.9515C93.039 96.7313 93.8566 98.6297 94.4129 100.585L100.011 101.743L100.175 111.162L94.6173 112.518C94.1291 114.49 93.374 116.417 92.3577 118.23L95.4916 122.988L88.9173 129.762L84.0292 126.813C82.2409 127.886 80.3333 128.706 78.369 129.259L77.2051 134.836L67.7411 135L66.3786 129.468C64.3972 128.983 62.4613 128.231 60.6389 127.22L55.8586 130.339L49.0516 123.796L52.0151 118.931C50.9364 117.151 50.1132 115.253 49.5569 113.298L43.9591 112.139L43.7944 102.72L49.3525 101.364C49.8407 99.3925 50.5958 97.4658 51.612 95.6521L48.4782 90.8946L55.0525 84.1201L59.9406 87.0695ZM64.982 99.6129C61.0874 103.63 61.2009 110.026 65.2318 113.902C69.2683 117.778 75.695 117.665 79.5896 113.654C83.4842 109.636 83.3706 103.24 79.3398 99.3643C75.3033 95.4882 68.8766 95.6012 64.982 99.6129Z" fill="#EBEBEB"/>
<path id="Vector_3" d="M119.523 31.7767C120.392 31.2513 121.323 30.8557 122.277 30.5845L122.845 27.8724L127.449 27.7933L128.113 30.4828C129.078 30.7201 130.021 31.0817 130.906 31.579L133.234 30.0591L136.55 33.2401L135.108 35.6075C135.635 36.472 136.033 37.3987 136.305 38.3479L139.03 38.9129L139.11 43.4952L136.408 44.1563C136.169 45.1168 135.806 46.0548 135.306 46.9362L136.833 49.2528L133.637 52.5525L131.258 51.1173C130.39 51.6428 129.459 52.0383 128.505 52.3095L127.937 55.0216L123.333 55.1007L122.669 52.4112C121.703 52.1739 120.761 51.8123 119.875 51.3151L117.548 52.835L114.232 49.6539L115.674 47.2865C115.146 46.422 114.749 45.4954 114.476 44.5461L111.751 43.9811L111.672 39.3988L114.374 38.7378C114.613 37.7772 114.976 36.8393 115.476 35.9579L113.948 33.6413L117.145 30.3416L119.523 31.7767ZM121.976 37.8789C120.08 39.8339 120.137 42.9471 122.101 44.8287C124.065 46.7158 127.193 46.6593 129.084 44.7044C130.98 42.7494 130.923 39.6361 128.959 37.7546C126.995 35.8675 123.867 35.924 121.976 37.8789Z" fill="#F5F5F5"/>
<path id="Vector_4" d="M147.825 44.6083C149.352 43.6929 150.976 42.9923 152.65 42.5234L153.644 37.7659L161.717 37.6246L162.881 42.3425C164.573 42.755 166.219 43.3935 167.78 44.258L171.862 41.5967L177.67 47.1791L175.144 51.332C176.069 52.8519 176.767 54.4679 177.239 56.1347L182.013 57.1234L182.155 65.158L177.415 66.3163C177 68.0001 176.359 69.6386 175.49 71.1924L178.164 75.2549L172.555 81.035L168.382 78.5207C166.855 79.436 165.231 80.1367 163.556 80.6056L162.563 85.3631L154.49 85.5044L153.326 80.7864C151.634 80.374 149.988 79.7299 148.426 78.871L144.345 81.5323L138.537 75.9499L141.063 71.797C140.143 70.2771 139.439 68.6611 138.962 66.9943L134.182 66.0055L134.04 57.971L138.781 56.8127C139.195 55.1289 139.842 53.4904 140.705 51.9366L138.031 47.8741L143.641 42.0939L147.813 44.6083H147.825ZM152.128 55.3097C148.807 58.7337 148.903 64.1918 152.344 67.4972C155.784 70.8026 161.268 70.7065 164.59 67.2825C167.911 63.8585 167.814 58.4004 164.374 55.095C160.933 51.7897 155.449 51.8857 152.128 55.3097Z" fill="#EBEBEB"/>
<path id="Vector_5" d="M151.759 3.49182C152.52 3.03415 153.337 2.68384 154.172 2.44653L154.671 0.0678023L158.708 0L159.287 2.35613C160.133 2.56519 160.956 2.8816 161.734 3.31666L163.772 1.98322L166.679 4.77441L165.413 6.84803C165.873 7.60516 166.225 8.41878 166.463 9.24936L168.853 9.74658L168.921 13.7639L166.554 14.3402C166.344 15.1821 166.026 16.0013 165.589 16.7754L166.923 18.8038L164.118 21.6967L162.035 20.4367C161.274 20.8944 160.457 21.2447 159.622 21.482L159.122 23.8608L155.086 23.9286L154.507 21.5724C153.661 21.3634 152.838 21.047 152.06 20.6119L150.022 21.9453L147.115 19.1541L148.381 17.0805C147.921 16.3234 147.569 15.5098 147.331 14.6792L144.941 14.182L144.872 10.1647L147.24 9.58837C147.45 8.74649 147.768 7.92722 148.205 7.15314L146.871 5.12472L149.675 2.23183L151.759 3.49182ZM153.911 8.84255C152.247 10.5546 152.298 13.2836 154.019 14.9391C155.739 16.5946 158.481 16.5438 160.144 14.8317C161.808 13.1197 161.757 10.3907 160.036 8.73519C158.316 7.07969 155.574 7.13054 153.911 8.84255Z" fill="#EBEBEB"/>
</g>
<g id="Gears">
<path id="Vector_6" d="M103.519 62.7058C105.489 61.5192 107.584 60.6265 109.747 60.0106L111.03 53.8745L121.442 53.6937L122.941 59.779C125.121 60.3158 127.25 61.1407 129.26 62.2538L134.523 58.8184L142.017 66.0168L138.752 71.3732C139.945 73.3338 140.842 75.4187 141.46 77.5714L147.62 78.8484L147.802 89.2108L141.687 90.7025C141.148 92.8721 140.319 94.991 139.201 96.9911L142.647 102.229L135.414 109.687L130.032 106.438C128.062 107.625 125.967 108.518 123.804 109.133L122.521 115.27L112.109 115.45L110.61 109.365C108.43 108.828 106.301 108.003 104.291 106.89L99.0285 110.326L91.5345 103.127L94.799 97.7709C93.6067 95.8102 92.704 93.7253 92.0909 91.5726L85.9311 90.2957L85.7494 79.9332L91.8638 78.4416C92.4031 76.2719 93.232 74.1531 94.3505 72.1529L90.8987 66.9152L98.1315 59.4569L103.514 62.7058H103.519Z" fill="#196BC1"/>
<path id="Vector_7" d="M110.23 74.7294H104.507V92.5105H110.23V74.7294Z" fill="white"/>
<path id="Vector_8" d="M118.774 78.7863H113.051V92.5049H118.774V78.7863Z" fill="white"/>
<path id="Vector_9" d="M126.683 84.3629H120.96V92.5105H126.683V84.3629Z" fill="white"/>
<path id="Vector_10" d="M17.7642 61.4458C19.7342 60.2592 21.8291 59.3665 23.9921 58.7506L25.2752 52.6145L35.6873 52.4337L37.1861 58.519C39.3662 59.0557 41.4951 59.8807 43.5049 60.9938L48.7677 57.5584L56.2617 64.7568L52.9973 70.1132C54.1895 72.0738 55.0865 74.1587 55.7053 76.3114L61.8652 77.5884L62.0468 87.9508L55.9324 89.4425C55.3931 91.6121 54.5642 93.731 53.4458 95.7311L56.8919 100.969L49.659 108.427L44.277 105.178C42.307 106.365 40.2121 107.258 38.049 107.873L36.766 114.009L26.3539 114.19L24.8551 108.105C22.675 107.568 20.546 106.743 18.5363 105.63L13.2734 109.066L5.77946 101.867L9.04388 96.5108C7.85166 94.5502 6.94897 92.4653 6.33583 90.3126L0.175996 89.0357L-0.00567627 78.6732L6.10874 77.1816C6.64808 75.0119 7.47696 72.8931 8.59538 70.8929L5.1436 65.6552L12.3764 58.1969L17.7585 61.4458H17.7642Z" fill="#196BC1"/>
<path id="Vector_11" d="M29.9249 101.229C22.1584 101.229 15.181 96.0589 12.9669 88.6571C12.9215 88.5102 13.0066 88.352 13.1599 88.3068C13.3075 88.2616 13.4665 88.3463 13.5119 88.4989C15.6579 95.6633 22.4082 100.664 29.9249 100.664C39.3718 100.664 47.0532 93.0191 47.0532 83.6171C47.0532 74.2152 39.3718 66.5705 29.9249 66.5705C22.0335 66.5705 15.1924 71.8873 13.2962 79.5038C13.2564 79.6564 13.1031 79.7468 12.9499 79.7129C12.7966 79.6733 12.7057 79.5208 12.7398 79.3682C14.6985 71.5031 21.761 66.0055 29.9192 66.0055C39.6784 66.0055 47.6152 73.9045 47.6152 83.6171C47.6152 93.3298 39.6784 101.229 29.9192 101.229H29.9249Z" fill="white"/>
<path id="Vector_12" d="M29.8283 95.8554C24.3384 95.8554 19.4673 92.1772 17.9856 86.9168C17.9458 86.7643 18.031 86.6117 18.1843 86.5665C18.3319 86.527 18.4908 86.6117 18.5363 86.7643C19.9499 91.7817 24.5939 95.2904 29.834 95.2904C36.3004 95.2904 41.5632 90.0527 41.5632 83.6171C41.5632 77.1816 36.3004 71.9438 29.834 71.9438C24.5996 71.9438 19.9556 75.447 18.5419 80.4643C18.5022 80.6169 18.3432 80.7016 18.1899 80.6621C18.0367 80.6225 17.9515 80.4643 17.9912 80.3118C19.473 75.0514 24.3441 71.3732 29.834 71.3732C36.6127 71.3732 42.131 76.8652 42.131 83.6115C42.131 90.3578 36.6127 95.8498 29.834 95.8498L29.8283 95.8554Z" fill="white"/>
<path id="Vector_13" d="M29.8284 86.3631C29.1982 86.3631 28.5907 86.1767 28.0741 85.8264C27.9435 85.7416 27.9094 85.5665 28.0003 85.4365C28.0854 85.3065 28.2671 85.2726 28.392 85.363C28.8178 85.6512 29.3174 85.7981 29.8284 85.7981C31.2477 85.7981 32.4002 84.6511 32.4002 83.2386C32.4002 81.826 31.2477 80.679 29.8284 80.679C29.4026 80.679 28.9825 80.7864 28.6134 80.9841C28.4772 81.0576 28.3012 81.0068 28.2274 80.8711C28.1536 80.7355 28.2047 80.5604 28.3409 80.4869C28.7951 80.244 29.3061 80.114 29.8284 80.114C31.5599 80.114 32.9679 81.5153 32.9679 83.2386C32.9679 84.9619 31.5599 86.3631 29.8284 86.3631Z" fill="white"/>
<path id="Vector_14" d="M29.9249 83.1312L25.3376 80.905L25.4285 82.8882L13.2394 83.1708L13.3756 84.0635L25.5761 83.8657L25.6101 85.8772L29.9249 83.1312Z" fill="white"/>
<path id="Vector_15" d="M16.5946 83.4702L16.5265 83.3403C16.2029 82.7131 15.5614 82.3063 14.846 82.278L10.8152 82.1255L12.5638 83.7019L11.0139 85.606L14.8744 85.5269C15.7431 85.5099 16.4981 84.9223 16.7366 84.0918L16.6003 83.4702H16.5946Z" fill="white"/>
<path id="Vector_16" d="M29.9249 91.0019C26.6491 91.0019 23.7196 88.8153 22.7999 85.6851C22.7545 85.5382 22.8397 85.38 22.9929 85.3348C23.1462 85.2896 23.2995 85.3743 23.3449 85.5269C24.1908 88.4198 26.8989 90.4369 29.9249 90.4369C33.7059 90.4369 36.7773 87.3745 36.7773 83.6171C36.7773 79.8597 33.7059 76.7973 29.9249 76.7973C26.9273 76.7973 24.2306 78.7918 23.362 81.6508C23.3166 81.7977 23.1576 81.8881 23.01 81.8373C22.8624 81.7921 22.7772 81.6339 22.8226 81.487C23.7594 78.3963 26.6832 76.2323 29.9306 76.2323C34.0239 76.2323 37.3507 79.5433 37.3507 83.6171C37.3507 87.6909 34.0239 91.0019 29.9306 91.0019H29.9249Z" fill="white"/>
<path id="Vector_17" d="M188.349 60.9712C190.319 59.7846 192.414 58.8919 194.577 58.276L195.86 52.1399L206.272 51.9591L207.771 58.0444C209.951 58.5811 212.08 59.4061 214.09 60.5191L219.352 57.0838L226.846 64.2822L223.582 69.6386C224.774 71.5992 225.671 73.6841 226.29 75.8368L232.45 77.1138L232.632 87.4762L226.517 88.9679C225.978 91.1375 225.149 93.2563 224.031 95.2565L227.477 100.494L220.244 107.952L214.862 104.704C212.892 105.89 210.797 106.783 208.634 107.399L207.351 113.535L196.939 113.716L195.44 107.63C193.26 107.094 191.131 106.269 189.121 105.156L183.858 108.591L176.364 101.393L179.629 96.0362C178.436 94.0756 177.534 91.9907 176.921 89.838L170.761 88.561L170.579 78.1986L176.694 76.7069C177.233 74.5373 178.062 72.4184 179.18 70.4183L175.728 65.1806L182.961 57.7223L188.343 60.9712H188.349Z" fill="#196BC1"/>
<path id="Vector_18" d="M186.356 83.7302L190.347 79.7581L198.046 86.5666L213.153 72.0964L216.854 76.0685L197.472 94.2282L186.356 83.7302Z" fill="white"/>
<path id="Vector_19" d="M83.2287 64.2031C83.2287 64.2031 83.2457 64.141 83.2968 64.028C83.3536 63.898 83.4274 63.7285 83.5239 63.5194C83.6261 63.2878 83.751 63.0166 83.8986 62.6945C84.0405 62.3668 84.2165 61.9882 84.455 61.5871C84.6821 61.1803 84.9319 60.7226 85.2101 60.231C85.4996 59.7451 85.8516 59.2366 86.2149 58.6829C86.5613 58.1179 87.0211 57.5698 87.4696 56.9709C87.9068 56.3606 88.4518 55.7787 89.0025 55.1459C89.5361 54.5017 90.1947 53.9198 90.8306 53.2643C91.1428 52.931 91.5118 52.6428 91.8695 52.3321C92.2328 52.0269 92.5905 51.6992 92.9709 51.3885C93.3626 51.089 93.76 50.7896 94.1688 50.4844C94.3732 50.3319 94.5719 50.1737 94.7876 50.0268C95.0034 49.8855 95.2191 49.7443 95.4405 49.5974C95.8833 49.3149 96.3205 49.0097 96.7803 48.7272C97.2515 48.4617 97.7284 48.1905 98.2053 47.9193C98.6822 47.6311 99.1932 47.4107 99.7041 47.1565C100.215 46.9135 100.726 46.6423 101.271 46.4446C101.81 46.2298 102.355 46.0095 102.906 45.7891C103.468 45.6083 104.042 45.4219 104.615 45.2411C106.926 44.5574 109.395 44.0828 111.95 43.9133C114.51 43.7833 117.02 43.9641 119.399 44.3709C119.989 44.4896 120.579 44.6026 121.159 44.7156C121.732 44.8682 122.3 45.0207 122.856 45.1733C123.424 45.3089 123.957 45.5179 124.497 45.6931C125.03 45.8795 125.57 46.0434 126.075 46.2694C126.586 46.4841 127.091 46.6932 127.591 46.9022C128.079 47.1282 128.55 47.3768 129.022 47.6085C129.254 47.7272 129.487 47.8402 129.72 47.9588C129.947 48.0775 130.168 48.2131 130.384 48.343C130.821 48.5973 131.258 48.8515 131.678 49.1001C132.093 49.3601 132.49 49.6426 132.882 49.9081C133.274 50.1793 133.671 50.4223 134.023 50.7161C134.733 51.2868 135.46 51.7896 136.061 52.366C136.68 52.9253 137.293 53.4395 137.799 53.9989C138.315 54.5469 138.838 55.0328 139.246 55.5527C139.672 56.0612 140.081 56.5245 140.427 56.9765C140.756 57.4342 141.063 57.8579 141.335 58.2365C141.619 58.6094 141.835 58.9597 142.017 59.2705C142.198 59.5756 142.357 59.8299 142.488 60.0446C142.607 60.2423 142.698 60.4005 142.772 60.5248C142.834 60.6322 142.863 60.6887 142.857 60.6943C142.857 60.6943 142.812 60.6435 142.743 60.5418C142.664 60.4231 142.562 60.2706 142.437 60.0785C142.301 59.8694 142.136 59.6152 141.943 59.3213C141.756 59.0162 141.529 58.6716 141.239 58.3043C140.961 57.9314 140.649 57.5189 140.314 57.0669C139.962 56.6262 139.547 56.1685 139.121 55.6657C138.707 55.1515 138.185 54.6712 137.662 54.1345C137.151 53.5864 136.538 53.0779 135.919 52.5298C135.312 51.9591 134.591 51.4676 133.881 50.9026C133.529 50.6144 133.132 50.3771 132.74 50.1115C132.348 49.8516 131.951 49.5748 131.537 49.3205C131.111 49.0775 130.685 48.8289 130.248 48.5747C130.026 48.4504 129.811 48.3148 129.584 48.1961C129.351 48.0831 129.124 47.9701 128.885 47.8515C128.414 47.6254 127.949 47.3768 127.46 47.1565C126.966 46.9531 126.461 46.744 125.956 46.535C125.456 46.309 124.917 46.1507 124.389 45.9643C123.855 45.7891 123.322 45.5801 122.759 45.4501C122.203 45.3032 121.641 45.1507 121.073 45.0038C120.494 44.8908 119.915 44.7778 119.325 44.6647C116.969 44.2636 114.482 44.0884 111.944 44.2184C109.412 44.3879 106.965 44.8569 104.672 45.5292C104.104 45.71 103.536 45.8908 102.98 46.0716C102.435 46.2864 101.896 46.5011 101.362 46.7158C100.823 46.9135 100.317 47.1791 99.8063 47.4164C99.301 47.665 98.7901 47.8797 98.3189 48.1679C97.842 48.4391 97.3651 48.7046 96.8996 48.9645C96.4397 49.2414 96.0082 49.5409 95.5654 49.8177C95.3497 49.959 95.1282 50.1002 94.9182 50.2415C94.7081 50.3884 94.5094 50.5466 94.305 50.6935C93.902 50.9986 93.5045 51.2924 93.1128 51.5862C92.7324 51.8913 92.3748 52.2134 92.0114 52.5185C91.6594 52.8293 91.2904 53.1118 90.9725 53.4395C90.3366 54.0836 89.6781 54.6543 89.1444 55.2928C88.5937 55.9143 88.0487 56.4849 87.6059 57.0952C87.1517 57.6884 86.6918 58.2252 86.3398 58.7846C85.9765 59.3326 85.6188 59.8355 85.3179 60.3158C85.0341 60.8017 84.7786 61.2537 84.5458 61.6549C84.3017 62.0504 84.12 62.4233 83.9667 62.7454C83.8135 63.0618 83.6772 63.333 83.5693 63.559C83.4671 63.768 83.382 63.9319 83.3195 64.0562C83.2628 64.1692 83.2287 64.2257 83.223 64.2201L83.2287 64.2031Z" fill="#263238"/>
<path id="Vector_20" d="M94.9863 45.5179C94.9863 45.5179 95.2077 45.3427 95.6335 45.0715C96.0593 44.7947 96.6952 44.4387 97.4957 44.0262C99.1023 43.2069 101.43 42.2577 104.121 41.6305C106.812 41.009 109.321 40.8339 111.127 40.8621C112.029 40.8734 112.762 40.9186 113.261 40.9751C113.761 41.0316 114.039 41.0712 114.039 41.0881C114.039 41.1107 113.755 41.1051 113.256 41.0881C112.756 41.0655 112.024 41.0542 111.132 41.0655C109.338 41.0881 106.857 41.2972 104.195 41.9131C101.532 42.5346 99.2159 43.4386 97.5979 44.207C96.786 44.5912 96.1388 44.919 95.7017 45.1619C95.2588 45.3992 95.009 45.5235 94.9977 45.5066L94.9863 45.5179Z" fill="#263238"/>
<path id="Vector_21" d="M231.428 102.969C231.428 102.969 231.411 103.031 231.36 103.144C231.303 103.274 231.229 103.444 231.133 103.653C231.031 103.884 230.906 104.156 230.758 104.478C230.616 104.805 230.44 105.184 230.202 105.585C229.975 105.992 229.725 106.45 229.447 106.941C229.157 107.427 228.805 107.936 228.442 108.495C228.095 109.06 227.636 109.608 227.187 110.207C226.75 110.817 226.205 111.399 225.654 112.032C225.121 112.676 224.462 113.258 223.826 113.913C223.514 114.247 223.145 114.535 222.787 114.846C222.424 115.151 222.066 115.479 221.686 115.789C221.294 116.089 220.897 116.388 220.488 116.693C220.284 116.846 220.085 117.004 219.869 117.151C219.653 117.292 219.438 117.433 219.216 117.58C218.773 117.863 218.336 118.168 217.876 118.451C217.405 118.716 216.928 118.987 216.451 119.258C215.974 119.547 215.464 119.767 214.953 120.016C214.442 120.259 213.931 120.53 213.386 120.728C212.846 120.942 212.301 121.163 211.751 121.383C211.189 121.564 210.615 121.75 210.042 121.931C207.731 122.615 205.261 123.089 202.707 123.259C200.146 123.389 197.637 123.208 195.258 122.801C194.668 122.683 194.077 122.569 193.498 122.456C192.925 122.304 192.357 122.151 191.801 121.999C191.233 121.863 190.699 121.654 190.16 121.479C189.626 121.293 189.087 121.129 188.582 120.903C188.071 120.688 187.565 120.479 187.066 120.27C186.578 120.044 186.106 119.795 185.635 119.564C185.402 119.445 185.17 119.332 184.937 119.213C184.71 119.095 184.488 118.959 184.273 118.829C183.835 118.575 183.398 118.321 182.978 118.072C182.564 117.812 182.166 117.53 181.775 117.264C181.383 116.993 180.985 116.75 180.633 116.456C179.924 115.885 179.197 115.382 178.595 114.806C177.977 114.247 177.363 113.733 176.858 113.173C176.341 112.625 175.819 112.139 175.41 111.619C174.985 111.111 174.576 110.648 174.23 110.196C173.9 109.738 173.594 109.314 173.321 108.936C173.037 108.563 172.822 108.212 172.64 107.902C172.458 107.596 172.299 107.342 172.169 107.128C172.049 106.93 171.959 106.772 171.885 106.647C171.822 106.54 171.794 106.483 171.8 106.478C171.8 106.478 171.845 106.529 171.913 106.63C171.993 106.749 172.095 106.902 172.22 107.094C172.356 107.303 172.521 107.557 172.714 107.851C172.901 108.156 173.128 108.501 173.418 108.868C173.696 109.241 174.008 109.653 174.343 110.105C174.695 110.546 175.11 111.004 175.535 111.506C175.95 112.021 176.472 112.501 176.994 113.038C177.505 113.586 178.118 114.094 178.737 114.642C179.345 115.213 180.066 115.705 180.775 116.27C181.127 116.558 181.525 116.795 181.917 117.061C182.308 117.32 182.706 117.597 183.12 117.852C183.546 118.095 183.972 118.343 184.409 118.597C184.63 118.722 184.846 118.857 185.073 118.976C185.306 119.089 185.533 119.202 185.771 119.321C186.243 119.547 186.708 119.795 187.196 120.016C187.69 120.219 188.196 120.428 188.701 120.637C189.2 120.863 189.74 121.021 190.268 121.208C190.801 121.383 191.335 121.592 191.897 121.722C192.454 121.869 193.016 122.021 193.583 122.168C194.162 122.281 194.741 122.394 195.332 122.507C197.688 122.909 200.175 123.084 202.712 122.954C205.244 122.784 207.691 122.315 209.985 121.643C210.553 121.462 211.12 121.281 211.677 121.1C212.222 120.886 212.761 120.671 213.295 120.456C213.834 120.259 214.339 119.993 214.85 119.756C215.356 119.507 215.867 119.292 216.338 119.004C216.815 118.733 217.292 118.467 217.757 118.208C218.217 117.931 218.648 117.631 219.091 117.354C219.307 117.213 219.528 117.072 219.738 116.931C219.949 116.784 220.147 116.625 220.352 116.479C220.755 116.179 221.152 115.88 221.544 115.586C221.924 115.281 222.282 114.959 222.645 114.654C222.997 114.343 223.366 114.06 223.684 113.733C224.32 113.088 224.979 112.518 225.512 111.879C226.063 111.258 226.608 110.687 227.051 110.077C227.505 109.484 227.965 108.947 228.317 108.388C228.68 107.839 229.038 107.337 229.339 106.856C229.623 106.37 229.878 105.918 230.111 105.517C230.355 105.122 230.537 104.749 230.69 104.427C230.843 104.11 230.979 103.839 231.087 103.613C231.19 103.404 231.275 103.24 231.337 103.116C231.394 103.003 231.428 102.946 231.434 102.952L231.428 102.969Z" fill="#263238"/>
<path id="Vector_22" d="M219.903 123.372C219.903 123.372 219.682 123.547 219.256 123.818C218.83 124.095 218.194 124.451 217.394 124.863C215.787 125.683 213.459 126.632 210.768 127.259C208.077 127.881 205.568 128.056 203.763 128.028C202.86 128.016 202.128 127.971 201.628 127.915C201.128 127.858 200.85 127.819 200.85 127.802C200.85 127.785 201.134 127.785 201.634 127.802C202.133 127.824 202.866 127.835 203.757 127.824C205.551 127.802 208.032 127.593 210.695 126.977C213.357 126.355 215.674 125.451 217.292 124.683C218.103 124.298 218.751 123.971 219.188 123.728C219.631 123.49 219.88 123.366 219.892 123.383L219.903 123.372Z" fill="#263238"/>
<path id="Vector_23" d="M61.5472 101.715C61.5472 101.715 61.5302 101.777 61.4791 101.89C61.4223 102.02 61.3485 102.189 61.252 102.398C61.1498 102.63 61.0249 102.901 60.8773 103.223C60.7354 103.551 60.5594 103.93 60.3209 104.331C60.0938 104.738 59.844 105.195 59.5659 105.687C59.2763 106.173 58.9243 106.681 58.561 107.235C58.2147 107.8 57.7548 108.348 57.3063 108.947C56.8692 109.557 56.3241 110.139 55.7734 110.772C55.2398 111.416 54.5812 111.998 53.9454 112.653C53.6331 112.987 53.2641 113.275 52.9064 113.586C52.5431 113.891 52.1854 114.219 51.805 114.529C51.4133 114.829 51.0159 115.128 50.6071 115.433C50.4028 115.586 50.2041 115.744 49.9883 115.891C49.7726 116.032 49.5568 116.174 49.3354 116.32C48.8926 116.603 48.4555 116.908 47.9956 117.191C47.5244 117.456 47.0475 117.727 46.5706 117.999C46.0937 118.287 45.5828 118.507 45.0718 118.761C44.5608 119.004 44.0499 119.276 43.5049 119.473C42.9655 119.688 42.4205 119.908 41.8698 120.129C41.3078 120.309 40.7344 120.496 40.161 120.677C37.8503 121.36 35.3807 121.835 32.8259 122.005C30.2655 122.135 27.7562 121.954 25.3774 121.547C24.7869 121.428 24.1965 121.315 23.6174 121.202C23.044 121.05 22.4763 120.897 21.9199 120.745C21.3522 120.609 20.8185 120.4 20.2792 120.225C19.7455 120.038 19.2062 119.874 18.7009 119.648C18.19 119.434 17.6847 119.225 17.1851 119.016C16.6968 118.79 16.2256 118.541 15.7544 118.309C15.5216 118.191 15.2889 118.078 15.0561 117.959C14.829 117.84 14.6076 117.705 14.3919 117.575C13.9547 117.321 13.5176 117.066 13.0975 116.818C12.683 116.558 12.2856 116.275 11.8939 116.01C11.5021 115.738 11.1047 115.496 10.7527 115.202C10.0431 114.631 9.3164 114.128 8.71461 113.552C8.09579 112.993 7.48264 112.478 6.97736 111.919C6.46073 111.371 5.93843 110.885 5.52966 110.365C5.10387 109.857 4.6951 109.393 4.34879 108.941C4.01951 108.484 3.71294 108.06 3.44043 107.681C3.15657 107.308 2.94083 106.958 2.75916 106.647C2.57749 106.342 2.41852 106.088 2.28794 105.873C2.16872 105.676 2.07789 105.517 2.00408 105.393C1.94163 105.286 1.91325 105.229 1.91892 105.223C1.91892 105.223 1.96434 105.274 2.03247 105.376C2.11195 105.495 2.21414 105.647 2.33904 105.839C2.47529 106.048 2.63993 106.303 2.83296 106.596C3.02031 106.902 3.2474 107.246 3.53694 107.614C3.81513 107.986 4.12738 108.399 4.46234 108.851C4.81433 109.292 5.22877 109.749 5.65456 110.252C6.069 110.766 6.59131 111.247 7.11362 111.783C7.62457 112.331 8.23772 112.84 8.85654 113.388C9.46401 113.959 10.185 114.45 10.8947 115.015C11.2467 115.303 11.6441 115.541 12.0358 115.806C12.4275 116.066 12.8249 116.343 13.2394 116.597C13.6652 116.84 14.091 117.089 14.5281 117.343C14.7495 117.467 14.9653 117.603 15.1924 117.722C15.4251 117.835 15.6522 117.948 15.8907 118.066C16.3619 118.292 16.8274 118.541 17.3157 118.761C17.8096 118.965 18.3149 119.174 18.8201 119.383C19.3197 119.609 19.8591 119.767 20.3871 119.954C20.9207 120.129 21.4544 120.338 22.0164 120.468C22.5728 120.615 23.1349 120.767 23.7026 120.914C24.2817 121.027 24.8607 121.14 25.4512 121.253C27.8072 121.654 30.2939 121.829 32.8316 121.699C35.3637 121.53 37.8106 121.061 40.1042 120.389C40.6719 120.208 41.2397 120.027 41.796 119.846C42.341 119.631 42.8804 119.417 43.414 119.202C43.9534 119.004 44.4587 118.739 44.9696 118.501C45.4749 118.253 45.9858 118.038 46.4571 117.75C46.9339 117.479 47.4108 117.213 47.8764 116.953C48.3362 116.676 48.7677 116.377 49.2105 116.1C49.4263 115.959 49.6477 115.818 49.8577 115.676C50.0678 115.529 50.2665 115.371 50.4709 115.224C50.874 114.925 51.2714 114.625 51.6631 114.332C52.0435 114.026 52.4011 113.704 52.7645 113.399C53.1165 113.089 53.4855 112.806 53.8034 112.478C54.4393 111.834 55.0978 111.264 55.6315 110.625C56.1822 110.004 56.7272 109.433 57.17 108.823C57.6242 108.229 58.0841 107.693 58.4361 107.133C58.7994 106.585 59.1571 106.082 59.458 105.602C59.7419 105.116 59.9973 104.664 60.2301 104.263C60.4742 103.867 60.6559 103.495 60.8092 103.172C60.9625 102.856 61.0987 102.585 61.2066 102.359C61.3088 102.15 61.3939 101.986 61.4564 101.862C61.5132 101.749 61.5472 101.692 61.5529 101.698L61.5472 101.715Z" fill="#263238"/>
<path id="Vector_24" d="M50.0281 122.118C50.0281 122.118 49.8066 122.293 49.3808 122.564C48.9551 122.841 48.3192 123.197 47.5187 123.609C45.912 124.428 43.5844 125.378 40.8933 126.005C38.2023 126.626 35.693 126.802 33.8876 126.773C32.9849 126.762 32.2525 126.717 31.7529 126.66C31.2533 126.604 30.9752 126.564 30.9752 126.547C30.9752 126.525 31.259 126.53 31.7586 126.547C32.2582 126.57 32.9906 126.581 33.8819 126.57C35.6759 126.547 38.1569 126.338 40.8195 125.722C43.4822 125.101 45.7985 124.197 47.4165 123.428C48.2284 123.044 48.8756 122.716 49.3127 122.474C49.7555 122.236 50.0053 122.112 50.0167 122.129L50.0281 122.118Z" fill="#263238"/>
</g>
<g id="Process">
<path id="Vector_25" d="M182.013 32.8389H67.5083C62.1603 32.8389 57.8229 28.5221 57.8229 23.1997C57.8229 17.8772 62.1603 13.5604 67.5083 13.5604H182.013C187.361 13.5604 191.698 17.8772 191.698 23.1997C191.698 28.5221 187.361 32.8389 182.013 32.8389Z" fill="#FAFAFA"/>
<path id="Vector_26" d="M182.013 32.8389C182.013 32.8389 182.269 32.8163 182.757 32.788C183.251 32.7541 183.977 32.6411 184.903 32.3699C185.817 32.0704 186.918 31.5732 188.014 30.6974C189.121 29.8386 190.177 28.5504 190.898 26.8836C191.239 26.0417 191.477 25.1094 191.585 24.1093C191.676 23.1092 191.602 22.0414 191.352 20.9678C190.853 18.832 189.484 16.6511 187.316 15.2385C186.237 14.5322 184.977 14.0181 183.614 13.7921C182.257 13.5717 180.809 13.6791 179.333 13.6508C176.381 13.6508 173.259 13.6565 169.977 13.6621C143.748 13.6734 107.522 13.6904 67.5083 13.7073C65.0387 13.7017 62.6088 14.6905 60.8659 16.3855C59.1116 18.0636 58.0613 20.4197 57.9819 22.8098C57.874 25.1998 58.7142 27.5898 60.2584 29.3696C61.7913 31.1608 63.9941 32.3473 66.3047 32.6129C67.4515 32.7428 68.6381 32.6807 69.8076 32.6976C70.9771 32.6976 72.141 32.6976 73.2991 32.6976C75.6154 32.6976 77.9091 32.6976 80.1743 32.6976C84.7104 32.6976 89.1557 32.6976 93.4931 32.6976C110.832 32.7089 126.444 32.7202 139.558 32.7315C152.667 32.7485 163.278 32.7654 170.613 32.7767C174.275 32.788 177.119 32.7993 179.055 32.805C180.015 32.8106 180.753 32.8163 181.252 32.8219C181.746 32.8219 182.002 32.8389 182.002 32.8389C182.002 32.8389 181.746 32.8502 181.252 32.8558C180.753 32.8558 180.02 32.8615 179.055 32.8728C177.119 32.8784 174.275 32.8897 170.613 32.901C163.272 32.9123 152.667 32.9293 139.558 32.9462C126.444 32.9575 110.832 32.9632 93.4931 32.9801C89.1557 32.9801 84.7161 32.9801 80.1743 32.9801C77.9034 32.9801 75.6098 32.9801 73.2991 32.9801C72.141 32.9801 70.9771 32.9801 69.8076 32.9801C68.6381 32.9632 67.4686 33.0253 66.2707 32.8954C63.8862 32.6242 61.6153 31.4037 60.037 29.5561C58.4417 27.7198 57.5788 25.2563 57.6866 22.7928C57.7718 20.3293 58.8505 17.8998 60.6615 16.1708C62.4555 14.4249 64.9649 13.4022 67.5083 13.4079C107.522 13.4248 143.748 13.4418 169.977 13.4531C173.253 13.4531 176.376 13.4587 179.333 13.4644C180.809 13.4926 182.251 13.3853 183.642 13.6169C185.028 13.8486 186.311 14.374 187.406 15.0973C189.609 16.5437 190.989 18.7586 191.488 20.9339C191.744 22.0244 191.806 23.1036 191.715 24.1206C191.602 25.132 191.358 26.0812 191.006 26.9288C190.268 28.6125 189.195 29.9064 188.071 30.7709C186.952 31.6467 185.84 32.1382 184.92 32.4321C183.989 32.692 183.251 32.7993 182.757 32.8219C182.263 32.8445 182.007 32.8445 182.007 32.8445L182.013 32.8389Z" fill="#263238"/>
<path id="Vector_27" d="M131.985 30.5506H68.042C63.9657 30.5506 60.6559 27.2621 60.6559 23.1997C60.6559 19.1428 63.9601 15.8488 68.042 15.8488H131.985C136.061 15.8488 139.371 19.1372 139.371 23.1997C139.371 27.2565 136.067 30.5506 131.985 30.5506Z" fill="#196BC1"/>
<g id="Group" opacity="0.4">
<path id="Vector_28" d="M70.1766 30.5505L79.3568 15.8544H89.1841L80.197 30.5505H70.1766Z" fill="white"/>
</g>
<g id="Group_2" opacity="0.4">
<path id="Vector_29" d="M89.8938 30.5505L99.0683 15.8544H108.901L99.9085 30.5505H89.8938Z" fill="white"/>
</g>
<g id="Group_3" opacity="0.4">
<path id="Vector_30" d="M111.053 30.5505L120.227 15.8544H130.06L121.073 30.5505H111.053Z" fill="white"/>
</g>
</g>
</g>
<defs>
<clipPath id="clip0_15_251">
<rect width="255" height="135" fill="white"/>
</clipPath>
</defs>
</svg>
