<svg width="41" height="41" viewBox="0 0 41 41" fill="none" xmlns="http://www.w3.org/2000/svg">
<path d="M35.0113 4.83341H34.2083V2.87508C34.2083 2.3557 34.002 1.85759 33.6348 1.49033C33.2675 1.12307 32.7694 0.916748 32.25 0.916748H8.75001C8.23062 0.916748 7.73251 1.12307 7.36525 1.49033C6.998 1.85759 6.79167 2.3557 6.79167 2.87508V4.83341H5.98876C4.64356 4.83341 3.35345 5.36779 2.40225 6.31899C1.45105 7.27019 0.916672 8.5603 0.916672 9.9055V15.428C0.916672 16.7732 1.45105 18.0633 2.40225 19.0145C3.35345 19.9657 4.64356 20.5001 5.98876 20.5001H6.94834C7.37342 23.4238 8.73169 26.1319 10.8208 28.221C12.9099 30.3101 15.618 31.6683 18.5417 32.0934V36.1667H8.75001C8.23062 36.1667 7.73251 36.3731 7.36525 36.7403C6.998 37.1076 6.79167 37.6057 6.79167 38.1251C6.79167 38.6445 6.998 39.1426 7.36525 39.5098C7.73251 39.8771 8.23062 40.0834 8.75001 40.0834H32.25C32.7694 40.0834 33.2675 39.8771 33.6348 39.5098C34.002 39.1426 34.2083 38.6445 34.2083 38.1251C34.2083 37.6057 34.002 37.1076 33.6348 36.7403C33.2675 36.3731 32.7694 36.1667 32.25 36.1667H22.4583V32.0934C25.382 31.6683 28.0901 30.3101 30.1792 28.221C32.2683 26.1319 33.6266 23.4238 34.0517 20.5001H35.0113C35.6773 20.5001 36.3369 20.3689 36.9523 20.114C37.5676 19.8591 38.1268 19.4855 38.5978 19.0145C39.0687 18.5435 39.4424 17.9844 39.6973 17.369C39.9521 16.7536 40.0833 16.0941 40.0833 15.428V9.9055C40.0833 9.23942 39.9521 8.57987 39.6973 7.9645C39.4424 7.34912 39.0687 6.78998 38.5978 6.31899C38.1268 5.84801 37.5676 5.4744 36.9523 5.2195C36.3369 4.96461 35.6773 4.83341 35.0113 4.83341ZM4.83334 15.428V9.9055C4.83838 9.60064 4.96173 9.30967 5.17733 9.09407C5.39293 8.87847 5.68389 8.75512 5.98876 8.75008H6.79167V16.5834H5.98876C5.68389 16.5784 5.39293 16.455 5.17733 16.2394C4.96173 16.0238 4.83838 15.7329 4.83334 15.428ZM20.5 28.3334C17.9031 28.3334 15.4125 27.3018 13.5763 25.4655C11.74 23.6292 10.7083 21.1387 10.7083 18.5417V4.83341H30.2917V18.5417C30.2917 21.1387 29.2601 23.6292 27.4238 25.4655C25.5875 27.3018 23.0969 28.3334 20.5 28.3334ZM36.1667 15.428C36.1616 15.7329 36.0383 16.0238 35.8227 16.2394C35.6071 16.455 35.3161 16.5784 35.0113 16.5834H34.2083V8.75008H35.0113C35.3161 8.75512 35.6071 8.87847 35.8227 9.09407C36.0383 9.30967 36.1616 9.60064 36.1667 9.9055V15.428Z" fill="#00A9CB"/>
</svg>
