<svg width="55" height="52" viewBox="0 0 55 52" fill="none" xmlns="http://www.w3.org/2000/svg">
<g id="Group 92">
<rect id="Rectangle 26" width="55" height="52" rx="12" transform="matrix(1 0 0 -1 0 52)" fill="#00A9CB"/>
<g id="Group 13">
<path id="Vector (Stroke)" fill-rule="evenodd" clip-rule="evenodd" d="M27.6364 9.33325C27.9132 9.33325 28.1659 9.49037 28.2884 9.73855L29.5423 12.2787L32.3463 12.6865C32.6202 12.7264 32.8478 12.9183 32.9332 13.1815C33.0187 13.4448 32.9474 13.7337 32.7491 13.9269L30.7203 15.904L31.1991 18.6967C31.2459 18.9695 31.1338 19.2452 30.9099 19.4079C30.686 19.5705 30.3892 19.592 30.1442 19.4633L27.6364 18.1455L25.1286 19.4633C24.8836 19.592 24.5868 19.5705 24.3629 19.4079C24.139 19.2452 24.0269 18.9695 24.0736 18.6967L24.5525 15.904L22.5236 13.9269C22.3254 13.7337 22.254 13.4448 22.3395 13.1815C22.425 12.9183 22.6526 12.7264 22.9265 12.6865L25.7305 12.2787L26.9844 9.73855C27.1069 9.49037 27.3596 9.33325 27.6364 9.33325ZM27.6364 11.7032L26.8654 13.2651C26.7595 13.4797 26.5548 13.6284 26.318 13.6629L24.5938 13.9136L25.8412 15.1293C26.0127 15.2963 26.0909 15.537 26.0504 15.7729L25.7559 17.4908L27.2981 16.6804C27.5099 16.5691 27.7629 16.5691 27.9746 16.6804L29.5169 17.4908L29.2223 15.7729C29.1819 15.537 29.2601 15.2963 29.4315 15.1293L30.679 13.9136L28.9548 13.6629C28.718 13.6284 28.5133 13.4797 28.4074 13.2651L27.6364 11.7032Z" fill="white"/>
<path id="Vector (Stroke)_2" fill-rule="evenodd" clip-rule="evenodd" d="M39.1495 12.0872C39.4263 12.0872 39.6791 12.2443 39.8016 12.4925L41.0554 15.0326L43.8595 15.4405C44.1334 15.4803 44.3609 15.6722 44.4464 15.9354C44.5319 16.1987 44.4605 16.4876 44.2623 16.6808L42.2335 18.6579L42.7123 21.4506C42.7591 21.7235 42.6469 21.9992 42.423 22.1618C42.199 22.3245 41.9021 22.3459 41.6571 22.2171L39.1495 20.8984L36.6419 22.2171C36.397 22.3459 36.1001 22.3245 35.8761 22.1618C35.6522 21.9992 35.54 21.7235 35.5868 21.4506L36.0656 18.6579L34.0368 16.6808C33.8386 16.4876 33.7672 16.1987 33.8527 15.9354C33.9382 15.6722 34.1657 15.4803 34.4396 15.4405L37.2436 15.0326L38.4975 12.4925C38.62 12.2443 38.8728 12.0872 39.1495 12.0872ZM39.1495 14.4571L38.3786 16.0191C38.2726 16.2336 38.068 16.3823 37.8312 16.4168L36.107 16.6676L37.3544 17.8832C37.5258 18.0502 37.604 18.2909 37.5636 18.5268L37.2692 20.2441L38.8111 19.4332C39.023 19.3218 39.2761 19.3218 39.488 19.4332L41.0299 20.2441L40.7355 18.5268C40.695 18.2909 40.7733 18.0502 40.9447 17.8832L42.1921 16.6676L40.4679 16.4168C40.2311 16.3823 40.0264 16.2336 39.9205 16.0191L39.1495 14.4571Z" fill="white"/>
<path id="Vector (Stroke)_3" fill-rule="evenodd" clip-rule="evenodd" d="M16.1232 12.0872C16.4 12.0872 16.6527 12.2443 16.7752 12.4925L18.0291 15.0326L20.8331 15.4405C21.107 15.4803 21.3346 15.6722 21.4201 15.9354C21.5056 16.1987 21.4342 16.4876 21.236 16.6808L19.2071 18.6579L19.686 21.4506C19.7327 21.7235 19.6206 21.9992 19.3966 22.1618C19.1727 22.3245 18.8758 22.3459 18.6308 22.2171L16.1232 20.8984L13.6156 22.2171C13.3706 22.3459 13.0737 22.3245 12.8498 22.1618C12.6259 21.9992 12.5137 21.7235 12.5605 21.4506L13.0393 18.6579L11.0105 16.6808C10.8122 16.4876 10.7409 16.1987 10.8264 15.9354C10.9118 15.6722 11.1394 15.4803 11.4133 15.4405L14.2173 15.0326L15.4712 12.4925C15.5937 12.2443 15.8464 12.0872 16.1232 12.0872ZM16.1232 14.4571L15.3522 16.0191C15.2463 16.2336 15.0416 16.3823 14.8048 16.4168L13.0806 16.6676L14.3281 17.8832C14.4995 18.0502 14.5777 18.2909 14.5373 18.5268L14.2428 20.2441L15.7848 19.4332C15.9966 19.3218 16.2498 19.3218 16.4617 19.4332L18.0036 20.2441L17.7092 18.5268C17.6687 18.2909 17.7469 18.0502 17.9184 17.8832L19.1658 16.6676L17.4416 16.4168C17.2048 16.3823 17.0001 16.2336 16.8942 16.0191L16.1232 14.4571Z" fill="white"/>
<path id="Vector (Stroke)_4" fill-rule="evenodd" clip-rule="evenodd" d="M27.3169 23.7327C27.261 23.7874 27.1833 23.9027 27.1197 24.0942C26.3295 26.4683 24.9333 28.7263 22.4255 30.4342C22.2646 30.5437 22.0745 30.6023 21.8798 30.6023H18.4258C17.8904 30.6023 17.4563 30.1683 17.4563 29.6328C17.4563 29.0973 17.8904 28.6633 18.4258 28.6633H21.5739C23.5148 27.262 24.6224 25.4569 25.2794 23.4832C25.5209 22.7559 26.1507 21.7554 27.3935 21.7554C29.8814 21.7554 31.6716 24.102 31.0257 26.4886C30.8105 27.2813 30.5992 27.9639 30.3146 28.6633H34.1022C35.7424 28.6633 36.9607 30.1815 36.6052 31.7829L35.0118 38.9535L35.0112 38.9562C34.7474 40.1275 33.708 40.9642 32.5041 40.9642H26.4851C25.1805 40.9642 24.1889 40.6845 23.3272 40.1785C22.6239 39.7656 22.0376 39.2159 21.4788 38.6616H18.4258C17.8904 38.6616 17.4563 38.2275 17.4563 37.692C17.4563 37.1566 17.8904 36.7225 18.4258 36.7225H21.8798C22.1369 36.7225 22.3835 36.8246 22.5654 37.0065C23.2499 37.691 23.7381 38.1712 24.3089 38.5064C24.8414 38.819 25.487 39.0251 26.4851 39.0251H32.5041C32.7966 39.0251 33.0534 38.8215 33.1193 38.5311C33.1193 38.5308 33.1194 38.5305 33.1195 38.5302L34.7123 31.3627C34.7989 30.9722 34.5021 30.6023 34.1022 30.6023H28.7877C28.4474 30.6023 28.1319 30.4239 27.9567 30.1322C27.7814 29.8404 27.7719 29.4782 27.9316 29.1777C28.5253 28.0611 28.8233 27.2004 29.1542 25.9813C29.4656 24.829 28.6056 23.6944 27.3935 23.6944C27.3722 23.6944 27.3644 23.6978 27.3615 23.6991C27.357 23.701 27.3416 23.7086 27.3169 23.7327Z" fill="white"/>
<path id="Vector" d="M13.8206 28.4829V39.9961H18.4258V28.4829H13.8206Z" stroke="white" stroke-width="2" stroke-miterlimit="10" stroke-linecap="round" stroke-linejoin="round"/>
</g>
</g>
</svg>
