<svg width="55" height="52" viewBox="0 0 55 52" fill="none" xmlns="http://www.w3.org/2000/svg">
<g id="Group 93">
<rect id="Rectangle 171" width="55" height="52" rx="12" transform="matrix(1 0 0 -1 0 52)" fill="#00A9CB"/>
<g id="Group 12">
<path id="Vector (Stroke)" fill-rule="evenodd" clip-rule="evenodd" d="M20.875 31.4433C19.3939 31.4433 18.1933 32.644 18.1933 34.125C18.1933 35.6061 19.3939 36.8067 20.875 36.8067C22.3561 36.8067 23.5567 35.6061 23.5567 34.125C23.5567 32.6439 22.3561 31.4433 20.875 31.4433ZM16 34.125C16 31.4326 18.1826 29.25 20.875 29.25C23.5674 29.25 25.75 31.4326 25.75 34.125C25.75 36.8174 23.5674 39 20.875 39C18.1826 39 16 36.8174 16 34.125Z" fill="white"/>
<path id="Vector (Stroke)_2" fill-rule="evenodd" clip-rule="evenodd" d="M20.875 15.1933C19.3939 15.1933 18.1933 16.394 18.1933 17.875C18.1933 19.3561 19.3939 20.5567 20.875 20.5567C22.3561 20.5567 23.5567 19.3561 23.5567 17.875C23.5567 16.3939 22.3561 15.1933 20.875 15.1933ZM16 17.875C16 15.1826 18.1826 13 20.875 13C23.5674 13 25.75 15.1826 25.75 17.875C25.75 20.5674 23.5674 22.75 20.875 22.75C18.1826 22.75 16 20.5674 16 17.875Z" fill="white"/>
<path id="Vector (Stroke)_3" fill-rule="evenodd" clip-rule="evenodd" d="M37.125 24.9433C35.6439 24.9433 34.4433 26.1439 34.4433 27.625C34.4433 29.1061 35.6439 30.3067 37.125 30.3067C38.6061 30.3067 39.8067 29.1061 39.8067 27.625C39.8067 26.1439 38.6061 24.9433 37.125 24.9433ZM32.25 27.625C32.25 24.9326 34.4326 22.75 37.125 22.75C39.8174 22.75 42 24.9326 42 27.625C42 30.3174 39.8174 32.5 37.125 32.5C34.4326 32.5 32.25 30.3174 32.25 27.625Z" fill="white"/>
<path id="Vector (Stroke)_4" fill-rule="evenodd" clip-rule="evenodd" d="M20.7464 21.184C21.1569 21.0425 21.6165 21.161 21.896 21.4803L25.1633 25.2135C25.6407 25.7591 26.2383 26.198 26.9137 26.4992C27.5891 26.8004 28.3257 26.9565 29.0715 26.9565H32.8381C33.4108 26.9565 33.875 27.3986 33.875 27.9438C33.875 28.4891 33.4108 28.9312 32.8381 28.9312H29.0715C28.0217 28.9312 26.9848 28.7114 26.034 28.2874C25.0833 27.8634 24.2422 27.2456 23.5701 26.4777L22.1364 24.8395V29.8877C22.1364 30.433 21.6721 30.875 21.0994 30.875C20.5267 30.875 20.0625 30.433 20.0625 29.8877V22.1124C20.0625 21.6967 20.3359 21.3255 20.7464 21.184Z" fill="white"/>
</g>
</g>
</svg>
