<svg width="55" height="52" viewBox="0 0 55 52" fill="none" xmlns="http://www.w3.org/2000/svg">
<g id="Group 96">
<rect id="Rectangle 174" width="55" height="52" rx="12" transform="matrix(1 0 0 -1 0 52)" fill="#00A9CB"/>
<path id="Layer 6" d="M41.2093 30.4054H36.3921V12.7837C36.3921 12.5758 36.31 12.3765 36.164 12.2295C36.018 12.0826 35.8199 12 35.6134 12H15.7838C15.6812 11.9993 15.5793 12.0191 15.4843 12.0582C15.3892 12.0972 15.3027 12.1549 15.2299 12.2277C15.157 12.3005 15.0992 12.3871 15.0598 12.4826C15.0203 12.578 15 12.6803 15 12.7837V33.19C15.004 34.663 15.5609 36.0802 16.5592 37.1575C17.5574 38.2348 18.9232 38.8927 20.3831 38.9994H20.788H34.8504C35.8963 39.0124 36.9334 38.8053 37.8953 38.3914C38.8571 37.9776 39.7224 37.3661 40.4359 36.5962C41.0719 35.9157 41.5209 35.0803 41.7388 34.1721C41.9406 33.1914 42.026 32.19 41.9932 31.189C41.9932 31.0857 41.9729 30.9834 41.9334 30.8879C41.8939 30.7925 41.8361 30.7059 41.7633 30.6331C41.6904 30.5602 41.604 30.5026 41.5089 30.4635C41.4138 30.4245 41.312 30.4047 41.2093 30.4054ZM20.788 37.4426H20.4817C19.4149 37.3634 18.4174 36.881 17.6894 36.0921C16.9615 35.3033 16.557 34.2665 16.5573 33.19V13.5673H34.8296V30.4054H25.7921C25.5856 30.4054 25.3875 30.4879 25.2415 30.6349C25.0955 30.7819 25.0134 30.9812 25.0134 31.189V33.1952C25.0107 34.3217 24.5645 35.4012 23.7725 36.1973C22.9805 36.9934 21.9073 37.4412 20.788 37.4426ZM40.2075 33.7855C40.0502 34.439 39.7243 35.0392 39.2627 35.5252C38.698 36.1337 38.0136 36.617 37.253 36.9444C36.4924 37.2719 35.6724 37.4362 34.8452 37.4269H24.7331C25.3131 36.883 25.7757 36.2248 26.0918 35.4931C26.408 34.7615 26.571 33.9721 26.5707 33.1743V31.9727H40.4359C40.4229 32.5885 40.3464 33.2013 40.2075 33.8012V33.7855ZM25.2989 16.8796C25.2989 16.6717 25.381 16.4724 25.527 16.3254C25.673 16.1785 25.8711 16.0959 26.0776 16.0959H32.1303C32.3368 16.0959 32.5348 16.1785 32.6809 16.3254C32.8269 16.4724 32.9089 16.6717 32.9089 16.8796C32.9089 17.0874 32.8269 17.2867 32.6809 17.4337C32.5348 17.5806 32.3368 17.6632 32.1303 17.6632H26.0776C25.9753 17.6632 25.8741 17.6429 25.7796 17.6036C25.6851 17.5642 25.5993 17.5064 25.527 17.4337C25.4547 17.3609 25.3973 17.2745 25.3582 17.1794C25.3191 17.0844 25.2989 16.9825 25.2989 16.8796ZM32.9141 22.2606C32.9141 22.4685 32.8321 22.6678 32.6861 22.8148C32.54 22.9617 32.342 23.0443 32.1355 23.0443H26.6486C26.4421 23.0443 26.244 22.9617 26.098 22.8148C25.952 22.6678 25.8699 22.4685 25.8699 22.2606C25.8699 22.0528 25.952 21.8535 26.098 21.7065C26.244 21.5595 26.4421 21.477 26.6486 21.477H32.1303C32.233 21.4763 32.3348 21.496 32.4298 21.5351C32.5249 21.5742 32.6114 21.6318 32.6842 21.7046C32.7571 21.7775 32.8149 21.8641 32.8544 21.9595C32.8938 22.0549 32.9141 22.1573 32.9141 22.2606ZM32.1303 28.4201H21.1669C20.9604 28.4201 20.7623 28.3376 20.6163 28.1906C20.4703 28.0436 20.3883 27.8443 20.3883 27.6365C20.3883 27.4286 20.4703 27.2293 20.6163 27.0824C20.7623 26.9354 20.9604 26.8528 21.1669 26.8528H32.1303C32.3368 26.8528 32.5348 26.9354 32.6809 27.0824C32.8269 27.2293 32.9089 27.4286 32.9089 27.6365C32.9089 27.8443 32.8269 28.0436 32.6809 28.1906C32.5348 28.3376 32.3368 28.4201 32.1303 28.4201ZM23.3523 21.3516C23.4335 21.6908 23.4388 22.0439 23.3679 22.3854C23.297 22.7269 23.1516 23.0483 22.9422 23.3264C22.6853 23.6614 22.3425 23.9197 21.9507 24.0735V24.7213C21.9507 24.9291 21.8687 25.1285 21.7227 25.2754C21.5767 25.4224 21.3786 25.5049 21.1721 25.5049C20.9656 25.5049 20.7675 25.4224 20.6215 25.2754C20.4755 25.1285 20.3934 24.9291 20.3934 24.7213V24.1518C20.04 24.0415 19.7175 23.8487 19.4523 23.589C19.187 23.3293 18.9866 23.0102 18.8673 22.6577C18.7985 22.4602 18.8104 22.2434 18.9004 22.0548C18.9905 21.8661 19.1513 21.7213 19.3475 21.652C19.5436 21.5827 19.7591 21.5947 19.9465 21.6853C20.1339 21.776 20.2779 21.9378 20.3467 22.1352C20.4043 22.2923 20.5094 22.4273 20.6472 22.521C20.7851 22.6147 20.9487 22.6625 21.115 22.6577C21.2308 22.6528 21.344 22.6219 21.4464 22.5673C21.5489 22.5127 21.6379 22.4358 21.707 22.3422C21.7762 22.2486 21.8237 22.1406 21.8461 22.0262C21.8685 21.9118 21.8652 21.7937 21.8365 21.6807C21.8046 21.5709 21.7455 21.4711 21.6647 21.3907C21.5838 21.3103 21.484 21.2519 21.3745 21.221C21.1358 21.1322 20.8554 21.1165 20.6374 21.0434C20.1104 20.9058 19.6465 20.5896 19.3241 20.1481C19.0016 19.7065 18.8403 19.1666 18.8673 18.6193C18.9079 18.1746 19.0734 17.7507 19.3446 17.3973C19.6158 17.0439 19.9814 16.7755 20.3986 16.6236V15.9966C20.3986 15.7888 20.4807 15.5895 20.6267 15.4425C20.7727 15.2956 20.9708 15.213 21.1773 15.213C21.3838 15.213 21.5818 15.2956 21.7279 15.4425C21.8739 15.5895 21.9559 15.7888 21.9559 15.9966V16.5922C22.1541 16.6569 22.3427 16.7483 22.5166 16.8639C22.7894 17.0523 23.0193 17.2969 23.1912 17.5815C23.363 17.8662 23.4728 18.1843 23.5132 18.5148C23.5258 18.6177 23.5182 18.7221 23.4907 18.822C23.4632 18.922 23.4165 19.0155 23.3531 19.0972C23.2897 19.179 23.2109 19.2473 23.1213 19.2984C23.0316 19.3495 22.9329 19.3824 22.8306 19.3951C22.7284 19.4078 22.6246 19.4001 22.5253 19.3724C22.426 19.3448 22.3331 19.2977 22.2519 19.2339C22.1707 19.1701 22.1027 19.0908 22.052 19.0006C22.0012 18.9104 21.9685 18.811 21.9559 18.7081C21.9511 18.5002 21.8645 18.3028 21.715 18.1593C21.5656 18.0158 21.3656 17.9379 21.1591 17.9427C20.9526 17.9476 20.7565 18.0348 20.6138 18.1852C20.4712 18.3356 20.3938 18.5368 20.3986 18.7446C20.3977 18.9381 20.4625 19.126 20.5825 19.2772C20.7024 19.4283 20.8702 19.5335 21.0579 19.5753C21.1617 19.6067 21.2655 19.6276 21.3642 19.6485C21.7013 19.7023 22.0264 19.8155 22.3245 19.9828C22.5791 20.1288 22.8016 20.3255 22.9783 20.5608C23.155 20.7961 23.2822 21.0652 23.3523 21.3516Z" fill="white"/>
</g>
</svg>
