<svg width="55" height="52" viewBox="0 0 55 52" fill="none" xmlns="http://www.w3.org/2000/svg">
<g id="Group 95">
<rect id="Rectangle 173" width="55" height="52" rx="12" transform="matrix(1 0 0 -1 0 52)" fill="#00A9CB"/>
<path id="Vector" d="M27.8678 31.9923C27.8077 31.9367 27.7421 31.8874 27.6722 31.845C27.6098 31.7964 27.5395 31.7591 27.4644 31.7345C27.3917 31.6972 27.3132 31.6723 27.2322 31.6609C26.9981 31.6112 26.7543 31.637 26.5356 31.7345C26.3839 31.7897 26.2461 31.8776 26.1321 31.9921C26.018 32.1067 25.9304 32.245 25.8756 32.3973C25.8071 32.5429 25.7736 32.7026 25.7778 32.8636C25.7758 33.0232 25.8049 33.1816 25.8633 33.33C25.9342 33.4767 26.0247 33.6129 26.1322 33.735C26.2464 33.8487 26.3819 33.9387 26.5308 33.9998C26.6797 34.0609 26.8391 34.0918 27 34.0909C27.1603 34.0951 27.3194 34.0614 27.4644 33.9927C27.6126 33.9306 27.749 33.8434 27.8678 33.735C27.9811 33.6203 28.0707 33.4843 28.1315 33.3348C28.1923 33.1853 28.2232 33.0252 28.2222 32.8636C28.2203 32.7033 28.1871 32.5448 28.1244 32.3973C28.0663 32.2466 27.979 32.109 27.8678 31.9923ZM22.7833 26.9359C22.7209 26.8873 22.6506 26.85 22.5756 26.8255C22.5044 26.7795 22.4258 26.7463 22.3433 26.7273C22.1865 26.6906 22.0235 26.6906 21.8667 26.7273L21.6467 26.8009L21.4267 26.9114L21.2433 27.0586C21.0142 27.3 20.8872 27.6211 20.8889 27.9545C20.888 28.1161 20.9188 28.2762 20.9796 28.4257C21.0404 28.5752 21.1301 28.7112 21.2433 28.8259C21.3621 28.9343 21.4986 29.0215 21.6467 29.0836C21.8318 29.16 22.0328 29.1896 22.232 29.1697C22.4312 29.1498 22.6225 29.0811 22.7891 28.9696C22.9557 28.8581 23.0924 28.7072 23.1873 28.5302C23.2822 28.3532 23.3323 28.1556 23.3333 27.9545C23.3288 27.6296 23.2022 27.3184 22.9789 27.0832L22.7833 26.9359ZM22.9789 31.9923C22.8627 31.8805 22.7256 31.793 22.5756 31.7345C22.3543 31.6315 22.1074 31.5973 21.8667 31.6364L21.6467 31.71C21.5688 31.7369 21.4948 31.774 21.4267 31.8205C21.3626 31.8658 21.3014 31.9149 21.2433 31.9677C21.1321 32.0844 21.0448 32.2221 20.9867 32.3727C20.922 32.5196 20.8886 32.6785 20.8886 32.8391C20.8886 32.9997 20.922 33.1586 20.9867 33.3055C21.0486 33.4542 21.1354 33.5912 21.2433 33.7105C21.3555 33.8286 21.49 33.9232 21.639 33.9885C21.788 34.0538 21.9485 34.0886 22.1111 34.0909C22.2714 34.0951 22.4305 34.0614 22.5756 33.9927C22.7237 33.9306 22.8601 33.8434 22.9789 33.735C23.0868 33.6157 23.1737 33.4787 23.2356 33.33C23.3002 33.1831 23.3336 33.0243 23.3336 32.8636C23.3336 32.703 23.3002 32.5442 23.2356 32.3973C23.1774 32.2466 23.0902 32.109 22.9789 31.9923ZM26.5356 26.8255C26.3855 26.8839 26.2485 26.9715 26.1322 27.0832C25.9089 27.3184 25.7823 27.6296 25.7778 27.9545C25.7788 28.1556 25.8289 28.3532 25.9238 28.5302C26.0187 28.7072 26.1555 28.8581 26.322 28.9696C26.4886 29.0811 26.6799 29.1498 26.8791 29.1697C27.0783 29.1896 27.2793 29.16 27.4644 29.0836C27.6126 29.0215 27.749 28.9343 27.8678 28.8259C27.9811 28.7112 28.0707 28.5752 28.1315 28.4257C28.1923 28.2762 28.2232 28.1161 28.2222 27.9545C28.2177 27.6296 28.0911 27.3184 27.8678 27.0832C27.6959 26.9129 27.4776 26.7975 27.2406 26.7517C27.0035 26.7058 26.7581 26.7315 26.5356 26.8255ZM32.7567 31.9923C32.6379 31.8839 32.5014 31.7967 32.3533 31.7345C32.1308 31.6406 31.8854 31.6149 31.6483 31.6608C31.4112 31.7066 31.193 31.822 31.0211 31.9923C30.9098 32.109 30.8226 32.2466 30.7644 32.3973C30.6998 32.5442 30.6664 32.703 30.6664 32.8636C30.6664 33.0243 30.6998 33.1831 30.7644 33.33C30.8263 33.4787 30.9132 33.6157 31.0211 33.735C31.1353 33.8487 31.2708 33.9387 31.4197 33.9998C31.5686 34.0609 31.728 34.0918 31.8889 34.0909C32.0492 34.0951 32.2083 34.0614 32.3533 33.9927C32.5014 33.9306 32.6379 33.8434 32.7567 33.735C32.9263 33.5624 33.0411 33.3433 33.0868 33.1052C33.1325 32.8671 33.1069 32.6208 33.0133 32.3973C32.9552 32.2466 32.8679 32.109 32.7567 31.9923ZM31.8889 16.9091H22.1111C21.787 16.9091 21.4761 17.0384 21.2469 17.2686C21.0177 17.4987 20.8889 17.8109 20.8889 18.1364V23.0455C20.8889 23.3709 21.0177 23.6831 21.2469 23.9133C21.4761 24.1434 21.787 24.2727 22.1111 24.2727H31.8889C32.213 24.2727 32.5239 24.1434 32.7531 23.9133C32.9823 23.6831 33.1111 23.3709 33.1111 23.0455V18.1364C33.1111 17.8109 32.9823 17.4987 32.7531 17.2686C32.5239 17.0384 32.213 16.9091 31.8889 16.9091ZM30.6667 21.8182H23.3333V19.3636H30.6667V21.8182ZM34.3333 12H19.6667C18.6942 12 17.7616 12.3879 17.0739 13.0784C16.3863 13.7689 16 14.7053 16 15.6818V35.3182C16 36.2947 16.3863 37.2311 17.0739 37.9216C17.7616 38.6121 18.6942 39 19.6667 39H34.3333C35.3058 39 36.2384 38.6121 36.9261 37.9216C37.6137 37.2311 38 36.2947 38 35.3182V15.6818C38 14.7053 37.6137 13.7689 36.9261 13.0784C36.2384 12.3879 35.3058 12 34.3333 12ZM35.5556 35.3182C35.5556 35.6437 35.4268 35.9558 35.1976 36.186C34.9684 36.4162 34.6575 36.5455 34.3333 36.5455H19.6667C19.3425 36.5455 19.0316 36.4162 18.8024 36.186C18.5732 35.9558 18.4444 35.6437 18.4444 35.3182V15.6818C18.4444 15.3563 18.5732 15.0442 18.8024 14.814C19.0316 14.5838 19.3425 14.4545 19.6667 14.4545H34.3333C34.6575 14.4545 34.9684 14.5838 35.1976 14.814C35.4268 15.0442 35.5556 15.3563 35.5556 15.6818V35.3182ZM32.5611 26.9359C32.4987 26.8873 32.4284 26.85 32.3533 26.8255C32.2806 26.7881 32.2021 26.7632 32.1211 26.7518C31.9643 26.7152 31.8012 26.7152 31.6444 26.7518L31.4244 26.8255L31.2044 26.9359L31.0211 27.0832C30.7978 27.3184 30.6712 27.6296 30.6667 27.9545C30.6677 28.1556 30.7178 28.3532 30.8127 28.5302C30.9076 28.7072 31.0443 28.8581 31.2109 28.9696C31.3775 29.0811 31.5688 29.1498 31.768 29.1697C31.9672 29.1896 32.1682 29.16 32.3533 29.0836C32.5014 29.0215 32.6379 28.9343 32.7567 28.8259C32.8699 28.7112 32.9596 28.5752 33.0204 28.4257C33.0812 28.2762 33.112 28.1161 33.1111 27.9545C33.1066 27.6296 32.98 27.3184 32.7567 27.0832L32.5611 26.9359Z" fill="white"/>
</g>
</svg>
