<svg width="55" height="52" viewBox="0 0 55 52" fill="none" xmlns="http://www.w3.org/2000/svg">
<g id="Group 94">
<rect id="Rectangle 172" width="55" height="52" rx="12" transform="matrix(1 0 0 -1 0 52)" fill="#00A9CB"/>
<path id="Vector" d="M27.8584 25.2588C28.4655 24.7155 28.9525 24.0434 29.2863 23.2883C29.6201 22.5331 29.7928 21.7126 29.7928 20.8824C29.7928 19.3223 29.1934 17.8261 28.1264 16.7229C27.0594 15.6197 25.6122 15 24.1033 15C22.5943 15 21.1472 15.6197 20.0802 16.7229C19.0132 17.8261 18.4137 19.3223 18.4137 20.8824C18.4137 21.7126 18.5865 22.5331 18.9202 23.2883C19.254 24.0434 19.741 24.7155 20.3482 25.2588C18.7553 26.0046 17.4038 27.2089 16.4554 28.7277C15.5069 30.2465 15.0017 32.0157 15 33.8235C15 34.1355 15.1199 34.4348 15.3333 34.6554C15.5467 34.8761 15.8361 35 16.1379 35C16.4397 35 16.7291 34.8761 16.9425 34.6554C17.1559 34.4348 17.2758 34.1355 17.2758 33.8235C17.2758 31.9514 17.9951 30.156 19.2755 28.8322C20.5559 27.5084 22.2925 26.7647 24.1033 26.7647C25.914 26.7647 27.6506 27.5084 28.931 28.8322C30.2114 30.156 30.9307 31.9514 30.9307 33.8235C30.9307 34.1355 31.0506 34.4348 31.264 34.6554C31.4774 34.8761 31.7668 35 32.0686 35C32.3704 35 32.6599 34.8761 32.8733 34.6554C33.0867 34.4348 33.2065 34.1355 33.2065 33.8235C33.2049 32.0157 32.6996 30.2465 31.7512 28.7277C30.8027 27.2089 29.4513 26.0046 27.8584 25.2588ZM24.1033 24.4118C23.4281 24.4118 22.7681 24.2048 22.2067 23.817C21.6453 23.4291 21.2078 22.8779 20.9494 22.233C20.691 21.5881 20.6234 20.8784 20.7551 20.1938C20.8869 19.5092 21.212 18.8803 21.6894 18.3867C22.1668 17.8931 22.7751 17.5569 23.4373 17.4208C24.0995 17.2846 24.7859 17.3545 25.4096 17.6216C26.0334 17.8887 26.5666 18.3411 26.9417 18.9215C27.3168 19.5019 27.517 20.1843 27.517 20.8824C27.517 21.8184 27.1573 22.7161 26.5171 23.378C25.8769 24.0399 25.0086 24.4118 24.1033 24.4118ZM35.1865 24.7882C35.9147 23.9404 36.3904 22.893 36.5563 21.7722C36.7222 20.6513 36.5713 19.5048 36.1216 18.4706C35.6719 17.4364 34.9428 16.5586 34.0218 15.9429C33.1009 15.3271 32.0274 14.9997 30.9307 15C30.6289 15 30.3395 15.1239 30.1261 15.3446C29.9127 15.5652 29.7928 15.8645 29.7928 16.1765C29.7928 16.4885 29.9127 16.7877 30.1261 17.0084C30.3395 17.229 30.6289 17.3529 30.9307 17.3529C31.8361 17.3529 32.7044 17.7248 33.3446 18.3867C33.9848 19.0486 34.3444 19.9463 34.3444 20.8824C34.3428 21.5003 34.1843 22.1069 33.8848 22.6417C33.5853 23.1764 33.1552 23.6204 32.6376 23.9294C32.4689 24.03 32.328 24.1737 32.2284 24.3468C32.1287 24.5198 32.0737 24.7164 32.0686 24.9176C32.0639 25.1174 32.1084 25.3151 32.198 25.4921C32.2876 25.6691 32.4193 25.8196 32.5807 25.9294L33.0245 26.2353L33.1724 26.3176C34.544 26.9903 35.7012 28.0541 36.5076 29.3839C37.314 30.7137 37.736 32.254 37.724 33.8235C37.724 34.1355 37.8439 34.4348 38.0573 34.6554C38.2707 34.8761 38.5602 35 38.8619 35C39.1637 35 39.4532 34.8761 39.6666 34.6554C39.88 34.4348 39.9999 34.1355 39.9999 33.8235C40.0092 32.0182 39.5718 30.2403 38.7293 28.6589C37.8869 27.0775 36.6673 25.7451 35.1865 24.7882Z" fill="white"/>
</g>
</svg>
