<svg width="42" height="42" viewBox="0 0 42 42" fill="none" xmlns="http://www.w3.org/2000/svg">
<path d="M23.5 17.25L19.9583 22.4583L18.9167 21.4167C18.0833 20.5833 16.8333 20.5833 16 21.4167C15.1667 22.25 15.1667 23.5 16 24.3333L18.9167 27.25C19.3333 27.6667 19.75 27.875 20.375 27.875H20.5833C21.2083 27.875 21.8333 27.4583 22.0417 27.0417L27.0417 19.5417C27.6667 18.5 27.4583 17.25 26.4167 16.625C25.375 16 24.125 16.2083 23.5 17.25Z" fill="#00A9CB"/>
<path d="M39.3334 15.1667C38.5 14.3334 38.0834 13.2917 38.0834 12.2501C38.0834 7.66675 34.3334 3.91675 29.75 3.91675C28.7084 3.91675 27.6667 3.50008 26.8334 2.66675C23.5 -0.666585 18.2917 -0.666585 14.9584 2.66675C14.3334 3.50008 13.2917 3.91675 12.25 3.91675C7.66669 3.91675 3.91669 7.66675 3.91669 12.2501C3.91669 13.2917 3.50002 14.3334 2.66669 15.1667C-0.666646 18.5001 -0.666646 23.7084 2.66669 27.0417C3.50002 27.8751 3.91669 28.9167 3.91669 29.9584C3.91669 34.5417 7.66669 38.2917 12.25 38.2917C13.2917 38.2917 14.3334 38.7084 15.1667 39.5418C16.8334 41.0001 18.9167 41.8334 21 41.8334C23.0834 41.8334 25.375 41.0001 26.8334 39.3334C27.6667 38.5001 28.7084 38.0834 29.75 38.0834C34.3334 38.0834 38.0834 34.3334 38.0834 29.7501C38.0834 28.7084 38.5 27.6667 39.125 26.8334C42.6667 23.7084 42.6667 18.2917 39.3334 15.1667ZM36.4167 23.9167C34.75 25.5834 33.9167 27.6668 33.9167 29.7501C33.9167 32.0418 32.0417 33.9168 29.75 33.9168C27.4584 33.9168 25.375 34.7501 23.9167 36.4168C22.25 38.0834 19.5417 38.0834 18.0834 36.4168C16.4167 34.7501 14.3334 33.9168 12.25 33.9168C9.95835 33.9168 8.08335 32.0418 8.08335 29.7501C8.08335 27.4584 7.25002 25.3751 5.58335 23.9167C3.91669 22.2501 3.91669 19.7501 5.58335 18.0834C7.25002 16.4167 8.08335 14.3334 8.08335 12.2501C8.08335 9.95842 9.95835 8.08342 12.25 8.08342C14.5417 8.08342 16.625 7.25008 18.0834 5.58342C18.9167 4.75008 19.9584 4.33342 21 4.33342C22.0417 4.33342 23.0834 4.75008 23.9167 5.58342C25.5834 7.25008 27.6667 8.08342 29.75 8.08342C32.0417 8.08342 33.9167 9.95842 33.9167 12.2501C33.9167 14.5417 34.75 16.6251 36.4167 18.0834C38.0834 19.7501 38.0834 22.2501 36.4167 23.9167Z" fill="#00A9CB"/>
</svg>
